<svg width="375" height="197" viewBox="0 0 375 197" fill="none" xmlns="http://www.w3.org/2000/svg">
<g clip-path="url(#clip0_201_5174)">
<path d="M118.447 116.247C121.678 115.999 124.557 115.776 127.566 115.546V122.276H131.035V115.554C134.062 115.784 136.941 116.002 140.147 116.247C137.973 112.838 135.966 109.695 133.821 106.33C135.29 106.52 136.522 106.675 138.032 106.868C136.181 103.462 134.441 100.261 132.534 96.7547C133.892 96.9068 135.016 97.0329 136.474 97.1962C134.834 93.9758 133.332 91.0263 131.655 87.7355C132.745 87.921 133.517 88.0471 134.511 88.2178C133.213 85.7506 132.018 83.4838 130.675 80.935C131.647 81.2392 132.352 81.4618 133.28 81.7512C131.933 77.8259 130.679 74.1678 129.302 70.1498C127.93 74.1455 126.668 77.8259 125.318 81.7475C126.231 81.4655 126.976 81.2318 127.933 80.935C126.609 83.443 125.411 85.7135 124.094 88.2104C125.106 88.0397 125.886 87.9062 126.95 87.7281C125.314 90.9336 123.808 93.8868 122.138 97.159C123.511 97.0218 124.639 96.9105 126.075 96.7658C124.186 100.224 122.435 103.436 120.554 106.883C122.035 106.679 123.27 106.508 124.799 106.301C122.669 109.636 120.669 112.771 118.454 116.244L118.447 116.247Z" fill="#E9F3FF"/>
<path d="M56.0336 148.959C50.8952 148.562 46.3171 148.209 41.5312 147.842V158.546H36.0144V147.857C31.2025 148.224 26.6244 148.573 21.5269 148.963C24.9846 143.542 28.1715 138.545 31.5847 133.195C29.2474 133.495 27.2922 133.744 24.8918 134.052C27.8339 128.639 30.6015 123.549 33.6326 117.969C31.4771 118.21 29.6851 118.41 27.3701 118.67C29.9782 113.546 32.3675 108.861 35.035 103.629C33.2987 103.922 32.0744 104.127 30.4939 104.394C32.5567 100.472 34.4562 96.8697 36.5895 92.8146C35.0461 93.2969 33.922 93.6493 32.4491 94.1094C34.5898 87.8653 36.5857 82.048 38.7746 75.663C40.9561 82.0146 42.967 87.8653 45.1076 94.1057C43.657 93.6567 42.4698 93.2895 40.9487 92.8183C43.0523 96.8066 44.9592 100.416 47.0554 104.386C45.4452 104.112 44.2061 103.904 42.5143 103.618C45.115 108.716 47.5117 113.409 50.1681 118.614C47.9866 118.395 46.1947 118.217 43.913 117.991C46.9144 123.489 49.7006 128.598 52.6909 134.078C50.3387 133.755 48.3724 133.484 45.9424 133.15C49.3296 138.456 52.5054 143.435 56.0336 148.963V148.959Z" fill="#E9F3FF"/>
<path d="M16.4294 155.823C14.5485 155.678 12.8715 155.548 11.1204 155.414V159.332H9.10218V155.418C7.33992 155.552 5.66301 155.682 3.79688 155.823C5.06199 153.838 6.23064 152.009 7.48091 150.05C6.62761 150.161 5.90786 150.25 5.0323 150.365C6.1082 148.384 7.12103 146.518 8.23032 144.477C7.44009 144.566 6.78343 144.64 5.93755 144.733C6.89473 142.86 7.76657 141.142 8.7423 139.227C8.10789 139.335 7.65898 139.409 7.08022 139.506C7.83706 138.07 8.53084 136.749 9.31364 135.265C8.74972 135.443 8.33791 135.569 7.79625 135.74C8.57906 133.455 9.30993 131.325 10.1113 128.988C10.9089 131.314 11.6472 133.455 12.43 135.74C11.8995 135.577 11.4654 135.439 10.9089 135.269C11.6806 136.727 12.3781 138.051 13.1461 139.506C12.5562 139.405 12.1036 139.328 11.484 139.224C12.4375 141.09 13.313 142.808 14.285 144.715C13.4874 144.637 12.8307 144.57 11.996 144.485C13.0941 146.499 14.1144 148.369 15.2088 150.372C14.3481 150.254 13.6284 150.154 12.738 150.031C13.9771 151.975 15.1421 153.797 16.4331 155.819L16.4294 155.823Z" fill="#E9F3FF"/>
<path d="M26.6838 143.935C24.8029 143.791 23.1259 143.661 21.3748 143.527V147.445H19.3566V143.531C17.5943 143.665 15.9174 143.794 14.0513 143.935C15.3164 141.951 16.485 140.122 17.7353 138.163C16.882 138.274 16.1623 138.363 15.2867 138.478C16.3626 136.497 17.3754 134.631 18.4847 132.59C17.6945 132.679 17.0378 132.753 16.1919 132.846C17.1491 130.973 18.021 129.255 18.9967 127.34C18.3623 127.448 17.9134 127.522 17.3346 127.619C18.0915 126.183 18.7852 124.862 19.568 123.378C19.0041 123.556 18.5923 123.682 18.0506 123.853C18.8335 121.568 19.5643 119.438 20.3657 117.101C21.1633 119.427 21.9016 121.568 22.6844 123.853C22.1539 123.69 21.7198 123.552 21.1633 123.382C21.935 124.84 22.6325 126.164 23.4005 127.619C22.8106 127.518 22.358 127.441 21.7384 127.337C22.6919 129.203 23.5674 130.921 24.5394 132.828C23.7418 132.75 23.0851 132.683 22.2504 132.598C23.3485 134.612 24.3688 136.482 25.4632 138.485C24.6025 138.367 23.8828 138.267 22.9924 138.144C24.2315 140.088 25.3964 141.91 26.6875 143.932L26.6838 143.935Z" fill="#E9F3FF"/>
<path d="M107.35 101.912C109.231 101.767 110.908 101.637 112.659 101.504V105.421H114.678V101.507C116.44 101.641 118.117 101.771 119.983 101.912C118.718 99.9267 117.549 98.0977 116.299 96.1388C117.152 96.2501 117.872 96.3391 118.748 96.4541C117.672 94.473 116.659 92.6068 115.549 90.5663C116.34 90.6553 116.996 90.7295 117.842 90.8223C116.885 88.9487 116.013 87.2309 115.038 85.3165C115.672 85.4241 116.121 85.4983 116.7 85.5948C115.943 84.159 115.249 82.8382 114.466 81.3542C115.03 81.5323 115.442 81.6584 115.984 81.8291C115.201 79.5437 114.47 77.4141 113.669 75.0768C112.871 77.403 112.133 79.5437 111.35 81.8291C111.88 81.6658 112.314 81.5286 112.871 81.3579C112.099 82.8159 111.402 84.1404 110.634 85.5948C111.224 85.4946 111.676 85.4167 112.296 85.3128C111.342 87.179 110.467 88.8967 109.495 90.8037C110.292 90.7258 110.949 90.659 111.784 90.5737C110.686 92.5883 109.665 94.4581 108.571 96.4616C109.432 96.3428 110.151 96.2427 111.042 96.1202C109.803 98.0643 108.638 99.8859 107.347 101.908L107.35 101.912Z" fill="#E9F3FF"/>
<path d="M374.626 169.732C377.194 169.535 379.479 169.357 381.868 169.175V174.518H384.621V169.182C387.025 169.364 389.31 169.539 391.855 169.735C390.127 167.027 388.539 164.534 386.832 161.862C387.997 162.011 388.977 162.137 390.175 162.289C388.706 159.585 387.326 157.043 385.812 154.261C386.888 154.379 387.782 154.479 388.939 154.609C387.637 152.053 386.443 149.712 385.114 147.1C385.983 147.245 386.591 147.349 387.381 147.482C386.35 145.523 385.404 143.724 384.339 141.702C385.111 141.943 385.671 142.118 386.405 142.348C385.337 139.231 384.339 136.326 383.248 133.135C382.158 136.308 381.156 139.227 380.087 142.344C380.811 142.121 381.404 141.936 382.165 141.702C381.115 143.694 380.162 145.497 379.115 147.479C379.92 147.341 380.54 147.237 381.382 147.096C380.084 149.642 378.889 151.986 377.561 154.583C378.648 154.476 379.546 154.387 380.685 154.272C379.186 157.017 377.795 159.566 376.303 162.304C377.479 162.141 378.459 162.007 379.672 161.84C377.98 164.489 376.396 166.975 374.634 169.735L374.626 169.732Z" fill="#E9F3FF"/>
<path d="M365.455 154.153C366.95 154.038 368.278 153.934 369.67 153.826V156.936H371.272V153.83C372.671 153.938 374.003 154.038 375.483 154.153C374.478 152.576 373.55 151.126 372.56 149.571C373.239 149.656 373.806 149.731 374.504 149.82C373.647 148.247 372.845 146.766 371.962 145.145C372.589 145.215 373.109 145.275 373.784 145.349C373.027 143.861 372.33 142.496 371.558 140.979C372.063 141.064 372.419 141.123 372.879 141.201C372.278 140.062 371.729 139.012 371.105 137.836C371.554 137.977 371.881 138.077 372.307 138.215C371.684 136.4 371.105 134.709 370.467 132.854C369.833 134.701 369.25 136.4 368.627 138.215C369.05 138.085 369.395 137.977 369.837 137.84C369.224 138.997 368.672 140.047 368.063 141.201C368.531 141.123 368.891 141.06 369.384 140.979C368.627 142.459 367.933 143.824 367.158 145.338C367.792 145.275 368.312 145.223 368.976 145.156C368.104 146.755 367.295 148.239 366.423 149.831C367.106 149.738 367.677 149.656 368.386 149.56C367.403 151.103 366.479 152.55 365.455 154.157V154.153Z" fill="#E9F3FF"/>
<path d="M392.282 184.301C392.282 184.301 345.766 87.6761 239.252 90.6998C183.765 92.2766 120.154 139.71 84.5043 136.731C48.8549 133.755 -1.17071 132.883 3.16999 184.019L392.286 184.301H392.282Z" fill="#ACDE78"/>
<path d="M211.627 94.7067C244.613 96.3206 256.147 88.6036 232.322 91.1228C232.322 91.1228 227.751 91.5123 222.527 92.4287C220.205 92.8368 211.627 94.7067 211.627 94.7067Z" fill="#A8D672"/>
<path d="M217.664 88.6074C219.333 88.6074 220.687 87.2536 220.687 85.5837C220.687 83.9137 219.333 82.56 217.664 82.56C215.994 82.56 214.64 83.9137 214.64 85.5837C214.64 87.2536 215.994 88.6074 217.664 88.6074Z" fill="#C5101E"/>
<path d="M203.669 47.7225C203.669 60.7448 217.664 75.7483 217.664 75.7483C217.664 75.7483 231.658 60.3998 231.658 47.7225C231.658 39.9944 225.391 33.7282 217.664 33.7282C209.936 33.7282 203.669 39.9944 203.669 47.7225ZM209.134 47.6446C209.134 42.9365 212.952 39.1152 217.664 39.1152C222.375 39.1152 226.193 42.9328 226.193 47.6446C226.193 52.3564 222.375 56.174 217.664 56.174C212.952 56.174 209.134 52.3564 209.134 47.6446Z" fill="#C5101E"/>
<path d="M218.828 35.4125C211.1 35.4125 204.834 41.6788 204.834 49.4069C204.834 56.2334 208.677 63.6016 212.339 69.0702C208.384 63.4977 203.673 55.2799 203.673 47.7225C203.673 40.1651 209.939 33.7282 217.667 33.7282C222.816 33.7282 227.309 36.5107 229.739 40.6511C227.175 37.4605 223.243 35.4162 218.828 35.4162V35.4125Z" fill="#A3111C"/>
<path d="M231.621 48.791C231.621 48.791 231.621 48.7984 231.621 48.8058L231.383 50.8686C229.458 62.8002 217.663 75.7483 217.663 75.7483C217.663 75.7483 215.69 73.6336 213.226 70.2982C224.163 68.1093 231.001 52.7645 231.621 48.791Z" fill="#C5101E"/>
<path d="M293.047 95.3152C293.047 94.5138 293.696 93.8645 294.498 93.8645C295.299 93.8645 295.948 94.5138 295.948 95.3152C295.948 96.1165 295.299 96.7658 294.498 96.7658C293.696 96.7658 293.047 96.1165 293.047 95.3152Z" fill="#C5101E"/>
<path d="M287.79 77.1724C287.79 83.4128 294.494 90.6029 294.494 90.6029C294.494 90.6029 301.198 83.2458 301.198 77.1724C301.198 73.4698 298.197 70.4684 294.494 70.4684C290.791 70.4684 287.79 73.4698 287.79 77.1724ZM290.409 77.1353C290.409 74.8796 292.238 73.0469 294.498 73.0469C296.757 73.0469 298.586 74.8759 298.586 77.1353C298.586 79.3948 296.757 81.2238 294.498 81.2238C292.238 81.2238 290.409 79.3948 290.409 77.1353Z" fill="#C5101E"/>
<path d="M295.054 71.274C291.351 71.274 288.35 74.2754 288.35 77.978C288.35 81.2503 290.194 84.7786 291.945 87.4016C290.049 84.7303 287.793 80.794 287.793 77.1692C287.793 73.5445 290.795 70.4652 294.497 70.4652C296.964 70.4652 299.12 71.7971 300.285 73.782C299.057 72.2534 297.172 71.274 295.057 71.274H295.054Z" fill="#A3111C"/>
<path d="M301.187 77.6849C301.187 77.6849 301.187 77.6887 301.187 77.6924L301.076 78.6792C300.152 84.3964 294.501 90.6034 294.501 90.6034C294.501 90.6034 293.555 89.5905 292.376 87.9915C297.618 86.9415 300.894 79.5882 301.191 77.6849H301.187Z" fill="#C5101E"/>
<path d="M239.679 90.6887C239.853 90.8223 240.042 90.9632 240.265 91.1339C240.58 91.3528 240.933 91.6162 241.344 91.8759C242.973 92.963 245.377 94.306 248.342 95.7084C254.263 98.5206 262.421 101.555 270.791 103.885C274.976 105.043 279.212 106.041 283.253 106.694C285.275 107.013 287.241 107.265 289.137 107.362C291.029 107.458 292.843 107.443 294.55 107.083C295.399 106.898 296.238 106.631 296.976 106.104C297.158 105.967 297.34 105.837 297.495 105.655L297.729 105.399C297.792 105.299 297.855 105.199 297.918 105.102C298.167 104.709 298.286 104.249 298.326 103.83C298.393 102.976 298.159 102.286 297.941 101.693C297.807 101.411 297.692 101.129 297.555 100.888C297.414 100.646 297.284 100.413 297.154 100.201C296.98 99.9416 296.82 99.7041 296.664 99.4852C295.848 99.1959 295.024 98.9139 294.197 98.6394C294.201 98.6431 294.205 98.6505 294.208 98.6579L294.227 98.6802C294.227 98.6802 294.394 98.8842 294.705 99.2626C294.869 99.4481 295.047 99.6893 295.255 99.975C295.473 100.253 295.685 100.591 295.933 100.966C296.048 101.155 296.156 101.359 296.275 101.57C296.393 101.782 296.475 102.008 296.586 102.242C296.753 102.709 296.898 103.229 296.85 103.696C296.802 104.16 296.572 104.549 296.1 104.883C295.633 105.214 294.961 105.44 294.234 105.585C292.761 105.874 291.036 105.881 289.233 105.763C287.423 105.648 285.505 105.377 283.535 105.039C279.591 104.349 275.421 103.31 271.303 102.108C263.067 99.6967 255.031 96.5803 249.288 93.7569C246.991 92.6291 245.069 91.5569 243.619 90.6442C242.313 90.6479 241.003 90.6664 239.679 90.6998V90.6887Z" fill="white"/>
<path d="M212.967 182.873C212.959 181.589 211.913 180.554 210.629 180.561H210.57C210.57 180.561 209.639 180.565 207.895 180.576C206.152 180.554 203.595 180.513 200.368 180.231C199.963 180.194 199.551 180.157 199.125 180.12C198.702 180.071 198.268 180.02 197.826 179.968C196.936 179.875 196.02 179.723 195.059 179.585C193.144 179.27 191.093 178.862 188.945 178.283C186.8 177.704 184.567 176.955 182.326 175.953C180.1 174.937 177.866 173.668 175.852 172.021C173.852 170.37 172.075 168.325 170.981 165.91C170.443 164.704 170.09 163.413 169.949 162.081C169.823 160.753 169.927 159.384 170.268 158.045C170.962 155.362 172.65 152.821 174.984 150.818C177.317 148.803 180.233 147.275 183.413 146.28C185.001 145.779 186.655 145.401 188.351 145.141C188.77 145.074 189.182 145.03 189.598 144.971C189.798 144.941 190.02 144.919 190.25 144.896L190.929 144.833L191.571 144.774L192.246 144.722C192.699 144.689 193.152 144.655 193.604 144.622C197.233 144.37 200.92 144.199 204.645 144.073C212.095 143.82 219.697 143.754 227.313 143.594C234.934 143.427 242.576 143.216 250.122 142.414C253.892 142.003 257.643 141.446 261.316 140.474C263.148 139.981 264.962 139.383 266.717 138.574C268.461 137.762 270.171 136.727 271.6 135.28C272.308 134.556 272.943 133.729 273.429 132.813C273.915 131.9 274.256 130.909 274.43 129.908C274.612 128.902 274.638 127.919 274.557 126.929C274.538 126.658 274.508 126.469 274.486 126.246C274.445 125.942 274.401 125.708 274.338 125.437C274.211 124.918 274.03 124.417 273.803 123.946C273.347 123.003 272.724 122.195 272.049 121.512C271.37 120.826 270.635 120.25 269.886 119.742C268.383 118.729 266.821 117.969 265.274 117.297C262.169 115.976 259.086 115.034 256.114 114.162C253.139 113.302 250.26 112.545 247.511 111.799C242.016 110.319 237.022 108.883 232.789 107.21C228.56 105.555 225.087 103.633 222.817 101.507C221.674 100.457 220.851 99.3665 220.29 98.3537C219.73 97.3371 219.441 96.3948 219.285 95.6157C219.129 94.8403 219.096 94.2058 219.092 93.82C219.085 93.6345 219.092 93.4379 219.092 93.3265C219.092 93.2078 219.092 93.1485 219.092 93.1485C219.092 93.1151 219.085 93.0817 219.085 93.0483C218.309 93.2004 217.534 93.3599 216.758 93.5232C216.758 93.6048 216.758 93.7013 216.758 93.8237C216.762 94.3542 216.796 95.0925 216.985 96.0683C217.17 97.0366 217.53 98.2238 218.209 99.4815C218.888 100.736 219.879 102.045 221.177 103.258C223.774 105.711 227.495 107.759 231.869 109.514C236.251 111.276 241.319 112.764 246.824 114.292C249.577 115.056 252.441 115.832 255.365 116.7C258.284 117.575 261.29 118.522 264.194 119.783C265.638 120.417 267.062 121.133 268.335 122.005C269.6 122.873 270.72 123.927 271.295 125.144C271.44 125.448 271.551 125.76 271.626 126.079C271.64 126.161 271.663 126.238 271.674 126.32L271.707 126.546C271.726 126.754 271.755 126.995 271.763 127.159C271.811 127.893 271.778 128.669 271.633 129.385C271.359 130.835 270.624 132.134 269.526 133.213C268.428 134.293 267.007 135.15 265.467 135.836C263.92 136.523 262.254 137.05 260.536 137.484C257.094 138.337 253.469 138.827 249.792 139.172C242.428 139.84 234.848 139.94 227.261 139.992C219.671 140.032 212.054 139.988 204.538 140.125C200.779 140.196 197.043 140.311 193.345 140.511C192.881 140.537 192.421 140.563 191.961 140.589L191.271 140.634L190.889 140.663L190.547 140.693L189.868 140.752C189.646 140.771 189.416 140.789 189.167 140.823C188.685 140.886 188.191 140.938 187.717 141.008C185.828 141.283 183.966 141.695 182.152 142.255C178.527 143.368 175.077 145.112 172.194 147.571C169.315 150.013 167.048 153.27 166.08 156.928C165.598 158.75 165.442 160.646 165.609 162.475C165.787 164.307 166.265 166.066 166.97 167.672C168.406 170.885 170.643 173.43 173.018 175.415C175.41 177.396 177.967 178.855 180.46 180.012C182.964 181.147 185.413 181.982 187.739 182.628C190.065 183.27 192.269 183.722 194.309 184.067C194.476 184.093 194.636 184.115 194.799 184.141L212.562 184.153C212.811 183.782 212.952 183.333 212.952 182.854L212.967 182.873Z" fill="white"/>
<path d="M253.458 40.1688H316.183C316.183 40.1688 318.969 31.4465 310.889 31.4465C305.272 31.4465 297.941 36.0544 295.14 35.7909C292.339 35.5312 292.791 31.8286 290.083 31.7359C287.375 31.6431 278.704 37.8389 277.71 37.4493C276.716 37.0635 276.041 33.8877 271.974 33.3089C266.688 32.5521 265.408 37.5606 253.461 40.1651L253.458 40.1688Z" fill="#E9F3FF"/>
<path d="M256.845 10.9744H212.611C221.414 10.2806 221.904 4.92696 225.44 4.40384C227.165 4.14785 230.43 5.85447 232.574 5.85447C234.718 5.85447 238.428 0 241.037 0C243.934 0 245.348 6.94523 246.602 7.42012C247.533 7.77258 249.84 5.0902 252.245 4.63757C255.383 4.05139 258.481 6.03256 256.845 10.9744Z" fill="#E9F3FF"/>
<path d="M159.773 29.8066H135.632C138.259 29.4319 138.822 27.4433 140.132 27.1613C141.067 26.961 143.92 28.7567 145.571 28.4191C147.348 28.0555 150.709 22.2678 154.594 21.4775C158.478 20.691 161.257 25.5994 159.769 29.8066H159.773Z" fill="#E9F3FF"/>
<path d="M24.0832 169.702C20.1877 153.159 31.173 141.383 43.4123 140.211C47.2447 139.843 49.89 136.193 48.9365 132.464C38.3815 91.1933 96.3317 64.581 122.94 109.417C149.069 91.7275 185.26 103.017 206.652 145.909C220.179 145.564 199.811 184.29 199.811 184.29H-2.8477C-10.7723 172.243 1.01813 158.765 24.0832 169.706V169.702Z" fill="#7EC172"/>
<path d="M206.649 145.909C185.257 103.014 149.066 91.7275 122.936 109.417C120.788 105.796 118.432 102.65 115.928 99.9305V184.29H199.807C199.807 184.29 220.175 145.564 206.649 145.909Z" fill="#3E7543"/>
<path d="M155.198 184.301C155.198 184.301 134.882 83.365 84.8678 86.3442C70.5175 87.1975 56.2378 94.3728 54.5979 114.607C52.8542 136.104 78.5163 166.3 80.0671 180.101C80.0671 180.101 70.4545 171.42 58.5157 173.278C46.1577 175.204 8.84993 196.362 -2.57688 169.757C-5.14791 172.499 -5.97524 176.321 -4.75465 180.298C-4.44301 181.236 -4.04233 182.19 -3.52664 183.158C-3.31888 183.537 -3.08886 183.911 -2.844 184.286H101.162L155.202 184.301H155.198Z" fill="#5EA05B"/>
<path d="M40.3071 170.759C36.137 170.759 32.1413 166.93 30.5497 164.812C30.3939 164.608 30.4384 164.315 30.6425 164.163C30.8465 164.011 31.1396 164.051 31.2917 164.255C32.5457 165.925 36.6972 170.184 40.8153 169.806C41.0676 169.787 41.2976 169.973 41.3199 170.229C41.3421 170.485 41.1529 170.711 40.8969 170.733C40.7003 170.752 40.5 170.759 40.3033 170.759H40.3071Z" fill="white"/>
<path d="M38.7561 160.594C38.5669 160.594 38.3888 160.479 38.3184 160.289C38.2293 160.048 38.3517 159.781 38.5929 159.692C42.0803 158.405 43.9353 153.57 44.1802 152.049C44.221 151.797 44.4584 151.623 44.7144 151.664C44.9667 151.704 45.141 151.942 45.1002 152.198C44.822 153.927 42.8334 159.117 38.9157 160.564C38.8637 160.583 38.8081 160.594 38.7561 160.594Z" fill="white"/>
<path d="M37.9215 157.663C37.9957 158.282 38.081 158.983 38.196 159.744C38.2962 160.508 38.4409 161.328 38.5819 162.196C38.7414 163.065 38.9009 163.981 39.105 164.92C39.2051 165.391 39.309 165.869 39.4129 166.352C39.5279 166.834 39.6466 167.32 39.7654 167.813C39.8804 168.307 40.0102 168.8 40.1512 169.29C40.2885 169.783 40.4257 170.277 40.563 170.774C40.908 171.802 41.164 172.766 41.5016 173.698C41.6686 174.176 41.8355 174.651 41.9988 175.119C42.1806 175.582 42.3624 176.039 42.5404 176.488C42.878 177.393 43.2861 178.235 43.6423 179.047C43.8167 179.456 44.017 179.838 44.2062 180.212C44.3954 180.587 44.5772 180.947 44.7516 181.292C45.104 181.982 45.4862 182.587 45.7941 183.14C46.039 183.589 46.295 183.971 46.5138 184.301H48.1759C48.072 184.149 47.9496 183.971 47.8123 183.767C47.5675 183.403 47.2558 182.973 46.9553 182.442C46.6511 181.912 46.2727 181.337 45.9202 180.669C45.7459 180.335 45.5641 179.986 45.3749 179.626C45.1857 179.266 44.9853 178.899 44.811 178.502C44.4548 177.716 44.043 176.899 43.7017 176.016C43.5236 175.579 43.3381 175.133 43.1526 174.684C42.9856 174.228 42.815 173.764 42.6443 173.297C42.2882 172.369 42.0025 171.397 41.6834 170.44C41.5424 169.954 41.3978 169.468 41.2568 168.986C41.1121 168.504 40.9785 168.021 40.8561 167.535C40.7337 167.053 40.6075 166.574 40.4851 166.103C40.3775 165.628 40.2662 165.157 40.1623 164.693C39.9471 163.769 39.7765 162.864 39.6058 162.011C39.4537 161.154 39.2979 160.345 39.1903 159.592C39.0679 158.843 38.9751 158.152 38.8898 157.54C38.8045 156.928 38.7525 156.398 38.6969 155.956C38.6078 155.069 38.5596 154.561 38.5596 154.561C38.5336 154.305 38.311 154.12 38.0588 154.142C37.8028 154.164 37.6136 154.39 37.6358 154.646C37.6358 154.646 37.6803 155.155 37.7545 156.045C37.8028 156.49 37.8473 157.039 37.9289 157.659L37.9215 157.663Z" fill="white"/>
<path d="M9.22825 178.198C9.33213 178.402 9.50279 178.654 9.68829 178.944C9.86637 179.24 10.1001 179.541 10.3524 179.871C10.4748 180.042 10.6158 180.205 10.7679 180.372C10.92 180.539 11.0684 180.717 11.2317 180.891C11.573 181.225 11.9291 181.585 12.3372 181.908C12.5339 182.079 12.7416 182.246 12.9642 182.398C13.1831 182.55 13.3983 182.72 13.632 182.865C13.8658 183.01 14.0995 183.155 14.3332 183.299C14.5744 183.436 14.8229 183.559 15.0641 183.692C15.3052 183.83 15.5612 183.937 15.8135 184.049C16.0064 184.134 16.1993 184.223 16.3923 184.301H21.3043C21.2153 184.29 21.1262 184.279 21.0335 184.264C20.6513 184.193 20.2284 184.13 19.7906 184.034C19.3566 183.93 18.8891 183.845 18.4253 183.7C18.1916 183.633 17.9505 183.57 17.713 183.492C17.4756 183.411 17.2381 183.329 16.997 183.244C16.7521 183.166 16.5221 183.058 16.2847 182.962C16.0472 182.861 15.8061 182.769 15.5798 182.646C15.3498 182.531 15.116 182.424 14.8897 182.301C14.6671 182.171 14.4482 182.045 14.2293 181.919C14.0104 181.793 13.8101 181.641 13.6023 181.504C13.3946 181.37 13.2017 181.222 13.0125 181.069C12.6266 180.784 12.2927 180.457 11.9662 180.16C11.8067 180.008 11.6694 179.845 11.5247 179.693C11.3801 179.541 11.2465 179.396 11.1278 179.24C10.8866 178.94 10.6603 178.665 10.4934 178.406C10.319 178.15 10.1632 177.938 10.0482 177.727C9.81072 177.322 9.67716 177.092 9.67716 177.092C9.55102 176.877 9.27277 176.799 9.05017 176.918C8.82386 177.04 8.74224 177.326 8.86467 177.549C8.86467 177.549 8.99452 177.782 9.21712 178.194L9.22825 178.198Z" fill="white"/>
<path d="M22.7069 184.301C22.6809 184.256 22.655 184.212 22.6179 184.178C21.7646 183.407 18.9821 180.621 18.893 177.115C18.8856 176.862 18.6816 176.662 18.4293 176.662C18.4256 176.662 18.4219 176.662 18.4181 176.662C18.1622 176.669 17.9581 176.881 17.9655 177.137C18.0471 180.394 20.1841 183.04 21.4121 184.301H22.7106H22.7069Z" fill="white"/>
<path d="M322.853 184.334C323.272 181.344 332.273 171.405 336.91 172.381C339.3 172.885 339.518 175.809 339.518 175.809C339.518 175.809 345.963 162.133 360.257 164.396C374.552 166.66 382.25 179.385 382.25 179.385C382.25 179.385 389.273 175.46 393.054 177.508C397.098 179.7 395.243 184.331 395.243 184.331H322.857L322.853 184.334Z" fill="#5EA05B"/>
<path d="M365.455 181.225C365.34 181.225 365.221 181.181 365.132 181.095C364.947 180.917 364.943 180.624 365.121 180.439C366.357 179.159 368 178.836 369.454 178.554C370.59 178.335 371.569 178.142 372.103 177.556C372.278 177.367 372.571 177.352 372.76 177.523C372.949 177.697 372.964 177.99 372.793 178.179C372.051 178.996 370.879 179.226 369.633 179.467C368.252 179.734 366.824 180.012 365.793 181.081C365.7 181.177 365.581 181.222 365.459 181.222L365.455 181.225Z" fill="white"/>
<path d="M359.886 184.271C359.886 184.294 359.886 184.312 359.886 184.334H360.814C361.504 179.582 360.046 175.95 358.695 173.735C358.562 173.516 358.276 173.445 358.057 173.579C357.838 173.712 357.768 173.998 357.902 174.217C359.178 176.313 360.558 179.756 359.883 184.268L359.886 184.271Z" fill="white"/>
<path d="M363.474 184.334C364.698 182.995 365.6 181.448 366.472 179.942C367.978 177.337 369.28 175.089 371.885 174.492C372.137 174.432 372.293 174.184 372.233 173.935C372.174 173.686 371.925 173.527 371.677 173.586C368.679 174.273 367.217 176.799 365.667 179.478C364.676 181.188 363.652 182.95 362.172 184.334H363.478H363.474Z" fill="white"/>
<path d="M180.367 184.3C175.948 177.092 177.384 170.347 182.381 166.626C187.382 162.905 206.352 155.11 209.453 150.457C212.555 145.805 219.129 126.019 241.767 123.678C271.707 120.58 285.801 141.045 285.801 141.045L288.747 184.304H180.371L180.367 184.3Z" fill="#7EC172"/>
<path d="M288.29 177.638L296.341 146.974C296.341 146.974 276.418 122.959 248.274 123.359C241.915 125.229 233.36 133.132 235.408 144.143C237.89 157.477 261.768 166.315 263.318 180.116C263.318 180.116 253.706 171.434 241.767 173.293C229.246 175.245 191.096 196.949 180.229 168.685C177.076 172.57 176.675 178.272 180.37 184.301H284.413L288.294 177.641L288.29 177.638Z" fill="#5EA05B"/>
<path d="M241.292 148.992C240.91 148.992 240.532 148.977 240.157 148.944C239.901 148.922 239.712 148.699 239.734 148.443C239.756 148.187 239.979 147.998 240.235 148.02C247.236 148.61 256.273 143.008 257.394 141.81C257.568 141.62 257.865 141.613 258.05 141.787C258.24 141.962 258.247 142.259 258.073 142.444C256.815 143.791 248.404 148.992 241.292 148.992Z" fill="white"/>
<path d="M249.503 168.748C248.379 168.748 247.458 168.678 246.887 168.57C246.635 168.522 246.468 168.281 246.516 168.029C246.564 167.776 246.802 167.609 247.058 167.658C249.243 168.069 256.726 167.925 260.64 165.161C260.852 165.012 261.141 165.061 261.289 165.272C261.438 165.483 261.386 165.773 261.178 165.921C258.073 168.114 252.875 168.752 249.503 168.752V168.748Z" fill="white"/>
<path d="M222.78 154.78C223.054 156.65 223.429 158.828 223.974 161.128C224.241 162.282 224.557 163.465 224.913 164.656C225.262 165.851 225.673 167.049 226.107 168.236C226.556 169.42 227.035 170.592 227.565 171.728C228.092 172.859 228.652 173.957 229.246 174.989C229.394 175.248 229.543 175.504 229.691 175.757C229.847 176.005 229.999 176.25 230.151 176.495C230.448 176.985 230.771 177.448 231.079 177.901C231.702 178.803 232.337 179.623 232.949 180.361C233.565 181.092 234.151 181.752 234.7 182.301C235.234 182.869 235.746 183.318 236.15 183.704C236.414 183.945 236.648 184.138 236.84 184.301H238.632C238.629 184.104 238.547 183.911 238.384 183.778L238.358 183.756C238.358 183.756 238.239 183.659 238.02 183.477C237.801 183.292 237.467 183.036 237.07 182.68C236.677 182.316 236.184 181.893 235.664 181.355C235.13 180.836 234.563 180.209 233.961 179.511C233.368 178.81 232.745 178.027 232.136 177.163C231.832 176.729 231.517 176.287 231.224 175.816C231.075 175.582 230.923 175.345 230.771 175.107C230.626 174.863 230.482 174.618 230.333 174.369C229.743 173.375 229.19 172.314 228.664 171.219C228.137 170.121 227.654 168.982 227.202 167.828C226.764 166.671 226.345 165.502 225.989 164.333C225.625 163.168 225.302 162.007 225.028 160.879C224.464 158.62 224.067 156.479 223.778 154.635C223.492 152.791 223.318 151.244 223.206 150.157C223.106 149.07 223.047 148.451 223.047 148.451C223.024 148.191 222.798 148.005 222.546 148.028C222.29 148.05 222.101 148.273 222.119 148.529C222.119 148.529 222.171 149.156 222.26 150.25C222.36 151.348 222.52 152.914 222.787 154.784L222.78 154.78Z" fill="white"/>
<path d="M246.858 138.215C246.676 138.033 246.379 138.036 246.201 138.218C246.201 138.218 246.067 138.356 245.815 138.608C245.689 138.749 245.537 138.923 245.355 139.131C245.188 139.339 244.991 139.572 244.784 139.843C244.372 140.385 243.878 141.045 243.363 141.836C242.84 142.618 242.279 143.52 241.701 144.522C241.118 145.523 240.536 146.629 239.942 147.816C239.367 149.011 238.77 150.272 238.232 151.615C237.946 152.279 237.701 152.973 237.43 153.667C237.189 154.372 236.918 155.077 236.7 155.804C236.221 157.247 235.828 158.742 235.464 160.245C235.134 161.755 234.83 163.272 234.648 164.786C234.433 166.296 234.344 167.799 234.288 169.253C234.277 169.98 234.281 170.696 234.288 171.397C234.329 172.099 234.347 172.785 234.407 173.449C234.481 174.113 234.529 174.762 234.626 175.386C234.73 176.005 234.811 176.61 234.922 177.185C235.049 177.756 235.167 178.302 235.282 178.825C235.416 179.341 235.561 179.827 235.687 180.283C235.805 180.743 235.954 181.162 236.091 181.552C236.228 181.941 236.351 182.298 236.462 182.62C236.714 183.255 236.933 183.744 237.071 184.086C237.108 184.171 237.137 184.245 237.163 184.308H238.625C238.625 184.223 238.606 184.138 238.569 184.056L238.551 184.015C238.551 184.015 238.477 183.845 238.339 183.522C238.202 183.199 237.991 182.732 237.742 182.127C237.631 181.819 237.508 181.478 237.375 181.107C237.241 180.736 237.093 180.335 236.974 179.893C236.848 179.456 236.707 178.992 236.573 178.498C236.458 178.001 236.34 177.474 236.214 176.929C236.099 176.38 236.017 175.797 235.909 175.204C235.809 174.607 235.761 173.98 235.683 173.341C235.616 172.7 235.598 172.035 235.549 171.36C235.535 170.681 235.523 169.991 235.527 169.286C235.568 167.876 235.642 166.418 235.835 164.946C235.998 163.469 236.28 161.985 236.588 160.508C236.93 159.035 237.301 157.57 237.757 156.153C237.968 155.437 238.224 154.747 238.454 154.053C238.714 153.37 238.948 152.688 239.222 152.031C239.738 150.706 240.313 149.46 240.866 148.28C241.437 147.111 242.001 146.017 242.561 145.03C243.118 144.039 243.659 143.149 244.164 142.381C244.661 141.606 245.132 140.96 245.526 140.433C245.73 140.177 245.908 139.947 246.067 139.751C246.227 139.565 246.364 139.405 246.475 139.279C246.724 139.023 246.858 138.886 246.858 138.886C247.036 138.701 247.032 138.407 246.85 138.229L246.858 138.215Z" fill="white"/>
<path d="M260.596 153.426C260.373 153.3 260.087 153.378 259.961 153.604C259.961 153.604 259.887 153.737 259.75 153.986C259.613 154.249 259.401 154.55 259.112 154.965C258.808 155.377 258.418 155.871 257.939 156.416C257.461 156.961 256.904 157.566 256.274 158.208C253.769 160.794 250.163 164.025 246.761 167.502C245.908 168.366 245.077 169.26 244.272 170.147C243.478 171.049 242.702 171.943 241.998 172.852C241.281 173.75 240.643 174.67 240.057 175.553C239.497 176.458 238.985 177.326 238.592 178.183C238.492 178.395 238.395 178.606 238.302 178.81C238.221 179.022 238.139 179.226 238.061 179.43C237.987 179.634 237.902 179.827 237.842 180.02C237.783 180.216 237.727 180.409 237.672 180.595C237.62 180.78 237.557 180.958 237.52 181.136C237.482 181.314 237.449 181.489 237.416 181.656C237.382 181.823 237.353 181.982 237.323 182.134C237.308 182.29 237.293 182.438 237.278 182.579C237.256 182.861 237.219 183.114 237.215 183.333C237.215 183.555 237.223 183.744 237.223 183.897C237.226 184.104 237.23 184.238 237.23 184.308H238.625V184.253C238.625 184.253 238.621 184.115 238.614 183.852C238.61 183.722 238.607 183.563 238.599 183.373C238.599 183.184 238.629 182.965 238.647 182.72C238.659 182.598 238.67 182.468 238.681 182.335C238.707 182.201 238.733 182.06 238.759 181.912C238.785 181.763 238.814 181.611 238.844 181.452C238.874 181.292 238.929 181.133 238.974 180.962C239.022 180.795 239.07 180.621 239.119 180.442C239.171 180.264 239.248 180.086 239.311 179.901C239.382 179.715 239.452 179.526 239.523 179.333C239.608 179.144 239.697 178.947 239.786 178.747C240.139 177.949 240.614 177.118 241.137 176.25C241.69 175.397 242.291 174.506 242.977 173.623C243.648 172.733 244.398 171.846 245.166 170.956C245.949 170.073 246.754 169.182 247.589 168.318C250.913 164.838 254.478 161.566 256.986 158.913C257.617 158.253 258.181 157.626 258.667 157.062C259.153 156.494 259.553 155.971 259.872 155.529C260.184 155.077 260.44 154.687 260.559 154.446C260.696 154.198 260.766 154.064 260.766 154.064C260.889 153.841 260.807 153.559 260.588 153.437L260.596 153.426Z" fill="white"/>
<path d="M163.765 94.4878C168.283 79.5919 187.034 70.454 195.567 86.9564C200.586 96.6656 194.561 106.371 201.926 111.562C209.29 116.752 224.36 121.141 221.845 139.346C218.999 159.933 196.669 170.173 179.165 162.278C153.555 150.729 160.478 105.332 163.765 94.4878Z" fill="#26D49E"/>
<path d="M182.01 143.197C166.276 144.87 162.262 127.633 160.4 119.26C160.081 135.888 163.661 155.285 179.165 162.278C193.515 168.752 211.108 163.031 218.55 149.419C216.762 132.375 197.745 141.524 182.01 143.197Z" fill="#09A376"/>
<path d="M271.021 184.301C254.73 166.229 273.484 124.465 307 125.953C327.097 126.843 318.668 142.73 321.102 145.646C323.532 148.562 331.368 146.098 335.445 153.181C340.064 161.202 336.417 178.951 324.749 184.301H271.021Z" fill="#7EC172"/>
<path d="M334.543 151.842C325.317 160.204 320.13 150.829 305.542 155.106C289.289 159.87 273.937 183.897 265.196 164.285C264.532 171.861 266.305 179.073 271.021 184.301H324.749C336.417 178.951 340.064 161.206 335.445 153.181C335.163 152.688 334.859 152.246 334.543 151.842Z" fill="#3E7543"/>
<path d="M294.665 147.089C294.601 147.089 294.535 147.074 294.472 147.048C290.84 145.386 287.668 140.83 286.098 138.259C285.965 138.04 286.035 137.755 286.254 137.621C286.473 137.487 286.759 137.558 286.892 137.777C288.109 139.773 291.326 144.585 294.857 146.202C295.091 146.31 295.195 146.584 295.088 146.818C295.01 146.989 294.843 147.089 294.665 147.089Z" fill="white"/>
<path d="M294.865 163.376C294.817 163.376 294.765 163.369 294.716 163.35C287.578 160.957 280.533 153.307 279.272 151.203C279.138 150.985 279.212 150.699 279.431 150.565C279.65 150.432 279.936 150.506 280.069 150.725C281.249 152.688 288.209 160.189 295.01 162.467C295.254 162.549 295.384 162.812 295.303 163.057C295.236 163.25 295.058 163.376 294.861 163.376H294.865Z" fill="white"/>
<path d="M275.717 164.222C275.461 164.222 275.254 164.014 275.254 163.758C275.254 163.502 275.461 163.295 275.717 163.295C277.157 163.295 284.258 160.872 286.091 157.752C286.22 157.529 286.506 157.455 286.729 157.585C286.951 157.715 287.025 158 286.896 158.223C284.87 161.666 277.509 164.226 275.717 164.226V164.222Z" fill="white"/>
<path d="M305.053 155.722C304.834 155.722 304.637 155.567 304.596 155.344C304.548 155.092 304.715 154.847 304.967 154.799C310.076 153.826 315.363 147.575 316.368 146.328C316.531 146.128 316.821 146.098 317.021 146.258C317.221 146.421 317.251 146.714 317.091 146.911C315.626 148.721 310.432 154.702 305.142 155.707C305.112 155.715 305.082 155.715 305.053 155.715V155.722Z" fill="white"/>
<path d="M294.431 164.738C294.576 166.3 294.765 167.836 294.98 169.316C295.21 170.796 295.451 172.225 295.752 173.571C295.826 173.909 295.896 174.239 295.97 174.566C296.052 174.892 296.134 175.211 296.212 175.527C296.36 176.157 296.546 176.758 296.712 177.341C297.058 178.498 297.428 179.545 297.799 180.461C297.966 180.925 298.178 181.34 298.352 181.734C298.441 181.93 298.53 182.116 298.612 182.294C298.708 182.472 298.797 182.643 298.883 182.802C299.057 183.121 299.206 183.418 299.347 183.652C299.473 183.852 299.58 184.023 299.673 184.167H301.279C301.261 184.093 301.235 184.023 301.19 183.956C301.19 183.956 301.083 183.789 300.883 183.477C300.782 183.321 300.656 183.129 300.512 182.902C300.371 182.676 300.244 182.42 300.085 182.131C300.007 181.986 299.922 181.834 299.836 181.674C299.758 181.507 299.673 181.329 299.588 181.147C299.421 180.776 299.217 180.387 299.05 179.945C298.686 179.073 298.323 178.072 297.978 176.951C297.811 176.391 297.625 175.809 297.477 175.196C297.395 174.892 297.317 174.581 297.232 174.265C297.158 173.946 297.087 173.623 297.009 173.293C296.705 171.984 296.453 170.581 296.215 169.127C295.989 167.669 295.789 166.159 295.629 164.615C295.466 163.076 295.343 161.503 295.247 159.93C294.872 153.634 295.036 147.301 295.47 142.596C295.574 141.42 295.703 140.344 295.829 139.394C295.967 138.448 296.1 137.625 296.241 136.961C296.375 136.293 296.512 135.781 296.612 135.439C296.72 135.102 296.776 134.924 296.776 134.924L296.787 134.887C296.865 134.645 296.731 134.386 296.49 134.304C296.245 134.223 295.982 134.356 295.904 134.601C295.904 134.601 295.837 134.798 295.718 135.169C295.607 135.54 295.458 136.078 295.314 136.768C295.162 137.458 295.017 138.296 294.869 139.261C294.728 140.225 294.59 141.312 294.472 142.503C293.989 147.26 293.767 153.634 294.086 159.996C294.167 161.588 294.275 163.176 294.427 164.741L294.431 164.738Z" fill="white"/>
<path d="M310.161 138.834C309.905 138.823 309.686 139.02 309.675 139.276C309.675 139.276 309.675 139.324 309.668 139.413C309.668 139.509 309.649 139.613 309.634 139.754C309.586 140.07 309.486 140.544 309.323 141.149C308.996 142.362 308.421 144.091 307.698 146.158C306.251 150.291 304.207 155.782 302.433 161.38C300.66 166.971 299.168 172.692 298.831 177.178C298.745 178.294 298.727 179.333 298.786 180.261C298.846 181.188 298.975 182.004 299.154 182.672C299.328 183.325 299.547 183.826 299.714 184.167H301.283C301.268 184.108 301.246 184.049 301.216 183.993L301.19 183.952C301.19 183.952 301.109 183.815 300.96 183.555C300.827 183.284 300.638 182.876 300.478 182.309C300.322 181.741 300.192 181.018 300.133 180.164C300.07 179.315 300.077 178.335 300.148 177.267C300.289 175.126 300.704 172.622 301.309 169.969C301.91 167.313 302.693 164.508 303.542 161.718C305.249 156.138 307.234 150.64 308.644 146.477C309.349 144.396 309.913 142.648 310.239 141.383C310.402 140.752 310.51 140.24 310.558 139.877C310.58 139.68 310.599 139.521 310.599 139.439C310.599 139.35 310.603 139.305 310.603 139.305C310.614 139.049 310.417 138.834 310.161 138.823V138.834Z" fill="white"/>
<path d="M310.269 83.7843C314.454 69.9866 331.824 61.5239 339.726 76.8057C344.379 85.7988 338.795 94.792 345.618 99.5966C352.44 104.405 366.397 108.471 364.068 125.333C361.433 144.403 340.746 153.89 324.53 146.573C300.808 135.874 307.219 93.8237 310.265 83.7769L310.269 83.7843Z" fill="#26D49E"/>
<path d="M327.172 128.902C312.599 130.453 308.878 114.485 307.152 106.727C306.859 122.128 310.172 140.099 324.537 146.577C337.83 152.572 354.128 147.275 361.022 134.664C359.363 118.874 341.748 127.352 327.172 128.902Z" fill="#09A376"/>
<path d="M327.943 112.341C327.747 112.341 327.565 112.214 327.502 112.018C327.424 111.773 327.557 111.51 327.802 111.432C330.889 110.434 333.26 104.587 333.616 101.863C333.649 101.607 333.887 101.429 334.135 101.463C334.391 101.496 334.569 101.73 334.536 101.982C334.146 104.987 331.587 111.183 328.088 112.315C328.04 112.329 327.992 112.337 327.943 112.337V112.341Z" fill="white"/>
<path d="M330.006 135.495C329.776 135.495 329.576 135.324 329.546 135.091C329.223 132.631 326.886 130.561 324.181 128.168C320.486 124.895 315.886 120.822 314.658 114.003C314.613 113.75 314.78 113.509 315.033 113.461C315.285 113.413 315.526 113.583 315.574 113.836C316.743 120.336 321.024 124.124 324.797 127.47C327.643 129.989 330.099 132.163 330.466 134.968C330.5 135.224 330.321 135.458 330.065 135.491C330.043 135.491 330.025 135.495 330.006 135.495Z" fill="white"/>
<path d="M343.681 124.057C343.64 124.057 343.599 124.053 343.562 124.042C339.578 122.977 340.257 110.563 340.435 109.447C340.476 109.194 340.717 109.02 340.969 109.061C341.221 109.102 341.396 109.339 341.355 109.595C340.947 112.155 341.039 122.406 343.803 123.144C344.052 123.211 344.2 123.467 344.134 123.712C344.078 123.92 343.889 124.057 343.685 124.057H343.681Z" fill="white"/>
<path d="M343.084 135.495C342.846 135.495 342.642 135.313 342.62 135.068C342.598 134.812 342.787 134.586 343.043 134.564C346.671 134.256 349.958 127.133 349.958 124.473C349.958 124.217 350.166 124.009 350.422 124.009C350.678 124.009 350.886 124.217 350.886 124.473C350.886 127.392 347.443 135.12 343.121 135.491C343.106 135.491 343.095 135.491 343.08 135.491L343.084 135.495Z" fill="white"/>
<path d="M326.073 184.268C326.118 184.182 326.166 184.089 326.218 183.986C326.37 183.692 326.556 183.329 326.775 182.899C326.96 182.461 327.172 181.956 327.413 181.392C327.669 180.832 327.865 180.19 328.11 179.496C328.225 179.148 328.362 178.791 328.474 178.413C328.581 178.035 328.693 177.641 328.808 177.237C328.919 176.833 329.049 176.413 329.153 175.979C329.253 175.545 329.357 175.1 329.461 174.64C329.687 173.724 329.858 172.755 330.043 171.742C330.091 171.49 330.136 171.234 330.184 170.974C330.221 170.715 330.262 170.455 330.303 170.192C330.381 169.665 330.459 169.127 330.54 168.578C330.692 167.483 330.807 166.348 330.941 165.183C331.152 162.849 331.342 160.39 331.427 157.841C331.542 155.296 331.553 152.662 331.549 149.994C331.516 147.323 331.46 144.611 331.33 141.906C331.219 139.198 331.041 136.497 330.856 133.837C330.652 131.18 330.433 128.565 330.18 126.042C329.687 120.992 329.116 116.292 328.574 112.27C328.032 108.248 327.524 104.906 327.149 102.572C326.763 100.238 326.545 98.9028 326.545 98.9028C326.504 98.6542 326.27 98.4798 326.018 98.5169C325.765 98.554 325.587 98.7915 325.624 99.0437C325.624 99.0437 325.821 100.383 326.166 102.717C326.5 105.054 326.956 108.393 327.431 112.411C327.91 116.429 328.403 121.122 328.811 126.161C329.023 128.68 329.197 131.284 329.36 133.933C329.501 136.582 329.639 139.272 329.705 141.962C329.791 144.652 329.806 147.345 329.795 149.99C329.757 152.636 329.702 155.24 329.55 157.752C329.424 160.263 329.197 162.682 328.952 164.968C328.804 166.107 328.67 167.216 328.507 168.281C328.418 168.811 328.333 169.335 328.251 169.85C328.21 170.106 328.166 170.362 328.125 170.611C328.073 170.859 328.025 171.108 327.977 171.353C327.78 172.329 327.602 173.271 327.368 174.143C327.261 174.581 327.153 175.011 327.053 175.426C326.945 175.842 326.815 176.235 326.704 176.621C326.589 177.007 326.478 177.378 326.37 177.738C326.259 178.094 326.125 178.428 326.01 178.754C325.769 179.4 325.576 180.008 325.328 180.52C325.098 181.04 324.894 181.507 324.716 181.912C324.508 182.297 324.333 182.624 324.192 182.891C323.907 183.422 323.755 183.707 323.755 183.707L323.703 183.804C323.703 183.804 323.703 183.811 323.699 183.811C323.625 183.956 323.584 184.108 323.573 184.26H326.085L326.073 184.268Z" fill="white"/>
<path d="M346.475 107.202C346.222 107.158 345.981 107.328 345.937 107.581C345.937 107.581 345.922 107.655 345.896 107.803C345.87 107.948 345.833 108.17 345.792 108.467C345.707 109.061 345.607 109.892 345.48 110.968C345.228 113.105 344.868 116.162 344.438 119.828C343.544 127.151 342.223 136.901 340.42 146.555C340.194 147.761 339.967 148.966 339.723 150.165C339.489 151.363 339.24 152.554 338.988 153.737C338.491 156.101 337.949 158.412 337.404 160.642C337.118 161.755 336.836 162.846 336.562 163.914C336.265 164.975 335.972 166.014 335.686 167.027C335.378 168.029 335.096 169.012 334.792 169.95C334.48 170.885 334.198 171.794 333.89 172.655C333.579 173.512 333.293 174.339 332.996 175.115C332.692 175.887 332.403 176.617 332.132 177.307C331.835 177.983 331.561 178.613 331.301 179.2C331.056 179.79 330.774 180.298 330.548 180.776C330.099 181.734 329.683 182.438 329.412 182.932C329.142 183.422 328.993 183.681 328.993 183.681L328.956 183.744C328.956 183.744 328.952 183.752 328.949 183.756C328.86 183.919 328.823 184.093 328.815 184.268H331.308C331.345 184.201 331.382 184.127 331.427 184.049C331.705 183.526 332.132 182.765 332.581 181.763C332.807 181.262 333.093 180.721 333.338 180.109C333.594 179.5 333.868 178.84 334.161 178.135C334.428 177.422 334.714 176.666 335.011 175.868C335.3 175.067 335.575 174.217 335.879 173.334C336.176 172.451 336.447 171.52 336.747 170.559C337.037 169.598 337.307 168.596 337.6 167.572C337.871 166.541 338.146 165.484 338.431 164.404C338.691 163.317 338.955 162.208 339.225 161.08C339.737 158.817 340.242 156.475 340.702 154.09C340.936 152.895 341.166 151.693 341.381 150.484C341.607 149.274 341.811 148.057 342.015 146.84C343.655 137.105 344.805 127.311 345.57 119.961C345.922 116.433 346.234 113.309 346.456 111.079C346.564 110.014 346.649 109.161 346.72 108.612C346.749 108.337 346.779 108.122 346.805 107.97C346.827 107.822 346.838 107.748 346.838 107.748V107.74C346.879 107.492 346.712 107.254 346.46 107.21L346.475 107.202Z" fill="white"/>
<path d="M337.715 157.229C339.203 153.511 343.937 150.944 347.859 154.669C349.643 156.364 347.718 159.67 349.113 160.831C350.507 161.992 352.949 162.4 353.568 165.194C354.967 171.531 346.964 173.954 341.904 170.117C336.847 166.281 336.788 159.551 337.719 157.229H337.715Z" fill="#09A376"/>
<path d="M335.753 184.268C335.938 184.075 336.12 183.882 336.313 183.681C336.454 183.537 336.595 183.385 336.736 183.236C336.877 183.084 337.007 182.913 337.144 182.75C337.689 182.086 338.283 181.403 338.81 180.632C339.081 180.25 339.37 179.875 339.633 179.47C339.889 179.062 340.149 178.654 340.413 178.239C340.683 177.831 340.913 177.393 341.155 176.959C341.388 176.521 341.644 176.094 341.859 175.645C342.286 174.748 342.731 173.857 343.08 172.941C343.473 172.043 343.755 171.119 344.063 170.24C344.197 169.795 344.315 169.349 344.434 168.915C344.494 168.7 344.553 168.485 344.609 168.273C344.653 168.058 344.698 167.847 344.742 167.635C344.827 167.216 344.924 166.808 344.994 166.411C345.05 166.01 345.106 165.624 345.161 165.253C345.224 164.882 345.25 164.523 345.269 164.181C345.291 163.84 345.313 163.513 345.336 163.209C345.336 162.586 345.321 162.037 345.31 161.592C345.21 160.742 345.15 160.256 345.15 160.256C345.121 160.004 344.894 159.822 344.642 159.848C344.386 159.874 344.2 160.104 344.226 160.36C344.226 160.36 344.278 160.85 344.364 161.703C344.364 162.111 344.364 162.608 344.364 163.176C344.338 163.465 344.315 163.773 344.286 164.1C344.263 164.426 344.234 164.767 344.167 165.124C344.111 165.48 344.052 165.847 343.993 166.233C343.918 166.615 343.822 167.005 343.733 167.409C343.688 167.609 343.64 167.813 343.596 168.021C343.536 168.225 343.477 168.433 343.418 168.641C343.291 169.056 343.176 169.483 343.039 169.913C342.728 170.763 342.442 171.65 342.049 172.518C341.7 173.401 341.255 174.258 340.828 175.122C340.617 175.553 340.357 175.964 340.127 176.384C339.889 176.799 339.659 177.222 339.392 177.612C339.133 178.009 338.877 178.402 338.624 178.791C338.365 179.177 338.079 179.534 337.816 179.901C337.296 180.639 336.714 181.288 336.179 181.919C336.046 182.075 335.92 182.234 335.779 182.379C335.638 182.524 335.5 182.661 335.363 182.802C335.092 183.08 334.829 183.347 334.577 183.603C334.339 183.859 334.087 184.075 333.846 184.282H335.753V184.268Z" fill="white"/>
<path d="M404.536 184.765H248.293C248.037 184.765 247.83 184.557 247.83 184.301C247.83 184.045 248.037 183.837 248.293 183.837H404.536C404.792 183.837 405 184.045 405 184.301C405 184.557 404.792 184.765 404.536 184.765Z" fill="#D5AE0D"/>
<path d="M387.867 189.105H362.406C362.15 189.105 361.942 188.898 361.942 188.642C361.942 188.386 362.15 188.178 362.406 188.178H387.867C388.123 188.178 388.331 188.386 388.331 188.642C388.331 188.898 388.123 189.105 387.867 189.105Z" fill="#D5AE0D"/>
<path d="M47.4562 184.765H-13.5362C-13.7922 184.765 -14 184.557 -14 184.301C-14 184.045 -13.7922 183.837 -13.5362 183.837H47.4524C47.7084 183.837 47.9162 184.045 47.9162 184.301C47.9162 184.557 47.7084 184.765 47.4524 184.765H47.4562Z" fill="#D5AE0D"/>
<path d="M295.273 181.381C309.256 177.478 319.807 191.45 326.192 191.55C332.577 191.651 340.672 186.56 344.382 186.152C349.539 185.588 356.507 188.69 360.276 194.852H287.026C286.362 190.775 287.011 183.685 295.269 181.381H295.273Z" fill="#09A376"/>
<path d="M26.2128 178.988C39.0791 174.15 65.6835 189.647 70.4991 189.725C75.3147 189.799 86.7118 184.828 89.5165 184.616C108.23 183.218 115.078 190.222 119.197 194.852H20.1915C20.1915 194.852 14.5671 183.37 26.2128 178.988Z" fill="#09A376"/>
<path d="M115.104 194.852C111.58 183.229 142.722 190.048 148.813 189.777C154.901 189.506 166.577 174.098 187.178 179.559C198.364 182.524 215.671 191.024 221.336 192.077C230.437 193.769 240.432 186.438 252.541 194.852H115.101H115.104Z" fill="#26D49E"/>
<path d="M180.211 217.291C105.807 203.311 74.4242 242.875 14.5708 194.856H379.138C346.182 236.364 249.529 230.317 180.211 217.291Z" fill="url(#paint0_linear_201_5174)"/>
<path d="M392.048 195.32H8.81653C8.56054 195.32 8.35278 195.112 8.35278 194.856C8.35278 194.6 8.56054 194.392 8.81653 194.392H392.048C392.304 194.392 392.512 194.6 392.512 194.856C392.512 195.112 392.304 195.32 392.048 195.32Z" fill="#D5AE0D"/>
<g clip-path="url(#clip1_201_5174)">
<path d="M218.725 168.305H45.0061V178.285H218.725V168.305Z" fill="#172126"/>
<path d="M260.925 157.452H220.83V176.132H260.925V157.452Z" fill="#1B1B1B"/>
<path d="M216.927 118.465C215.682 118.465 214.673 119.456 214.673 120.681V168.158H220.83V118.465H216.927Z" fill="#202A30"/>
<path d="M255.234 116.768C254.795 115.548 253.313 115.518 253.194 115.518L222.856 114.16C220.61 114.047 218.727 115.808 218.727 118.02V159.548C218.727 160.175 219.364 160.604 219.96 160.384C222.501 159.448 226.067 158.814 227.831 158.814C232.437 158.814 236.629 160.692 239.773 163.683H261.578V139.144L255.234 116.768Z" fill="#DCE2E1"/>
<g style="mix-blend-mode:multiply" opacity="0.21">
<path d="M231.324 144.967V143.753C231.324 143.567 231.447 143.415 231.599 143.415L235.267 143.41C235.419 143.41 235.541 143.56 235.541 143.746V144.96C235.541 145.146 235.419 145.298 235.267 145.298L231.599 145.303C231.447 145.303 231.324 145.153 231.324 144.967Z" fill="#414042"/>
</g>
<path d="M231.599 144.542L235.267 144.537C235.419 144.537 235.541 144.385 235.541 144.199V143.746C235.541 143.56 235.419 143.408 235.267 143.409L231.599 143.415C231.447 143.415 231.324 143.567 231.324 143.753V144.205C231.324 144.392 231.447 144.544 231.599 144.542Z" fill="#182127"/>
<path d="M256.303 164.781H262.424C262.742 164.781 263 165.035 263 165.348V176.357C263 176.669 262.742 176.923 262.424 176.923H256.303V164.781Z" fill="#202A30"/>
<path d="M255.506 164.781H227.831V177.659H255.506V164.781Z" fill="#202A30"/>
<path d="M218.727 164.781H40.1055V169.04H218.727V164.781Z" fill="#202A30"/>
<path d="M253.715 166.6H226.68V170.852H253.715V166.6Z" fill="#1B1B1B"/>
<path d="M253.715 171.88H226.68V176.132H253.715V171.88Z" fill="#1B1B1B"/>
<path d="M227.831 161.093C237.292 161.093 244.962 168.699 244.962 178.038H210.701C210.701 168.699 218.37 161.093 227.831 161.093Z" fill="#1B1B1B"/>
<path d="M244.628 178.041C243.765 169.283 236.573 162.45 227.831 162.45C219.088 162.45 211.896 169.285 211.034 178.041H210.178C210.178 178.029 210.178 178.053 210.178 178.041C210.178 168.451 218.082 160.038 227.832 160.038C237.582 160.038 245.488 168.452 245.488 178.041C245.488 178.029 245.488 178.053 245.488 178.041H244.632H244.628Z" fill="#313C48"/>
<path d="M241.668 178.285C241.668 185.861 235.425 192 227.723 192C220.02 192 213.778 185.859 213.778 178.285C213.778 170.711 220.022 164.569 227.723 164.569C235.424 164.569 241.668 170.711 241.668 178.285Z" fill="#29212D"/>
<path d="M227.723 164.569C220.022 164.569 213.778 170.711 213.778 178.285C213.778 185.859 220.022 192 227.723 192C235.424 192 241.668 185.859 241.668 178.285C241.668 170.711 235.425 164.569 227.723 164.569ZM236.858 187.269C235.672 188.435 234.29 189.352 232.752 189.992C231.159 190.654 229.468 190.989 227.723 190.989C225.977 190.989 224.286 190.654 222.695 189.992C221.157 189.352 219.776 188.436 218.589 187.269C217.401 186.101 216.471 184.743 215.82 183.23C215.147 181.665 214.804 180.001 214.804 178.285C214.804 176.57 215.146 174.906 215.82 173.341C216.471 171.828 217.401 170.468 218.589 169.302C219.775 168.134 221.157 167.219 222.695 166.579C224.286 165.917 225.979 165.58 227.723 165.58C229.467 165.58 231.159 165.916 232.752 166.579C234.29 167.219 235.671 168.134 236.858 169.302C238.044 170.468 238.976 171.828 239.627 173.341C240.3 174.906 240.641 176.57 240.641 178.285C240.641 180.001 240.3 181.665 239.627 183.23C238.976 184.743 238.046 186.102 236.858 187.269Z" fill="#3F3644"/>
<path d="M227.723 168.568C222.275 168.568 217.842 172.927 217.842 178.285C217.842 183.643 222.275 188.003 227.723 188.003C233.171 188.003 237.604 183.643 237.604 178.285C237.604 172.927 233.171 168.568 227.723 168.568ZM236.326 178.285C236.326 179.428 236.098 180.536 235.651 181.579C235.218 182.586 234.597 183.492 233.807 184.269C233.017 185.046 232.097 185.657 231.072 186.082C230.012 186.524 228.886 186.747 227.723 186.747C226.56 186.747 225.434 186.522 224.375 186.082C223.352 185.657 222.431 185.046 221.64 184.269C220.85 183.492 220.229 182.587 219.797 181.579C219.349 180.536 219.121 179.429 219.121 178.287C219.121 177.144 219.349 176.036 219.797 174.994C220.231 173.986 220.85 173.082 221.64 172.304C222.431 171.527 223.35 170.917 224.375 170.491C225.436 170.05 226.562 169.827 227.723 169.827C228.884 169.827 230.012 170.051 231.072 170.491C232.096 170.917 233.017 171.527 233.807 172.304C234.597 173.082 235.218 173.986 235.651 174.994C236.098 176.037 236.326 177.144 236.326 178.287V178.285Z" fill="#3F3644"/>
<path d="M219.127 178.485C219.24 183.155 223.18 186.85 227.926 186.739C232.674 186.628 236.431 182.754 236.318 178.084C236.205 173.414 232.265 169.719 227.518 169.831C222.77 169.942 219.013 173.817 219.127 178.485Z" fill="#E1E3E4"/>
<path d="M220.277 178.458C220.375 182.503 223.787 185.704 227.899 185.607C232.011 185.512 235.264 182.155 235.168 178.111C235.069 174.067 231.657 170.866 227.546 170.962C223.434 171.058 220.18 174.414 220.277 178.458Z" fill="#A5A8AA"/>
<path d="M222.252 178.413C222.323 181.384 224.831 183.736 227.853 183.666C230.874 183.595 233.265 181.129 233.194 178.158C233.122 175.186 230.615 172.835 227.593 172.904C224.572 172.976 222.181 175.441 222.252 178.413Z" fill="#29212D"/>
<path d="M233.853 178.93V177.641H231.324C231.23 177.126 231.024 176.651 230.732 176.237L232.521 174.477L231.595 173.566L229.805 175.326C229.384 175.039 228.901 174.836 228.378 174.743V172.256H227.068V174.743C226.544 174.836 226.061 175.039 225.64 175.326L223.851 173.566L222.925 174.477L224.714 176.237C224.422 176.651 224.216 177.127 224.121 177.641H221.593V178.93H224.121C224.216 179.445 224.422 179.92 224.714 180.334L222.925 182.093L223.851 183.005L225.64 181.245C226.062 181.532 226.545 181.735 227.068 181.827V184.315H228.378V181.826C228.902 181.733 229.385 181.531 229.805 181.244L231.595 183.003L232.521 182.092L230.732 180.332C231.024 179.919 231.23 179.442 231.324 178.928H233.853V178.93Z" fill="#A5A8AA"/>
<path d="M227.678 177.438C227.177 177.438 226.772 177.837 226.772 178.33C226.772 178.822 227.177 179.221 227.678 179.221C228.179 179.221 228.584 178.822 228.584 178.33C228.584 177.837 228.179 177.438 227.678 177.438Z" fill="#29212D"/>
<path d="M227.678 176.558C227.898 176.558 228.077 176.382 228.077 176.166C228.077 175.95 227.898 175.774 227.678 175.774C227.458 175.774 227.28 175.95 227.28 176.166C227.28 176.382 227.458 176.558 227.678 176.558Z" fill="#29212D"/>
<path d="M227.678 180.103C227.458 180.103 227.28 180.279 227.28 180.495C227.28 180.711 227.458 180.887 227.678 180.887C227.898 180.887 228.077 180.711 228.077 180.495C228.077 180.279 227.898 180.103 227.678 180.103Z" fill="#29212D"/>
<path d="M229.516 177.077C229.672 176.924 229.672 176.676 229.516 176.523C229.361 176.37 229.108 176.37 228.953 176.523C228.797 176.676 228.797 176.924 228.953 177.077C229.108 177.23 229.361 177.23 229.516 177.077Z" fill="#29212D"/>
<path d="M225.838 179.585C225.683 179.738 225.683 179.986 225.838 180.139C225.994 180.292 226.246 180.292 226.402 180.139C226.558 179.986 226.558 179.738 226.402 179.585C226.246 179.432 225.994 179.432 225.838 179.585Z" fill="#29212D"/>
<path d="M229.879 177.938C229.659 177.938 229.481 178.114 229.481 178.33C229.481 178.546 229.659 178.722 229.879 178.722C230.099 178.722 230.278 178.546 230.278 178.33C230.278 178.114 230.099 177.938 229.879 177.938Z" fill="#29212D"/>
<path d="M225.875 178.331C225.875 178.115 225.696 177.939 225.477 177.939C225.257 177.939 225.078 178.115 225.078 178.331C225.078 178.547 225.257 178.723 225.477 178.723C225.696 178.723 225.875 178.547 225.875 178.331Z" fill="#29212D"/>
<path d="M228.953 179.585C228.797 179.738 228.797 179.986 228.953 180.139C229.108 180.292 229.361 180.292 229.516 180.139C229.672 179.986 229.672 179.738 229.516 179.585C229.361 179.432 229.108 179.432 228.953 179.585Z" fill="#29212D"/>
<path d="M225.838 176.522C225.683 176.675 225.683 176.923 225.838 177.076C225.994 177.229 226.246 177.229 226.402 177.076C226.558 176.923 226.558 176.675 226.402 176.522C226.246 176.369 225.994 176.369 225.838 176.522Z" fill="#29212D"/>
<path d="M258.332 168.157C258.025 168.157 257.777 168.401 257.777 168.703L257.772 172.683C257.772 172.985 258.021 173.229 258.328 173.231L262.995 173.235L263.001 168.161L258.333 168.157H258.332Z" fill="#E6E7E8"/>
<path d="M260.158 168.161H258.327C258.02 168.158 257.772 168.404 257.77 168.704L257.766 172.684C257.766 172.986 258.014 173.23 258.322 173.231H260.153L260.158 168.161Z" fill="#F7941D"/>
<g style="mix-blend-mode:multiply" opacity="0.21">
<path d="M258.327 168.157C258.02 168.157 257.772 168.401 257.77 168.703L257.766 172.683C257.766 172.985 258.014 173.229 258.322 173.231L262.994 173.235V168.161L258.327 168.157ZM262.592 172.843L258.322 172.839C258.234 172.839 258.165 172.769 258.165 172.683L258.169 168.703C258.169 168.617 258.24 168.549 258.326 168.549L262.596 168.553L262.592 172.843Z" fill="#414042"/>
</g>
<g style="mix-blend-mode:multiply" opacity="0.21">
<path d="M261.576 146.568H218.725V149.102H261.576V146.568Z" fill="#414042"/>
</g>
<g style="mix-blend-mode:overlay" opacity="0.19">
<path d="M261.576 149.102H218.725V149.887H261.576V149.102Z" fill="white"/>
</g>
<g style="mix-blend-mode:multiply" opacity="0.21">
<path d="M236.77 161.37C237.849 162.034 238.856 162.811 239.774 163.683H261.578V161.37H236.77Z" fill="#414042"/>
</g>
<g style="mix-blend-mode:multiply" opacity="0.4">
<path d="M251.794 120.509C251.543 119.754 250.828 119.244 250.021 119.244H230.579C229.93 119.244 229.403 119.763 229.403 120.401V150.158C229.403 150.945 230.027 151.594 230.825 151.639C237.864 152.033 240.894 155.308 241.902 156.763C242.2 157.193 242.69 157.454 243.218 157.454H254.401C255.314 157.454 256.071 156.746 256.1 155.848C256.753 135.819 253.074 124.374 251.793 120.511L251.794 120.509ZM255.622 155.829C255.599 156.476 255.062 156.982 254.401 156.982H243.218C242.852 156.982 242.508 156.801 242.297 156.496C241.28 155.03 238.132 151.575 230.851 151.167C230.306 151.137 229.879 150.694 229.879 150.157V120.4C229.879 120.022 230.192 119.714 230.576 119.714H250.018C250.62 119.714 251.15 120.091 251.337 120.654C251.971 122.568 253.182 126.597 254.164 132.079C255.37 138.808 255.859 149.192 255.621 155.829H255.622Z" fill="#909697"/>
</g>
<path d="M253.197 135.917L250.126 122.064C250.009 121.534 249.531 121.156 248.98 121.156H232.394C231.803 121.156 231.324 121.627 231.324 122.208V132.571C231.324 133.155 231.754 133.653 232.34 133.747L252.184 136.967C252.804 137.068 253.331 136.521 253.197 135.919V135.917Z" fill="#312936"/>
<mask id="mask0_201_5174" style="mask-type:luminance" maskUnits="userSpaceOnUse" x="231" y="121" width="23" height="16">
<path d="M253.197 135.917L250.126 122.064C250.009 121.534 249.531 121.156 248.98 121.156H232.394C231.803 121.156 231.324 121.627 231.324 122.208V132.571C231.324 133.155 231.754 133.653 232.34 133.747L252.184 136.967C252.804 137.068 253.331 136.521 253.197 135.919V135.917Z" fill="white"/>
</mask>
<g mask="url(#mask0_201_5174)">
<g style="mix-blend-mode:overlay" opacity="0.25">
<path d="M257.209 107.488L238.71 146.502H255.292L273.789 107.488H257.209Z" fill="white"/>
</g>
<g style="mix-blend-mode:overlay" opacity="0.25">
<path d="M231.491 107.488L212.992 146.502H218.901L237.399 107.488H231.491Z" fill="white"/>
</g>
<g style="mix-blend-mode:overlay" opacity="0.25">
<path d="M243.693 107.488L225.196 146.502H229.009L247.506 107.488H243.693Z" fill="white"/>
</g>
<g style="mix-blend-mode:overlay" opacity="0.25">
<path d="M248.912 107.488L230.414 146.502H232.871L251.368 107.488H248.912Z" fill="white"/>
</g>
</g>
<path d="M261.578 139.144L256.21 120.208L255.173 120.499C254.264 120.754 253.742 121.689 254.008 122.58C254.854 125.411 256.493 131.489 256.763 136.909C256.816 137.99 257.606 138.896 258.686 139.104L261.578 139.659V139.144Z" fill="#312936"/>
<mask id="mask1_201_5174" style="mask-type:luminance" maskUnits="userSpaceOnUse" x="253" y="120" width="9" height="20">
<path d="M261.578 139.144L256.21 120.208L255.173 120.499C254.264 120.754 253.742 121.689 254.008 122.58C254.854 125.411 256.493 131.489 256.763 136.909C256.816 137.99 257.606 138.896 258.686 139.104L261.578 139.659V139.144Z" fill="white"/>
</mask>
<g mask="url(#mask1_201_5174)">
<g style="mix-blend-mode:overlay" opacity="0.25">
<path d="M267.756 116.846L249.257 155.86H265.839L284.336 116.846H267.756Z" fill="white"/>
</g>
<g style="mix-blend-mode:overlay" opacity="0.25">
<path d="M254.24 116.846L235.742 155.86H239.555L258.053 116.846H254.24Z" fill="white"/>
</g>
<g style="mix-blend-mode:overlay" opacity="0.25">
<path d="M259.46 116.846L240.961 155.86H243.417L261.915 116.846H259.46Z" fill="white"/>
</g>
</g>
<path d="M214.673 160.521H39V164.781H214.673V160.521Z" fill="#5F605C"/>
<path d="M47.8871 161.621H52.2842C52.6363 161.621 52.9216 161.901 52.9216 162.247V163.055C52.9216 163.402 52.6363 163.682 52.2842 163.682H47.8871C47.535 163.682 47.2498 163.402 47.2498 163.055V162.247C47.2498 161.901 47.535 161.621 47.8871 161.621Z" fill="#DCBD26"/>
<g style="mix-blend-mode:multiply" opacity="0.21">
<path d="M52.2842 161.621H47.8871C47.535 161.621 47.2498 161.901 47.2498 162.247V163.055C47.2498 163.402 47.535 163.682 47.8871 163.682H52.2842C52.6363 163.682 52.9216 163.402 52.9216 163.055V162.247C52.9216 161.901 52.6363 161.621 52.2842 161.621ZM52.5927 163.055C52.5927 163.223 52.4548 163.359 52.2842 163.359H47.8871C47.7165 163.359 47.5787 163.223 47.5787 163.055V162.247C47.5787 162.08 47.7165 161.944 47.8871 161.944H52.2842C52.4535 161.944 52.5927 162.08 52.5927 162.247V163.055Z" fill="#ED1C24"/>
</g>
<path d="M115.479 161.621H119.877C120.229 161.621 120.514 161.901 120.514 162.247V163.055C120.514 163.402 120.229 163.682 119.877 163.682H115.479C115.127 163.682 114.842 163.402 114.842 163.055V162.247C114.842 161.901 115.127 161.621 115.479 161.621Z" fill="#DCBD26"/>
<g style="mix-blend-mode:multiply" opacity="0.21">
<path d="M119.877 161.621H115.479C115.127 161.621 114.842 161.901 114.842 162.247V163.055C114.842 163.402 115.127 163.682 115.479 163.682H119.877C120.229 163.682 120.514 163.402 120.514 163.055V162.247C120.514 161.901 120.229 161.621 119.877 161.621ZM120.185 163.055C120.185 163.223 120.047 163.359 119.877 163.359H115.479C115.31 163.359 115.171 163.223 115.171 163.055V162.247C115.171 162.08 115.309 161.944 115.479 161.944H119.877C120.047 161.944 120.185 162.08 120.185 162.247V163.055Z" fill="#ED1C24"/>
</g>
<path d="M187.467 161.621H183.072C182.72 161.621 182.434 161.901 182.434 162.247V163.055C182.434 163.402 182.72 163.682 183.072 163.682H187.467C187.819 163.682 188.105 163.402 188.105 163.055V162.247C188.105 161.901 187.819 161.621 187.467 161.621Z" fill="#DCBD26"/>
<g style="mix-blend-mode:multiply" opacity="0.21">
<path d="M187.469 161.621H183.072C182.72 161.621 182.434 161.901 182.434 162.247V163.055C182.434 163.402 182.72 163.682 183.072 163.682H187.469C187.821 163.682 188.106 163.402 188.106 163.055V162.247C188.106 161.901 187.821 161.621 187.469 161.621ZM187.777 163.055C187.777 163.223 187.639 163.359 187.469 163.359H183.072C182.901 163.359 182.763 163.223 182.763 163.055V162.247C182.763 162.08 182.901 161.944 183.072 161.944H187.469C187.639 161.944 187.777 162.08 187.777 162.247V163.055Z" fill="#ED1C24"/>
</g>
<path d="M210.803 98H41.0334C39.9103 98 39 98.8818 39 99.9704V160.521H212.838V99.9704C212.838 98.8818 211.928 98 210.804 98H210.803Z" fill="#DCE2E1"/>
<g style="mix-blend-mode:multiply" opacity="0.25">
<path d="M41.4512 100.374V158.147H210.386V100.374H41.4512ZM209.511 157.3H42.3273V101.221H209.511V157.299V157.3Z" fill="#909697"/>
</g>
<path d="M210.803 98H41.0334C39.9103 98 39 98.8818 39 99.9704V160.521H212.838V99.9704C212.838 98.8818 211.928 98 210.804 98H210.803ZM210.385 158.147H41.4511V100.374H210.385V158.147Z" fill="#E8EAEA"/>
<g style="mix-blend-mode:multiply" opacity="0.1">
<path d="M212.838 143.976H39V160.521H212.838V143.976Z" fill="#909697"/>
</g>
<path d="M96.9437 161.093C106.405 161.093 114.074 168.699 114.074 178.038H79.8123C79.8123 168.699 87.482 161.093 96.9437 161.093Z" fill="#1B1B1B"/>
<path d="M113.742 178.041C112.88 169.283 105.687 162.45 96.945 162.45C88.2026 162.45 81.0104 169.285 80.1479 178.041H79.2922C79.2922 178.029 79.2922 178.053 79.2922 178.041C79.2922 168.451 87.1967 160.038 96.9464 160.038C106.696 160.038 114.601 168.452 114.601 178.041C114.601 178.029 114.601 178.053 114.601 178.041H113.745H113.742Z" fill="#313C48"/>
<path d="M110.783 178.285C110.783 185.861 104.54 192 96.8379 192C89.1353 192 82.8931 185.859 82.8931 178.285C82.8931 170.711 89.1367 164.569 96.8379 164.569C104.539 164.569 110.783 170.711 110.783 178.285Z" fill="#29212D"/>
<path d="M96.8359 164.569C89.1348 164.569 82.8911 170.711 82.8911 178.285C82.8911 185.859 89.1348 192 96.8359 192C104.537 192 110.781 185.859 110.781 178.285C110.781 170.711 104.538 164.569 96.8359 164.569ZM105.971 187.269C104.784 188.435 103.403 189.352 101.865 189.992C100.272 190.654 98.5814 190.989 96.8359 190.989C95.0904 190.989 93.3995 190.654 91.8083 189.992C90.2702 189.352 88.8891 188.436 87.7018 187.269C86.5145 186.101 85.5837 184.743 84.9328 183.23C84.2599 181.665 83.9188 180.001 83.9188 178.285C83.9188 176.57 84.2599 174.906 84.9328 173.341C85.5837 171.828 86.5145 170.468 87.7018 169.302C88.8891 168.134 90.2702 167.219 91.8083 166.579C93.3995 165.917 95.0918 165.58 96.8359 165.58C98.58 165.58 100.272 165.916 101.865 166.579C103.403 167.219 104.784 168.134 105.971 169.302C107.157 170.468 108.089 171.828 108.74 173.341C109.413 174.906 109.754 176.57 109.754 178.285C109.754 180.001 109.413 181.665 108.74 183.23C108.089 184.743 107.159 186.102 105.971 187.269Z" fill="#3F3644"/>
<path d="M96.836 168.568C91.388 168.568 86.9553 172.927 86.9553 178.285C86.9553 183.643 91.388 188.003 96.836 188.003C102.284 188.003 106.717 183.643 106.717 178.285C106.717 172.927 102.284 168.568 96.836 168.568ZM105.438 178.285C105.438 179.428 105.211 180.536 104.762 181.579C104.328 182.586 103.709 183.492 102.919 184.269C102.128 185.046 101.209 185.657 100.184 186.082C99.1232 186.524 97.9973 186.747 96.8346 186.747C95.6718 186.747 94.5459 186.522 93.4869 186.082C92.462 185.657 91.5422 185.046 90.752 184.269C89.9618 183.492 89.3409 182.587 88.9082 181.579C88.4593 180.536 88.2327 179.429 88.2327 178.287C88.2327 177.144 88.4593 176.036 88.9082 174.994C89.3409 173.986 89.9618 173.082 90.752 172.304C91.5422 171.527 92.462 170.917 93.4869 170.491C94.5473 170.05 95.6732 169.827 96.8346 169.827C97.996 169.827 99.1232 170.051 100.184 170.491C101.207 170.917 102.128 171.527 102.919 172.304C103.709 173.082 104.328 173.986 104.762 174.994C105.21 176.037 105.438 177.144 105.438 178.287V178.285Z" fill="#3F3644"/>
<path d="M88.2408 178.485C88.354 183.155 92.2927 186.85 97.0406 186.739C101.788 186.628 105.546 182.754 105.432 178.084C105.319 173.414 101.38 169.719 96.6325 169.831C91.8846 169.942 88.1275 173.817 88.2408 178.485Z" fill="#E1E3E4"/>
<path d="M89.3913 178.458C89.4895 182.503 92.9014 185.704 97.0133 185.607C101.125 185.512 104.38 182.155 104.282 178.111C104.185 174.067 100.772 170.866 96.6598 170.962C92.5479 171.058 89.2944 174.414 89.3913 178.458Z" fill="#A5A8AA"/>
<path d="M91.366 178.413C91.4384 181.384 93.9454 183.736 96.9669 183.666C99.9884 183.595 102.379 181.129 102.308 178.158C102.236 175.186 99.7291 172.835 96.7076 172.904C93.6861 172.976 91.2951 175.441 91.366 178.413Z" fill="#29212D"/>
<path d="M102.968 178.93V177.641H100.437C100.343 177.126 100.137 176.651 99.8452 176.237L101.634 174.477L100.708 173.566L98.9185 175.326C98.4982 175.039 98.0137 174.836 97.491 174.743V172.256H96.1809V174.743C95.6568 174.836 95.1737 175.039 94.7534 175.326L92.9642 173.566L92.0375 174.477L93.8267 176.237C93.5346 176.651 93.3286 177.127 93.2344 177.641H90.7056V178.93H93.2344C93.3286 179.445 93.5346 179.92 93.8267 180.334L92.0375 182.093L92.9642 183.005L94.7534 181.245C95.1737 181.532 95.6582 181.735 96.1809 181.827V184.315H97.491V181.826C98.0151 181.733 98.4982 181.531 98.9185 181.244L100.708 183.003L101.634 182.092L99.8452 180.332C100.137 179.919 100.343 179.442 100.437 178.928H102.966L102.968 178.93Z" fill="#A5A8AA"/>
<path d="M96.7907 177.438C96.2898 177.438 95.8845 177.837 95.8845 178.33C95.8845 178.822 96.2898 179.221 96.7907 179.221C97.2916 179.221 97.6969 178.822 97.6969 178.33C97.6969 177.837 97.2916 177.438 96.7907 177.438Z" fill="#29212D"/>
<path d="M96.7908 176.558C97.0119 176.558 97.1893 176.382 97.1893 176.166C97.1893 175.95 97.0106 175.774 96.7908 175.774C96.5711 175.774 96.3923 175.95 96.3923 176.166C96.3923 176.382 96.5711 176.558 96.7908 176.558Z" fill="#29212D"/>
<path d="M96.7908 180.103C96.5711 180.103 96.3923 180.279 96.3923 180.495C96.3923 180.711 96.5711 180.887 96.7908 180.887C97.0106 180.887 97.1893 180.711 97.1893 180.495C97.1893 180.279 97.0106 180.103 96.7908 180.103Z" fill="#29212D"/>
<path d="M98.629 177.077C98.7846 176.924 98.7846 176.676 98.629 176.523C98.4735 176.37 98.221 176.37 98.0654 176.523C97.9098 176.676 97.9098 176.924 98.0654 177.077C98.221 177.23 98.4735 177.23 98.629 177.077Z" fill="#29212D"/>
<path d="M94.9524 179.585C94.7968 179.738 94.7968 179.986 94.9524 180.139C95.108 180.292 95.3604 180.292 95.516 180.139C95.6716 179.986 95.6716 179.738 95.516 179.585C95.3604 179.432 95.108 179.432 94.9524 179.585Z" fill="#29212D"/>
<path d="M98.992 177.938C98.7723 177.938 98.5935 178.114 98.5935 178.33C98.5935 178.546 98.7723 178.722 98.992 178.722C99.2117 178.722 99.3905 178.546 99.3905 178.33C99.3905 178.114 99.2117 177.938 98.992 177.938Z" fill="#29212D"/>
<path d="M94.9879 178.331C94.9879 178.115 94.8091 177.939 94.5894 177.939C94.3697 177.939 94.1909 178.115 94.1909 178.331C94.1909 178.547 94.3697 178.723 94.5894 178.723C94.8091 178.723 94.9879 178.547 94.9879 178.331Z" fill="#29212D"/>
<path d="M98.0654 179.585C97.9098 179.738 97.9098 179.986 98.0654 180.139C98.221 180.292 98.4735 180.292 98.629 180.139C98.7846 179.986 98.7846 179.738 98.629 179.585C98.4735 179.432 98.221 179.432 98.0654 179.585Z" fill="#29212D"/>
<path d="M94.9524 176.522C94.7968 176.675 94.7968 176.923 94.9524 177.076C95.108 177.229 95.3604 177.229 95.516 177.076C95.6716 176.923 95.6716 176.675 95.516 176.522C95.3604 176.369 95.108 176.369 94.9524 176.522Z" fill="#29212D"/>
<g style="mix-blend-mode:multiply" opacity="0.1">
<path d="M209.511 109.193H42.3271V110.55H209.511V109.193Z" fill="#909697"/>
</g>
<g style="mix-blend-mode:multiply" opacity="0.1">
<path d="M209.511 119.036H42.3271V120.393H209.511V119.036Z" fill="#909697"/>
</g>
<g style="mix-blend-mode:multiply" opacity="0.1">
<path d="M209.511 128.879H42.3271V130.236H209.511V128.879Z" fill="#909697"/>
</g>
<g style="mix-blend-mode:multiply" opacity="0.1">
<path d="M209.511 138.723H42.3271V140.079H209.511V138.723Z" fill="#909697"/>
</g>
<path d="M205.136 166.792H177.656C176.888 166.792 176.266 167.404 176.266 168.158V178.445C176.266 179.2 176.888 179.811 177.656 179.811H205.136C205.903 179.811 206.525 179.2 206.525 178.445V168.158C206.525 167.404 205.903 166.792 205.136 166.792Z" fill="#313C48"/>
<g style="mix-blend-mode:multiply" opacity="0.21">
<path d="M205.135 176.554H177.654C176.887 176.554 176.264 175.943 176.264 175.188V178.446C176.264 179.201 176.887 179.813 177.654 179.813H205.135C205.902 179.813 206.525 179.201 206.525 178.446V175.188C206.525 175.942 205.902 176.554 205.135 176.554Z" fill="#414042"/>
</g>
<path d="M200.629 166.792H198.485V179.811H200.629V166.792Z" fill="#1B1B1B"/>
<path d="M184.354 166.792H182.21V179.815H184.354V166.792Z" fill="#1B1B1B"/>
<path d="M208.067 168.305H117.678V171.345H208.067V168.305Z" fill="#A7A9AC"/>
<path d="M208.067 173.758H117.678V176.8H208.067V173.758Z" fill="#A7A9AC"/>
<path d="M77.1932 168.305H43.2251V171.345H77.1932V168.305Z" fill="#A7A9AC"/>
<path d="M77.1932 173.758H43.2251V176.8H77.1932V173.758Z" fill="#A7A9AC"/>
<path d="M252.699 137.469C252.436 137.469 252.193 137.619 252.083 137.855C251.677 138.735 251.609 139.526 251.61 139.971C251.61 140.2 251.756 140.407 251.974 140.486C253.186 140.928 254.139 140.671 254.589 140.486C254.762 140.414 254.874 140.246 254.874 140.061V137.469H252.699Z" fill="#182127"/>
<path d="M254.656 135.83C254.656 135.83 254.349 137.6 253.526 138.467V139.692C253.526 139.692 253.583 139.973 253.948 139.973H254.446C254.446 139.973 255.48 137.619 255.537 135.622L254.656 135.829V135.83Z" fill="#36424A"/>
<path d="M253.852 128.879V136.074H255.232C255.232 136.074 256.164 135.886 256.164 134.956C256.164 134.956 256.087 131.515 255.857 129.732C255.857 129.732 255.449 128.879 253.852 128.879Z" fill="#182127"/>
<path d="M197.549 164.781H194.732V168.305H197.549V164.781Z" fill="#848689"/>
<path d="M197.549 171.345H194.732V173.758H197.549V171.345Z" fill="#848689"/>
<path d="M177.674 164.781H174.857V168.305H177.674V164.781Z" fill="#848689"/>
<path d="M177.674 171.345H174.857V173.758H177.674V171.345Z" fill="#848689"/>
<path d="M157.798 164.781H154.981V168.305H157.798V164.781Z" fill="#848689"/>
<path d="M157.798 171.345H154.981V173.758H157.798V171.345Z" fill="#848689"/>
<path d="M137.924 164.781H135.107V168.305H137.924V164.781Z" fill="#848689"/>
<path d="M137.924 171.345H135.107V173.758H137.924V171.345Z" fill="#848689"/>
<path d="M73.9467 164.781H71.1299V168.305H73.9467V164.781Z" fill="#848689"/>
<path d="M73.9467 171.345H71.1299V173.758H73.9467V171.345Z" fill="#848689"/>
<path d="M50.068 164.781H47.2512V168.305H50.068V164.781Z" fill="#848689"/>
<path d="M50.068 171.345H47.2512V173.758H50.068V171.345Z" fill="#848689"/>
<g style="mix-blend-mode:multiply" opacity="0.1">
<path d="M218.725 151.249V159.547C218.725 160.174 219.363 160.603 219.959 160.383C222.5 159.446 226.066 158.813 227.829 158.813C232.435 158.813 236.628 160.69 239.772 163.682H261.576V151.248H218.725V151.249Z" fill="#909697"/>
</g>
<g style="mix-blend-mode:multiply" opacity="0.6">
<path d="M250.126 122.064C250.009 121.534 249.531 121.156 248.98 121.156H232.394C231.803 121.156 231.324 121.627 231.324 122.208V132.571C231.324 133.155 231.754 133.653 232.338 133.747L252.183 136.967C252.233 136.975 252.283 136.979 252.33 136.979C252.883 136.979 253.318 136.473 253.196 135.917L250.125 122.064H250.126ZM252.618 136.332C252.547 136.419 252.442 136.469 252.332 136.469C252.311 136.469 252.289 136.468 252.268 136.464L232.423 133.244C232.086 133.189 231.842 132.905 231.842 132.57V122.207C231.842 121.907 232.09 121.663 232.394 121.663H248.98C249.287 121.663 249.556 121.876 249.621 122.172L252.692 136.025C252.725 136.174 252.661 136.281 252.618 136.331V136.332Z" fill="#909697"/>
<path d="M256.21 120.208L255.173 120.499C254.264 120.754 253.742 121.689 254.008 122.58C254.854 125.411 256.493 131.489 256.763 136.909C256.816 137.99 257.606 138.896 258.686 139.104L261.578 139.659V139.144L256.21 120.208ZM258.786 138.603C257.941 138.441 257.323 137.733 257.28 136.884C257.011 131.495 255.426 125.519 254.504 122.436C254.414 122.137 254.45 121.82 254.603 121.548C254.756 121.274 255.009 121.075 255.315 120.989L255.851 120.839L261.009 139.033L258.784 138.604L258.786 138.603Z" fill="#909697"/>
</g>
</g>
</g>
<defs>
<linearGradient id="paint0_linear_201_5174" x1="196.854" y1="196.511" x2="196.854" y2="258.487" gradientUnits="userSpaceOnUse">
<stop stop-color="#FFE467"/>
<stop offset="1" stop-color="white"/>
</linearGradient>
<clipPath id="clip0_201_5174">
<rect width="419" height="227" fill="white" transform="translate(-14)"/>
</clipPath>
<clipPath id="clip1_201_5174">
<rect width="224" height="94" fill="white" transform="translate(39 98)"/>
</clipPath>
</defs>
</svg>
