<svg width="128" height="23" viewBox="0 0 128 23" fill="none" xmlns="http://www.w3.org/2000/svg">
<path d="M0.71106 11.3446V0.155405H3.11579V11.3446H0.71106ZM7.98772 11.3446V0.155405H10.3924V11.3446H7.98772ZM1.83535 4.6H9.08078V6.43378H1.83535V4.6Z" fill="white"/>
<path d="M12.4181 11.3446V0.155405H14.8229V11.3446H12.4181Z" fill="white"/>
<path d="M16.8514 11.3446V0.155405H19.9588L24.9556 10.0392L24.1905 10.2257V0.155405H26.5328V11.3446H23.4254L18.4285 1.46081L19.1937 1.27432V11.3446H16.8514Z" fill="white"/>
<path d="M34.0082 11.5C33.1753 11.5 32.405 11.3601 31.6971 11.0804C30.9996 10.8007 30.3906 10.407 29.8701 9.89932C29.36 9.38131 28.9593 8.77004 28.6678 8.06554C28.3867 7.35068 28.2462 6.56329 28.2462 5.70338C28.2462 4.56374 28.4908 3.56914 28.9801 2.71959C29.4694 1.85968 30.146 1.19144 31.01 0.714865C31.8845 0.238288 32.8787 0 33.9925 0C35.1272 0 36.1266 0.238288 36.9906 0.714865C37.8547 1.19144 38.5313 1.85968 39.0206 2.71959C39.5203 3.5795 39.7701 4.57928 39.7701 5.71892C39.7701 6.56847 39.6244 7.35068 39.3329 8.06554C39.0518 8.77004 38.6511 9.38131 38.1305 9.89932C37.6205 10.407 37.0115 10.8007 36.3036 11.0804C35.6061 11.3601 34.841 11.5 34.0082 11.5ZM33.9925 9.60405C34.6484 9.60405 35.2261 9.43829 35.7258 9.10676C36.2255 8.77522 36.6159 8.31937 36.897 7.73919C37.1884 7.14865 37.3342 6.46486 37.3342 5.68784C37.3342 4.92117 37.1936 4.25293 36.9126 3.68311C36.6315 3.11329 36.2411 2.67297 35.7414 2.36216C35.2417 2.05135 34.6588 1.89595 33.9925 1.89595C33.3367 1.89595 32.7589 2.05135 32.2593 2.36216C31.7596 2.67297 31.3692 3.11329 31.0881 3.68311C30.8175 4.24257 30.6821 4.91081 30.6821 5.68784C30.6821 6.47522 30.8227 7.16419 31.1037 7.75473C31.3848 8.33491 31.7752 8.79077 32.2749 9.1223C32.7746 9.44347 33.3471 9.60405 33.9925 9.60405Z" fill="white"/>
<path d="M41.2452 8.05V6.18513H46.9603V8.05H41.2452Z" fill="white"/>
<path d="M54.0951 11.5C53.2831 11.5 52.5336 11.3601 51.8465 11.0804C51.1594 10.7903 50.5608 10.3863 50.0508 9.86824C49.5511 9.35022 49.1607 8.73896 48.8796 8.03446C48.5985 7.31959 48.458 6.54257 48.458 5.70338C48.458 4.86419 48.5933 4.09752 48.864 3.40338C49.1451 2.70923 49.5355 2.10833 50.0351 1.60068C50.5452 1.08266 51.1438 0.688964 51.8309 0.419595C52.5179 0.139865 53.2727 0 54.0951 0C55.0216 0 55.8544 0.181306 56.5935 0.543918C57.343 0.896171 57.952 1.39865 58.4205 2.05135C58.8993 2.69369 59.1908 3.45 59.2949 4.32027H56.9526C56.8173 3.52252 56.4894 2.92162 55.9689 2.51757C55.4484 2.10315 54.829 1.89595 54.1107 1.89595C53.4757 1.89595 52.9135 2.04617 52.4243 2.34662C51.9454 2.64707 51.5706 3.08221 51.3 3.65203C51.0293 4.21149 50.894 4.89009 50.894 5.68784C50.894 6.49595 51.0293 7.19527 51.3 7.78581C51.581 8.36599 51.9662 8.81667 52.4555 9.13784C52.9448 9.44865 53.5069 9.60405 54.1419 9.60405C54.8186 9.60405 55.4172 9.40203 55.9377 8.99797C56.4582 8.59392 56.7965 7.99302 56.9526 7.19527H59.3261C59.1908 8.06554 58.8837 8.82703 58.4049 9.47973C57.926 10.1221 57.317 10.6194 56.5779 10.9716C55.8388 11.3239 55.0112 11.5 54.0951 11.5Z" fill="white"/>
<path d="M66.3998 11.5C65.567 11.5 64.7967 11.3601 64.0888 11.0804C63.3913 10.8007 62.7823 10.407 62.2618 9.89932C61.7517 9.38131 61.3509 8.77004 61.0594 8.06554C60.7784 7.35068 60.6378 6.56329 60.6378 5.70338C60.6378 4.56374 60.8825 3.56914 61.3717 2.71959C61.861 1.85968 62.5377 1.19144 63.4017 0.714865C64.2761 0.238288 65.2703 0 66.3842 0C67.5189 0 68.5183 0.238288 69.3823 0.714865C70.2463 1.19144 70.923 1.85968 71.4123 2.71959C71.912 3.5795 72.1618 4.57928 72.1618 5.71892C72.1618 6.56847 72.0161 7.35068 71.7246 8.06554C71.4435 8.77004 71.0427 9.38131 70.5222 9.89932C70.0121 10.407 69.4031 10.8007 68.6952 11.0804C67.9978 11.3601 67.2326 11.5 66.3998 11.5ZM66.3842 9.60405C67.04 9.60405 67.6178 9.43829 68.1175 9.10676C68.6172 8.77522 69.0075 8.31937 69.2886 7.73919C69.5801 7.14865 69.7258 6.46486 69.7258 5.68784C69.7258 4.92117 69.5853 4.25293 69.3042 3.68311C69.0232 3.11329 68.6328 2.67297 68.1331 2.36216C67.6334 2.05135 67.0504 1.89595 66.3842 1.89595C65.7284 1.89595 65.1506 2.05135 64.6509 2.36216C64.1512 2.67297 63.7609 3.11329 63.4798 3.68311C63.2091 4.24257 63.0738 4.91081 63.0738 5.68784C63.0738 6.47522 63.2143 7.16419 63.4954 7.75473C63.7765 8.33491 64.1668 8.79077 64.6665 9.1223C65.1662 9.44347 65.7388 9.60405 66.3842 9.60405Z" fill="white"/>
<path d="M73.8771 11.3446V0.155405H76.9846L81.9814 10.0392L81.2163 10.2257V0.155405H83.5585V11.3446H80.4511L75.4543 1.46081L76.2194 1.27432V11.3446H73.8771Z" fill="white"/>
<path d="M85.5842 11.3446V0.155405H88.6916L93.6885 10.0392L92.9233 10.2257V0.155405H95.2656V11.3446H92.1582L87.1614 1.46081L87.9265 1.27432V11.3446H85.5842Z" fill="white"/>
<path d="M97.2913 11.3446V0.155405H99.696V11.3446H97.2913ZM98.4156 11.3446V9.51081H105.661V11.3446H98.4156ZM98.4156 6.52703V4.72432H105.114V6.52703H98.4156ZM98.4156 1.98919V0.155405H105.474V1.98919H98.4156Z" fill="white"/>
<path d="M112.432 11.5C111.62 11.5 110.871 11.3601 110.184 11.0804C109.497 10.7903 108.898 10.3863 108.388 9.86824C107.888 9.35022 107.498 8.73896 107.217 8.03446C106.936 7.31959 106.795 6.54257 106.795 5.70338C106.795 4.86419 106.931 4.09752 107.201 3.40338C107.482 2.70923 107.873 2.10833 108.372 1.60068C108.882 1.08266 109.481 0.688964 110.168 0.419595C110.855 0.139865 111.61 0 112.432 0C113.359 0 114.192 0.181306 114.931 0.543918C115.68 0.896171 116.289 1.39865 116.758 2.05135C117.237 2.69369 117.528 3.45 117.632 4.32027H115.29C115.155 3.52252 114.827 2.92162 114.306 2.51757C113.786 2.10315 113.166 1.89595 112.448 1.89595C111.813 1.89595 111.251 2.04617 110.761 2.34662C110.283 2.64707 109.908 3.08221 109.637 3.65203C109.366 4.21149 109.231 4.89009 109.231 5.68784C109.231 6.49595 109.366 7.19527 109.637 7.78581C109.918 8.36599 110.303 8.81667 110.793 9.13784C111.282 9.44865 111.844 9.60405 112.479 9.60405C113.156 9.60405 113.754 9.40203 114.275 8.99797C114.795 8.59392 115.134 7.99302 115.29 7.19527H117.663C117.528 8.06554 117.221 8.82703 116.742 9.47973C116.263 10.1221 115.654 10.6194 114.915 10.9716C114.176 11.3239 113.348 11.5 112.432 11.5Z" fill="white"/>
<path d="M121.926 11.3446V1.98919H118.256V0.155405H128V1.98919H124.33V11.3446H121.926Z" fill="white"/>
<path d="M0 18.2971H40.1729V20.5154H0V18.2971Z" fill="white"/>
<path d="M45.5714 23V21.8021H47.3961C47.9175 21.8021 48.3586 21.6989 48.7196 21.4926C49.0872 21.2797 49.3646 20.9902 49.5517 20.6241C49.7456 20.2581 49.8425 19.8388 49.8425 19.3663C49.8425 18.9005 49.7489 18.4912 49.5618 18.1385C49.3746 17.7857 49.0972 17.5095 48.7296 17.3099C48.3686 17.1102 47.9242 17.0104 47.3961 17.0104H45.6014V15.8125H47.3961C48.2049 15.8125 48.9101 15.9589 49.5116 16.2517C50.1132 16.5379 50.5777 16.9505 50.9053 17.4896C51.2395 18.022 51.4066 18.6542 51.4066 19.3863C51.4066 20.1183 51.2395 20.7572 50.9053 21.303C50.571 21.842 50.1032 22.2613 49.5016 22.5608C48.9067 22.8536 48.2082 23 47.4061 23H45.5714ZM44.6289 23V15.8125H46.1729V23H44.6289Z" fill="white"/>
<path d="M52.4679 23V15.8125H55.6963C56.2177 15.8125 56.6722 15.9023 57.0599 16.082C57.4475 16.2551 57.7483 16.5013 57.9622 16.8207C58.1761 17.1402 58.2831 17.5129 58.2831 17.9388C58.2831 18.3581 58.1761 18.7274 57.9622 19.0469C57.7483 19.3597 57.4475 19.6059 57.0599 19.7856C56.6722 19.9586 56.2177 20.0451 55.6963 20.0451H53.6911V18.9171H55.6562C56.0238 18.9171 56.3046 18.8339 56.4984 18.6675C56.6989 18.4945 56.7992 18.2549 56.7992 17.9488C56.7992 17.636 56.7023 17.3997 56.5084 17.24C56.3146 17.0736 56.0305 16.9905 55.6562 16.9905H54.0119V23H52.4679ZM56.5385 23L53.641 19.2665H55.2752L58.6239 23H56.5385Z" fill="white"/>
<path d="M59.5059 23V15.8125H61.05V23H59.5059Z" fill="white"/>
<path d="M64.6785 23L62.0917 15.8125H63.6959L65.671 21.8021H65.4806L67.4657 15.8125H68.9897L66.403 23H64.6785Z" fill="white"/>
<path d="M70.0357 23V15.8125H71.5797V23H70.0357ZM70.7576 23V21.822H75.4097V23H70.7576ZM70.7576 19.9054V18.7474H75.0588V19.9054H70.7576ZM70.7576 16.9905V15.8125H75.2894V16.9905H70.7576Z" fill="white"/>
<path d="M76.5039 23V15.8125H79.7324C80.2537 15.8125 80.7082 15.9023 81.0959 16.082C81.4836 16.2551 81.7844 16.5013 81.9983 16.8207C82.2121 17.1402 82.3191 17.5129 82.3191 17.9388C82.3191 18.3581 82.2121 18.7274 81.9983 19.0469C81.7844 19.3597 81.4836 19.6059 81.0959 19.7856C80.7082 19.9586 80.2537 20.0451 79.7324 20.0451H77.7271V18.9171H79.6922C80.0599 18.9171 80.3406 18.8339 80.5344 18.6675C80.735 18.4945 80.8352 18.2549 80.8352 17.9488C80.8352 17.636 80.7383 17.3997 80.5445 17.24C80.3506 17.0736 80.0666 16.9905 79.6922 16.9905H78.048V23H76.5039ZM80.5746 23L77.677 19.2665H79.3113L82.66 23H80.5746Z" fill="white"/>
<path d="M87.116 18.2971H127.289V20.5154H87.116V18.2971Z" fill="white"/>
</svg>
