<svg width="242" height="48" viewBox="0 0 242 48" fill="none" xmlns="http://www.w3.org/2000/svg">
<g clip-path="url(#clip0_201_5162)">
<path fill-rule="evenodd" clip-rule="evenodd" d="M38.1723 23.8794C42.36 23.8794 46.6282 23.8794 50.8159 23.8794C52.4265 23.8794 53.9566 23.8794 55.4867 23.8794C57.0169 23.8794 58.4664 23.8794 59.9966 23.8794C62.0904 23.9598 64.5869 23.799 66.2781 24.6834C67.2445 25.1658 67.5666 25.809 67.7277 26.8543C67.7277 26.9347 67.7277 27.0151 67.7277 27.0151C67.6471 28.5427 66.7613 30.2312 66.0365 31.598C65.0701 33.608 63.3789 35.3769 61.6877 36.9849C58.7886 39.9598 53.1513 43.1759 47.1114 44.7035C46.306 44.9447 45.3397 45.2663 44.4538 45.4271C43.8095 45.5879 44.0511 45.9095 44.4538 45.9095C45.4202 45.8291 46.4671 45.5879 47.353 45.3467C54.2788 43.6583 59.1107 40.9246 62.4931 38.2714C64.5064 36.6633 66.6002 34.4121 67.9693 32.0804C68.9357 30.4724 69.8215 27.8995 69.9826 26.9347C70.1436 25.6482 70.3047 25.005 70.3047 23.0754C70.1437 19.6985 69.0967 17.0452 67.1639 13.9095C67.0029 13.6683 66.8418 13.5075 66.6808 13.2663C66.6002 13.1859 66.5197 13.0251 66.6002 12.8643H66.6808C66.8418 12.7839 67.0834 13.0251 67.2445 13.1859C68.8551 15.0352 69.741 16.4824 70.6268 18.3317C71.7543 20.7437 71.9959 22.5126 72.2375 24.6834C72.2375 25.0854 72.7207 25.3266 72.7207 24.603C72.8012 22.2714 72.318 19.8593 71.4322 17.6884C70.3852 15.196 69.1773 13.8291 67.6471 11.9799C65.8754 10.1306 63.7011 8.2814 61.4461 6.91457C57.9833 4.66331 54.5204 3.21608 50.7353 2.17085C49.2052 1.76884 47.5946 1.36683 45.9839 1.20603C45.5007 1.12562 44.937 1.12562 44.4538 1.12562C44.1317 1.12562 43.729 1.52763 44.4538 1.68844C45.4202 1.92964 46.3866 2.17085 47.353 2.49246C51.0575 3.53768 54.762 4.98492 57.9832 7.07537C60.6408 8.84422 62.0099 9.72864 65.2312 13.7487C65.6338 14.3116 66.4392 15.6784 66.9223 16.804C67.2445 17.5276 67.7277 18.8141 67.7277 19.6985C67.6471 20.5829 67.4055 21.1457 66.7613 21.6281C65.3117 22.4322 64.0232 22.5126 62.0099 22.593C60.6408 22.6734 59.1912 22.6734 57.8222 22.6734C55.7283 22.6734 53.715 22.7538 51.6212 22.7538C47.1919 22.8342 42.6821 22.8342 38.1723 22.8342H37.2864V22.4322H38.0917C41.0714 22.4322 44.0511 22.4322 47.0308 22.4322C49.2052 22.4322 51.2991 22.3518 53.4734 22.3518C55.4062 22.2714 57.339 22.191 59.2718 22.1105C61.124 22.0301 63.6205 21.7085 64.0232 21.3869C64.3453 21.1457 64.1842 20.9045 63.9427 20.6633C63.54 20.3417 63.0568 20.1005 62.5736 19.8593C62.332 19.7789 62.0904 19.8593 61.9293 19.9397C61.6072 20.2613 61.3656 20.3417 60.8824 20.4221C59.1107 20.9045 57.8222 21.0653 55.4867 21.3065C53.715 21.4673 51.9433 21.5477 50.1716 21.6281C46.2255 21.7085 43.729 21.7889 38.1723 21.7889H37.3669V20.8241H38.1723C44.2927 20.8241 50.8159 20.9045 56.8558 20.2613C59.916 19.9397 60.7214 18.3317 60.8824 17.2864C61.2851 13.8291 56.131 9.24623 53.3929 7.79899C49.7689 5.78894 46.4671 4.2613 42.0378 3.05527C41.4741 2.89447 41.152 2.25125 41.152 1.76884C41.152 1.28643 41.8768 0.804017 42.2794 0.643213C43.6485 0.321605 45.0981 0.402007 46.5476 0.643213C48.8831 0.964821 51.0575 1.44723 53.3124 2.09045C56.2921 2.97487 59.5134 4.50251 62.332 6.27135C66.0365 8.60301 69.1773 11.4975 71.4322 15.1156C73.0428 17.6884 74.2508 21.0653 74.2508 23.8794C74.2508 27.3367 72.8818 30.794 70.949 33.7688C69.0967 36.6633 66.5197 38.9146 63.7011 41.005C61.124 42.8543 58.3054 44.2211 55.3257 45.4271C52.7486 46.392 50.0911 47.0352 47.4335 47.4372C45.7423 47.6784 44.0511 47.8392 42.36 47.5176C41.8768 47.4372 41.152 46.9548 41.152 46.4724C41.0714 45.9899 41.4741 45.3467 41.9573 45.2663C43.4069 44.8643 45.8228 44.0603 47.514 43.3367C49.6884 42.3719 51.9433 41.407 53.9566 40.0402C55.9699 38.7538 57.9027 37.2261 59.1912 35.2965C59.916 34.2513 60.6408 32.8844 60.7214 31.8392C60.8019 31.196 60.8019 30.392 60.3992 29.8291C59.1107 27.6583 55.4062 27.8191 52.6681 27.6583C50.1716 27.5779 47.7556 27.4975 45.2591 27.4171C42.7626 27.3367 39.7829 27.3367 37.2864 27.2563V23.9598L38.1723 23.8794ZM37.2864 22.7538H36.7227C32.1323 22.7538 27.542 22.7538 23.0322 22.6734C20.9383 22.6734 18.925 22.593 16.8312 22.593C15.4621 22.593 14.0125 22.593 12.6435 22.5126C10.6302 22.4322 9.34166 22.3518 7.89207 21.5477C7.16728 21.1457 7.00622 20.5025 6.92568 19.6181C6.92568 18.7337 7.40888 17.5276 7.73101 16.7236C8.2142 15.598 9.10006 14.2312 9.42219 13.6683C12.6435 9.64824 13.932 8.76382 16.6701 6.99497C19.8914 4.90452 23.5154 3.45728 27.2199 2.33166C28.1862 2.01005 29.1526 1.76884 30.119 1.52763C30.8438 1.36683 30.4412 0.964821 30.119 0.964821C29.6358 0.964821 29.0721 0.964821 28.5889 1.04522C26.9783 1.20603 25.3676 1.60804 23.8375 2.01005C20.133 3.05527 16.5896 4.50251 13.2072 6.67336C11.0328 8.1206 8.85846 9.88944 7.00621 11.7387C5.4761 13.5879 4.34864 14.9548 3.22119 17.4472C2.2548 19.6181 1.77161 22.0301 1.93267 24.3618C1.93267 25.0854 2.41586 24.8442 2.41586 24.4422C2.57693 22.2714 2.89906 20.5025 4.02651 18.0904C4.91237 16.2412 5.79823 14.794 7.40888 12.9447C7.56994 12.7839 7.81154 12.5427 7.9726 12.6231H8.05314C8.13367 12.7839 8.05314 12.9447 7.9726 13.0251C7.81154 13.2663 7.65047 13.4271 7.48941 13.6683C5.55663 16.7236 4.50971 19.4573 4.34864 22.8342C4.26811 24.8442 4.50971 25.4874 4.67077 26.6935C4.75131 27.9799 5.7177 30.5528 6.68408 32.1608C8.05314 34.4925 10.147 36.7437 12.1603 38.3518C15.4621 41.005 20.2941 43.7387 27.3004 45.4271C28.1862 45.6683 29.2332 45.9095 30.1996 45.9899C30.6022 45.9899 30.8438 45.6683 30.1996 45.5075C29.3137 45.2663 28.3473 44.9447 27.542 44.7839C21.5021 43.2563 15.8648 40.0402 12.8851 37.2261C11.1939 35.6181 9.50272 33.8492 8.53633 31.8392C7.89207 30.4724 6.92568 28.7035 6.84515 27.2563C6.84515 27.1759 6.84515 27.1759 6.84515 27.0955C7.00621 26.0502 7.32834 25.407 8.29473 24.9246C10.0664 24.0402 12.4824 24.201 14.5763 24.1206C16.1064 24.1206 17.556 24.1206 19.0861 24.1206C20.6967 24.1206 22.2268 24.1206 23.757 24.1206C28.1057 24.1206 32.3739 24.1206 36.7227 24.1206H37.2864V27.4171C34.7094 27.4171 31.8102 27.4975 29.3137 27.5779C26.8172 27.6583 24.4012 27.6583 21.9047 27.8191C19.1666 27.9799 15.5427 27.8191 14.1736 29.9899C13.8515 30.5528 13.8515 31.3568 13.8515 32C13.932 33.0452 14.6568 34.4925 15.3816 35.4573C16.6701 37.3065 18.6834 38.8342 20.6162 40.201C22.6295 41.4874 24.8844 42.5327 27.0588 43.4975C28.8305 44.2211 31.1659 45.0251 32.6155 45.4271C33.0987 45.5879 33.5014 46.1507 33.4209 46.6332C33.3403 47.1156 32.6155 47.598 32.2129 47.6784C30.5217 48 28.8305 47.8392 27.1393 47.598C24.4818 47.196 21.7437 46.5528 19.2471 45.5879C16.348 44.4623 13.4488 43.0151 10.8718 41.1658C8.05314 39.1558 5.4761 36.8241 3.62385 33.9296C1.69107 30.9548 0.322021 27.4975 0.322021 24.0402C0.322021 21.2261 1.53001 17.8492 3.14066 15.2764C5.39557 11.6583 8.61686 8.76382 12.2408 6.43216C15.0595 4.66331 18.2808 3.13567 21.2605 2.25125C23.5154 1.60804 25.6897 1.12562 28.0252 0.804017C29.4748 0.562811 30.9243 0.482409 32.2934 0.804017C32.7766 0.884419 33.4209 1.44723 33.4209 1.92964C33.4209 2.41206 33.0987 3.05527 32.535 3.21608C28.2668 4.1809 24.9649 5.78894 21.2605 7.79899C18.5224 9.24623 13.3683 13.8291 13.7709 17.2864C13.932 18.3317 14.7373 19.9397 17.7976 20.2613C23.918 20.9045 30.4412 20.8241 36.6422 20.8241H37.2864V21.7085H36.6422C30.9243 21.7085 28.5084 21.7085 24.4818 21.5477C22.71 21.4673 20.9383 21.3869 19.1666 21.2261C16.8312 21.0653 15.5427 20.8241 13.7709 20.3417C13.2877 20.2613 13.1267 20.1005 12.724 19.8593C12.563 19.6985 12.2408 19.6985 12.0798 19.7789C11.5966 19.9397 11.1134 20.2613 10.7107 20.5829C10.4691 20.8241 10.308 21.0653 10.6302 21.3065C11.0328 21.6281 13.5293 21.8693 15.3816 22.0301C17.3144 22.191 19.2471 22.2714 21.1799 22.2714C23.2738 22.3518 25.4481 22.3518 27.6225 22.3518C30.6022 22.3518 33.6624 22.3518 36.7227 22.3518H37.3669L37.2864 22.7538Z" fill="#E81E25"/>
<path fill-rule="evenodd" clip-rule="evenodd" d="M221.383 38.3518V31.0352H221.786H222.591H223.638C224.444 31.0352 227.182 31.0352 228.148 30.7136C229.839 30.2311 230.725 29.5879 230.806 26.5327C230.806 26.4523 230.806 26.3719 230.806 26.2915V26.211V25.6482V24.603V24.2814V23.7186C230.806 20.2613 229.92 19.6181 228.148 19.1357C227.101 18.8945 224.444 18.8141 223.638 18.8141H222.591H221.786H221.383V12.3819H222.591H226.215C228.068 12.3819 232.819 12.7839 235.074 13.3467C238.94 14.392 242 16.402 242 24.0402V24.603V26.6131V28.8643C242 34.5729 239.02 36.5829 235.155 37.4673C232.9 37.9497 225.652 38.3518 224.927 38.3518H222.591H221.383ZM221.383 12.3819V18.8141H220.9H220.095H219.048C218.243 18.8141 215.505 18.8141 214.538 19.1357C212.766 19.6181 211.881 20.3417 211.881 23.7186V24.2814V24.603V25.6482V26.211V26.2915V26.3719C211.961 29.4271 212.847 30.0703 214.538 30.5528C215.585 30.8744 218.243 30.8744 219.048 30.8744H220.095H220.9H221.383V38.1909H220.175H217.84C217.115 38.1909 209.867 37.7889 207.612 37.3065C203.747 36.4221 200.767 34.4121 200.767 28.7035V26.4523V24.4422V23.8794C200.767 16.2412 203.908 14.2311 207.693 13.1859C209.948 12.6231 214.699 12.2211 216.552 12.2211H220.175L221.383 12.3819ZM179.426 36.1809V35.3769V35.2965V21.2261C179.748 20.9045 179.99 20.2613 180.151 19.4573V14.7136C180.151 14.3116 180.715 13.9899 181.117 13.9899H185.708H190.298C190.701 13.9899 191.264 14.3116 191.264 14.7136L191.184 25.407L191.264 36.1005C191.264 36.5025 190.701 36.8241 190.298 36.8241H185.385H180.473C179.99 36.8241 179.507 36.5025 179.426 36.1809ZM179.426 35.2161V35.3769V35.2161ZM106.625 16.804V14.7136C106.625 14.3116 107.188 13.9899 107.591 13.9899H112.262H116.933C117.336 13.9899 117.899 14.3116 117.899 14.7136L117.819 25.407L117.899 36.1005C117.819 36.5025 117.336 36.8241 116.933 36.8241H112.262H107.591C107.188 36.8241 106.625 36.5025 106.625 36.1005V33.2864C106.544 32.5628 106.464 31.8392 106.464 31.0352C106.383 30.0703 105.658 29.2663 104.531 29.1055C102.598 29.1055 100.585 29.1055 98.652 29.1055C96.7193 29.1055 94.7059 29.1055 92.7732 29.1055C91.6457 29.2663 90.9209 30.0703 90.8404 31.0352C90.8404 31.6784 90.7599 32.2412 90.6793 32.804V36.1005C90.5988 36.5025 90.1156 36.8241 89.7129 36.8241H85.0421H80.3712C79.9685 36.8241 79.4048 36.5025 79.4048 36.1005L79.4853 25.407L79.4048 14.7136C79.4853 14.3116 79.9685 13.9899 80.3712 13.9899H85.0421H89.7129C90.1156 13.9899 90.6793 14.3116 90.6793 14.7136V18.8141C90.8404 20.3417 92.3705 21.2261 93.9006 21.1457H96.1555H100.987H103.242C104.934 21.2261 106.625 20.1809 106.464 18.3317C106.544 17.608 106.625 17.206 106.625 16.804ZM179.426 21.2261V35.2161V35.3769V36.1809V35.6181C179.426 33.4472 175.399 31.1156 172.098 29.0251C166.944 25.7286 163.078 23.7186 162.675 28.2211C162.675 28.1407 162.675 28.0603 162.675 27.9799L162.756 36.1809C162.756 36.5829 162.192 36.9045 161.789 36.9045H157.038H152.287C151.884 36.9045 151.32 36.5829 151.32 36.1809L151.401 25.4874L151.32 14.794C151.401 14.392 151.884 14.0703 152.287 14.0703H157.038H161.789C162.917 14.0703 164.93 15.0352 167.266 16.1608C169.521 17.206 172.178 18.4925 173.869 19.6181C177.01 21.5477 178.54 22.1909 179.426 21.2261ZM128.771 25.407L128.691 14.7136C128.691 14.3116 129.254 13.9899 129.657 13.9899H134.65H139.643C140.046 13.9899 140.609 14.3116 140.609 14.7136L140.529 25.407L140.609 36.1005C140.529 36.5025 140.046 36.8241 139.643 36.8241H134.65H129.657C129.254 36.8241 128.691 36.5025 128.691 36.1005L128.771 25.407Z" fill="black"/>
</g>
<defs>
<clipPath id="clip0_201_5162">
<rect width="242" height="48" fill="white"/>
</clipPath>
</defs>
</svg>
