<svg width="110" height="18" viewBox="0 0 110 18" fill="none" xmlns="http://www.w3.org/2000/svg">
<path fill-rule="evenodd" clip-rule="evenodd" d="M16.3842 9.01615C17.6122 9.01615 18.8402 9.01615 20.0359 9.01615C20.4884 9.01615 20.9408 9.01615 21.3932 9.01615C21.8456 9.01615 22.2657 9.01615 22.6858 9.01615C23.2998 9.04847 24.0108 8.98384 24.4955 9.24236C24.7541 9.37163 24.851 9.56552 24.9156 9.88868C24.9156 9.921 24.9156 9.921 24.9156 9.95331C24.9156 10.3734 24.6248 10.8905 24.4309 11.2783C24.1401 11.86 23.6553 12.377 23.1706 12.8618C22.3304 13.6697 20.6822 14.6068 18.9372 15.0592C18.711 15.1239 18.4201 15.2208 18.1616 15.2855C17.9677 15.3178 18.0323 15.4147 18.1616 15.4147C18.4524 15.3824 18.7433 15.3178 19.0018 15.2531C21.0054 14.7684 22.4273 13.9605 23.3968 13.2172C23.9785 12.7648 24.5925 12.1185 24.9803 11.4075C25.2388 10.9551 25.5296 10.1795 25.562 9.921C25.6266 9.56552 25.6589 9.37163 25.6589 8.78994C25.6266 7.82046 25.3034 7.04488 24.7541 6.14003C24.7217 6.0754 24.6571 6.01077 24.6248 5.94613C24.5925 5.91382 24.5925 5.8815 24.5925 5.81687C24.6571 5.78455 24.7217 5.84919 24.7541 5.91382C25.2065 6.43087 25.465 6.8833 25.7235 7.40035C26.0467 8.1113 26.1436 8.62836 26.176 9.24236C26.176 9.37163 26.3052 9.43626 26.3375 9.21005C26.3699 8.53141 26.2406 7.82046 25.9498 7.20646C25.6266 6.49551 25.3034 6.0754 24.851 5.52603C24.334 4.97665 23.6876 4.4596 23.0736 4.03949C22.1042 3.39317 21.07 2.97306 20.0036 2.68222C19.5512 2.55296 19.0988 2.45601 18.6463 2.39138C18.5171 2.35906 18.3555 2.39138 18.1939 2.35906C18.097 2.35906 17.9677 2.45601 18.1939 2.52064C18.4848 2.58527 18.7433 2.6499 19.0341 2.74685C20.1006 3.07001 21.167 3.49012 22.1042 4.10412C22.8797 4.62118 23.2675 4.87971 24.2047 6.04308C24.3016 6.20466 24.5602 6.59245 24.6894 6.91561C24.7864 7.14183 24.9156 7.4973 24.9156 7.75583C24.8833 8.01436 24.8187 8.17594 24.6248 8.3052C24.2047 8.56373 23.8492 8.56373 23.2675 8.59604C22.8474 8.59604 22.4596 8.62836 22.0395 8.62836C21.4255 8.62836 20.8438 8.62836 20.2298 8.66068C18.9372 8.66068 17.6445 8.66068 16.3519 8.69299H16.0934V8.56373H16.3519C17.2244 8.56373 18.097 8.56373 18.9372 8.56373C19.5512 8.56373 20.1652 8.53141 20.8115 8.53141C21.3609 8.53141 21.9103 8.4991 22.4919 8.46678C23.009 8.43446 23.7523 8.33752 23.8492 8.27288C23.9462 8.20825 23.9138 8.1113 23.8169 8.07899C23.6876 7.98204 23.5584 7.91741 23.4291 7.85278C23.3645 7.82046 23.2675 7.85278 23.2352 7.88509C23.1383 7.98204 23.0736 7.98204 22.9444 8.04667C22.4273 8.17594 22.0718 8.24057 21.3609 8.3052C20.8438 8.33752 20.3268 8.36983 19.842 8.40215C18.6787 8.43446 17.9677 8.43446 16.3842 8.43446H16.1257V8.07899H16.3519C18.1293 8.07899 20.0036 8.1113 21.7487 7.91741C22.6212 7.82046 22.8797 7.36804 22.9121 7.04488C23.0413 6.04308 21.5225 4.71813 20.7469 4.29802C19.7128 3.74865 18.7433 3.29622 17.483 2.94075C17.3214 2.90843 17.2244 2.71454 17.2244 2.58527C17.2244 2.45601 17.4183 2.29443 17.5476 2.26211C17.9354 2.16516 18.3555 2.19748 18.7756 2.26211C19.4542 2.35906 20.0682 2.48832 20.7146 2.68222C21.5871 2.94075 22.5243 3.39317 23.3322 3.91023C24.3986 4.58886 25.3034 5.42908 25.9821 6.46319C26.4345 7.20646 26.79 8.17594 26.79 8.98384C26.79 9.98563 26.4022 10.9874 25.8528 11.86C25.3034 12.7002 24.5602 13.3788 23.7523 13.9605C23.009 14.5099 22.1688 14.8977 21.3286 15.2208C20.5853 15.5117 19.8097 15.6732 19.0341 15.8025C18.5494 15.8671 18.0647 15.8995 17.5476 15.8348C17.4183 15.8025 17.1921 15.6732 17.1921 15.544C17.1921 15.3824 17.2891 15.2208 17.4183 15.1885C17.8384 15.0592 18.5171 14.833 19.0341 14.6391C19.6805 14.3483 20.3268 14.0898 20.9085 13.702C21.4901 13.3142 22.0395 12.8618 22.4273 12.3447C22.6535 12.0539 22.8474 11.6337 22.8797 11.3429C22.8797 11.149 22.8797 10.9228 22.7828 10.7612C22.395 10.1472 21.3609 10.1795 20.553 10.1149C19.8743 10.0179 19.1634 10.0179 18.4524 10.0179C17.7415 9.98563 16.869 9.98563 16.1257 9.98563V9.01615H16.3842ZM16.1257 8.69299H15.9641C14.6392 8.69299 13.3142 8.69299 11.9892 8.66068C11.3752 8.66068 10.7936 8.66068 10.1796 8.62836C9.75945 8.62836 9.37165 8.62836 8.95155 8.59604C8.36986 8.56373 8.01438 8.56373 7.59428 8.3052C7.40038 8.17594 7.33575 8.01436 7.30343 7.75583C7.30343 7.4973 7.4327 7.14183 7.52964 6.91561C7.65891 6.59245 7.91744 6.20466 8.01438 6.04308C8.95155 4.87971 9.30702 4.62118 10.1149 4.10412C11.0521 3.49012 12.1185 3.07001 13.1849 2.74685C13.4758 2.6499 13.7343 2.58527 14.0252 2.52064C14.2191 2.45601 14.1221 2.35906 14.0252 2.35906C13.8959 2.35906 13.7343 2.35906 13.5727 2.39138C13.1203 2.45601 12.6356 2.55296 12.2155 2.68222C11.1167 3.00538 10.1149 3.42549 9.14544 4.03949C8.49912 4.4596 7.88512 4.97665 7.36806 5.52603C6.94796 6.0754 6.59248 6.46319 6.26932 7.20646C6.01079 7.82046 5.84921 8.53141 5.88153 9.21005C5.88153 9.40394 6.01079 9.33931 6.04311 9.24236C6.10774 8.62836 6.17237 8.1113 6.49553 7.40035C6.75406 6.85098 7.01259 6.43087 7.46501 5.91382C7.49733 5.8815 7.59428 5.81687 7.62659 5.81687C7.65891 5.8815 7.62659 5.91382 7.59428 5.94613C7.56196 6.01077 7.49733 6.0754 7.46501 6.14003C6.88332 7.04488 6.59248 7.82046 6.56016 8.78994C6.56016 9.37163 6.59248 9.56552 6.65711 9.921C6.68943 10.2118 6.98027 10.9551 7.2388 11.4075C7.62659 12.0862 8.2406 12.7325 8.82228 13.2172C9.79176 13.9928 11.1813 14.7684 13.2173 15.2531C13.4758 15.3178 13.7666 15.3824 14.0575 15.4147C14.1867 15.4147 14.2514 15.3178 14.0575 15.2855C13.7989 15.2208 13.5081 15.1239 13.2819 15.0592C11.5368 14.6068 9.88871 13.6697 9.04849 12.8618C8.56376 12.377 8.07902 11.86 7.78817 11.2783C7.59428 10.8905 7.33575 10.3734 7.30343 9.95331C7.30343 9.95331 7.30343 9.921 7.30343 9.88868C7.36806 9.59784 7.4327 9.40394 7.72354 9.24236C8.2406 8.98384 8.95155 9.04847 9.56555 9.01615C10.018 9.01615 10.4381 9.01615 10.8582 9.01615C11.3106 9.01615 11.763 9.01615 12.2155 9.01615C13.4758 9.01615 14.7038 9.01615 15.9641 9.01615H16.1257V9.98563C15.3824 9.98563 14.5422 9.98563 13.7989 10.0179C13.088 10.0503 12.377 10.0503 11.6338 10.0826C10.8582 10.1149 9.79176 10.0826 9.40397 10.7289C9.30702 10.8905 9.30702 11.1167 9.30702 11.3106C9.33934 11.6014 9.53323 12.0215 9.75945 12.3124C10.1472 12.8618 10.6966 13.3142 11.2783 13.6697C11.86 14.0574 12.5063 14.3483 13.1526 14.6068C13.6697 14.833 14.3483 15.0269 14.7684 15.1562C14.8977 15.1885 15.027 15.3824 14.9946 15.5117C14.9946 15.6409 14.7684 15.8025 14.6392 15.8025C14.1544 15.8995 13.6697 15.8671 13.1526 15.7702C12.377 15.6409 11.6015 15.4793 10.8582 15.1885C10.018 14.8653 9.17776 14.4452 8.43449 13.9282C7.62659 13.3465 6.88332 12.6679 6.33395 11.8276C5.78458 10.9551 5.39679 9.95332 5.39679 8.95152C5.39679 8.14362 5.75227 7.17414 6.20469 6.43087C6.88332 5.36445 7.78817 4.52423 8.8546 3.87791C9.6625 3.36086 10.5997 2.90843 11.4722 2.6499C12.1185 2.45601 12.7648 2.32674 13.4112 2.2298C13.8313 2.16516 14.2514 2.13285 14.6392 2.2298C14.7684 2.26211 14.9623 2.42369 14.9623 2.55296C14.9623 2.71454 14.8654 2.87612 14.7038 2.94075C13.4435 3.26391 12.474 3.74865 11.4399 4.29802C10.6643 4.71813 9.17776 6.04308 9.27471 7.04488C9.30702 7.33572 9.56555 7.82046 10.4381 7.91741C12.2801 8.1113 14.1544 8.07899 15.9641 8.07899H16.158V8.33752H15.9641C14.316 8.33752 13.605 8.33752 12.4417 8.3052C11.9246 8.3052 11.4076 8.27288 10.9228 8.20825C10.2442 8.14362 9.85639 8.1113 9.33934 7.94972C9.21007 7.91741 9.14544 7.88509 9.04849 7.78814C8.98386 7.75583 8.91923 7.72351 8.8546 7.75583C8.72533 7.82046 8.56376 7.88509 8.46681 7.98204C8.40218 8.04667 8.36986 8.1113 8.43449 8.17594C8.56376 8.27288 9.27471 8.33752 9.79176 8.36983C10.3411 8.40215 10.8905 8.43446 11.4722 8.43446C12.0862 8.46678 12.7002 8.46678 13.3465 8.46678C14.2191 8.46678 15.0916 8.46678 15.9964 8.46678H16.1903V8.69299H16.1257Z" fill="white"/>
<path fill-rule="evenodd" clip-rule="evenodd" d="M95.4291 14.6068V11.2459H95.623H95.9785H96.4632C96.851 11.2459 98.079 11.2459 98.5637 11.1167C99.3393 10.8905 99.7594 10.5996 99.7917 9.21004C99.7917 9.17772 99.7917 9.14541 99.7917 9.11309V9.08077V8.7253V8.27287V8.11129V7.85277C99.7917 6.26928 99.3716 5.94612 98.5637 5.71991C98.1113 5.59065 96.851 5.59065 96.4632 5.59065H95.9785H95.623H95.4291V2.61758H95.9785H97.6266C98.4668 2.61758 100.697 2.81147 101.698 3.07C103.476 3.55474 104.898 4.4919 104.898 8.01435V8.27287V9.21004V10.2441C104.898 12.8617 103.54 13.7989 101.731 14.1867C100.697 14.4129 97.3357 14.6068 97.0126 14.6068H95.9461H95.4291ZM95.4291 2.61758V5.59065H95.2352H94.8797H94.3627C93.9749 5.59065 92.7469 5.59065 92.2621 5.71991C91.4542 5.94612 91.0341 6.26928 91.0341 7.85277V8.11129V8.27287V8.7253V8.98383V9.04846V9.11309C91.0664 10.535 91.4865 10.8258 92.2621 11.0197C92.7145 11.149 93.9749 11.149 94.3627 11.149H94.8474H95.2029H95.3968V14.5099H94.8474H93.781C93.4578 14.5099 90.0969 14.316 89.0628 14.0898C87.2855 13.702 85.8959 12.7648 85.8959 10.1472V9.11309V8.17593V7.9174C85.8959 4.39496 87.3501 3.45779 89.0952 2.97305C90.1293 2.68221 92.3267 2.52063 93.167 2.52063H94.8151H95.4291V2.61758ZM76.0718 13.605V13.2172V13.1849V6.72171C76.2011 6.56013 76.3303 6.3016 76.395 5.91381V3.71632C76.4273 3.55474 76.6535 3.39316 76.8474 3.39316H78.9802H81.1131C81.307 3.39316 81.5655 3.55474 81.5655 3.71632L81.5332 8.66067L81.5655 13.605C81.5332 13.7666 81.307 13.9282 81.1131 13.9282H78.8187H76.5242C76.3627 13.8959 76.1041 13.7666 76.0718 13.605ZM76.0718 13.2172V13.1849V13.2172ZM42.5278 4.6858V3.71632C42.5601 3.55474 42.7864 3.39316 42.9802 3.39316H45.1454H47.3106C47.5045 3.39316 47.763 3.55474 47.763 3.71632L47.7307 8.66067L47.763 13.605C47.7307 13.7666 47.5045 13.9282 47.3106 13.9282H45.1454H42.9802C42.7864 13.9282 42.5278 13.7666 42.5278 13.605V12.2801C42.4955 11.9569 42.4632 11.6337 42.4309 11.2459C42.3986 10.7935 42.0754 10.438 41.5583 10.3734C40.6535 10.3734 39.7487 10.3734 38.8438 10.3734C37.939 10.3734 37.0341 10.3734 36.1293 10.3734C35.6122 10.4704 35.2567 10.7935 35.2567 11.2459C35.2567 11.5368 35.2244 11.7953 35.1921 12.0538V13.5727C35.1598 13.7343 34.9336 13.8959 34.7397 13.8959H32.5745H30.4093C30.2154 13.8959 29.9569 13.7343 29.9569 13.5727L29.9892 8.62835L29.9569 3.684C29.9892 3.52243 30.2154 3.36085 30.4093 3.36085H32.5745H34.7397C34.9336 3.36085 35.1921 3.52243 35.1921 3.684V5.55833C35.2567 6.26928 35.9677 6.65708 36.6786 6.65708H37.7127H39.9425H40.9767C41.7846 6.68939 42.5278 6.20465 42.4632 5.36444C42.5278 5.04128 42.5278 4.84738 42.5278 4.6858ZM76.0718 6.72171V13.1849V13.2172V13.605V13.5727V13.3142C76.0718 12.3124 74.1975 11.2459 72.6786 10.2765C70.3196 8.75761 68.5099 7.82045 68.3483 9.92099C68.3483 9.88867 68.3483 9.85636 68.3483 9.82404L68.3806 13.605C68.3483 13.7666 68.1221 13.9282 67.9282 13.9282H65.7307H63.5332C63.3393 13.9282 63.1131 13.7666 63.0808 13.605L63.1131 8.66067L63.0808 3.71632C63.1131 3.55474 63.3393 3.39316 63.5332 3.39316H65.7307H67.9282C68.4452 3.39316 69.3501 3.81327 70.4488 4.33032C71.4829 4.81506 72.7109 5.42907 73.4865 5.91381C74.9731 6.85097 75.684 7.17413 76.0718 6.72171ZM52.7397 8.62835L52.7074 3.684C52.7397 3.52243 52.9659 3.36085 53.1598 3.36085H55.4865H57.8133C58.0072 3.36085 58.2657 3.52243 58.2657 3.684L58.2334 8.62835L58.2657 13.5727C58.2334 13.7343 58.0072 13.8959 57.8133 13.8959H55.4865H53.1598C52.9659 13.8959 52.7074 13.7343 52.7074 13.5727L52.7397 8.62835Z" fill="white"/>
</svg>
