<svg width="245" height="44" viewBox="0 0 245 44" fill="none" xmlns="http://www.w3.org/2000/svg">
<path d="M1.36108 21.7027V0.297297H5.96389V21.7027H1.36108ZM15.2891 21.7027V0.297297H19.8919V21.7027H15.2891ZM3.51305 8.8H17.3812V12.3081H3.51305V8.8Z" fill="#0A0A0A"/>
<path d="M23.7692 21.7027V0.297297H28.372V21.7027H23.7692Z" fill="#0A0A0A"/>
<path d="M32.2547 21.7027V0.297297H38.2024L47.7667 19.2054L46.3022 19.5622V0.297297H50.7854V21.7027H44.8377L35.2734 2.79459L36.7379 2.43784V21.7027H32.2547Z" fill="#0A0A0A"/>
<path d="M65.0938 22C63.4998 22 62.0253 21.7324 60.6703 21.1973C59.3353 20.6622 58.1697 19.909 57.1734 18.9378C56.197 17.9468 55.4299 16.7775 54.872 15.4297C54.334 14.0622 54.065 12.5559 54.065 10.9108C54.065 8.73063 54.5332 6.82793 55.4697 5.2027C56.4062 3.55766 57.7014 2.27928 59.3552 1.36757C61.029 0.455856 62.9319 0 65.0639 0C67.2358 0 69.1487 0.455856 70.8025 1.36757C72.4563 2.27928 73.7515 3.55766 74.688 5.2027C75.6444 6.84775 76.1226 8.76036 76.1226 10.9405C76.1226 12.5658 75.8436 14.0622 75.2857 15.4297C74.7477 16.7775 73.9806 17.9468 72.9843 18.9378C72.008 19.909 70.8423 20.6622 69.4874 21.1973C68.1524 21.7324 66.6878 22 65.0938 22ZM65.0639 18.373C66.3192 18.373 67.4251 18.0559 68.3815 17.4216C69.3379 16.7874 70.0852 15.9153 70.6231 14.8054C71.1811 13.6757 71.46 12.3676 71.46 10.8811C71.46 9.41441 71.191 8.13604 70.653 7.04595C70.115 5.95586 69.3678 5.11351 68.4114 4.51892C67.455 3.92432 66.3391 3.62703 65.0639 3.62703C63.8086 3.62703 62.7027 3.92432 61.7463 4.51892C60.7899 5.11351 60.0427 5.95586 59.5047 7.04595C58.9866 8.11622 58.7276 9.3946 58.7276 10.8811C58.7276 12.3874 58.9966 13.7054 59.5346 14.8351C60.0726 15.945 60.8198 16.8171 61.7762 17.4514C62.7326 18.0658 63.8285 18.373 65.0639 18.373Z" fill="#0A0A0A"/>
<path d="M78.9459 15.4V11.8324H89.885V15.4H78.9459Z" fill="#0A0A0A"/>
<path d="M103.541 22C101.987 22 100.553 21.7324 99.2375 21.1973C97.9224 20.6423 96.7767 19.8694 95.8003 18.8784C94.8439 17.8874 94.0967 16.718 93.5587 15.3703C93.0207 14.0027 92.7517 12.5162 92.7517 10.9108C92.7517 9.3054 93.0108 7.83874 93.5288 6.51081C94.0668 5.18288 94.814 4.03333 95.7704 3.06216C96.7468 2.07117 97.8925 1.31802 99.2076 0.802703C100.523 0.267568 101.967 0 103.541 0C105.315 0 106.909 0.346847 108.324 1.04054C109.758 1.71441 110.924 2.67568 111.821 3.92432C112.737 5.15315 113.295 6.6 113.494 8.26486H109.011C108.752 6.73874 108.124 5.58919 107.128 4.81622C106.132 4.02342 104.946 3.62703 103.571 3.62703C102.356 3.62703 101.28 3.91441 100.343 4.48919C99.4268 5.06396 98.7095 5.8964 98.1914 6.98649C97.6733 8.05676 97.4143 9.35495 97.4143 10.8811C97.4143 12.427 97.6733 13.7649 98.1914 14.8946C98.7294 16.0045 99.4666 16.8667 100.403 17.4811C101.34 18.0757 102.416 18.373 103.631 18.373C104.926 18.373 106.072 17.9865 107.068 17.2135C108.065 16.4405 108.712 15.291 109.011 13.7649H113.554C113.295 15.4297 112.707 16.8865 111.791 18.1351C110.874 19.364 109.708 20.3153 108.294 20.9892C106.879 21.6631 105.295 22 103.541 22Z" fill="#0A0A0A"/>
<path d="M127.093 22C125.499 22 124.025 21.7324 122.67 21.1973C121.335 20.6622 120.169 19.909 119.173 18.9378C118.197 17.9468 117.43 16.7775 116.872 15.4297C116.334 14.0622 116.065 12.5559 116.065 10.9108C116.065 8.73063 116.533 6.82793 117.469 5.2027C118.406 3.55766 119.701 2.27928 121.355 1.36757C123.029 0.455856 124.932 0 127.064 0C129.235 0 131.148 0.455856 132.802 1.36757C134.456 2.27928 135.751 3.55766 136.688 5.2027C137.644 6.84775 138.122 8.76036 138.122 10.9405C138.122 12.5658 137.843 14.0622 137.285 15.4297C136.747 16.7775 135.98 17.9468 134.984 18.9378C134.008 19.909 132.842 20.6622 131.487 21.1973C130.152 21.7324 128.688 22 127.093 22ZM127.064 18.373C128.319 18.373 129.425 18.0559 130.381 17.4216C131.338 16.7874 132.085 15.9153 132.623 14.8054C133.181 13.6757 133.46 12.3676 133.46 10.8811C133.46 9.41441 133.191 8.13604 132.653 7.04595C132.115 5.95586 131.367 5.11351 130.411 4.51892C129.455 3.92432 128.339 3.62703 127.064 3.62703C125.808 3.62703 124.702 3.92432 123.746 4.51892C122.79 5.11351 122.042 5.95586 121.504 7.04595C120.986 8.11622 120.727 9.3946 120.727 10.8811C120.727 12.3874 120.996 13.7054 121.534 14.8351C122.072 15.945 122.819 16.8171 123.776 17.4514C124.732 18.0658 125.828 18.373 127.064 18.373Z" fill="#0A0A0A"/>
<path d="M141.406 21.7027V0.297297H147.353L156.918 19.2054L155.453 19.5622V0.297297H159.936V21.7027H153.989L144.424 2.79459L145.889 2.43784V21.7027H141.406Z" fill="#0A0A0A"/>
<path d="M163.814 21.7027V0.297297H169.761L179.326 19.2054L177.861 19.5622V0.297297H182.344V21.7027H176.397L166.832 2.79459L168.297 2.43784V21.7027H163.814Z" fill="#0A0A0A"/>
<path d="M186.222 21.7027V0.297297H190.825V21.7027H186.222ZM188.374 21.7027V18.1946H202.242V21.7027H188.374ZM188.374 12.4865V9.03784H201.196V12.4865H188.374ZM188.374 3.8054V0.297297H201.883V3.8054H188.374Z" fill="#0A0A0A"/>
<path d="M215.202 22C213.648 22 212.214 21.7324 210.899 21.1973C209.583 20.6423 208.438 19.8694 207.461 18.8784C206.505 17.8874 205.758 16.718 205.22 15.3703C204.682 14.0027 204.413 12.5162 204.413 10.9108C204.413 9.3054 204.672 7.83874 205.19 6.51081C205.728 5.18288 206.475 4.03333 207.431 3.06216C208.408 2.07117 209.554 1.31802 210.869 0.802703C212.184 0.267568 213.628 0 215.202 0C216.976 0 218.57 0.346847 219.985 1.04054C221.419 1.71441 222.585 2.67568 223.482 3.92432C224.398 5.15315 224.956 6.6 225.155 8.26486H220.672C220.413 6.73874 219.785 5.58919 218.789 4.81622C217.793 4.02342 216.607 3.62703 215.232 3.62703C214.017 3.62703 212.941 3.91441 212.004 4.48919C211.088 5.06396 210.37 5.8964 209.852 6.98649C209.334 8.05676 209.075 9.35495 209.075 10.8811C209.075 12.427 209.334 13.7649 209.852 14.8946C210.39 16.0045 211.128 16.8667 212.064 17.4811C213.001 18.0757 214.077 18.373 215.292 18.373C216.587 18.373 217.733 17.9865 218.729 17.2135C219.726 16.4405 220.373 15.291 220.672 13.7649H225.215C224.956 15.4297 224.368 16.8865 223.452 18.1351C222.535 19.364 221.369 20.3153 219.955 20.9892C218.54 21.6631 216.956 22 215.202 22Z" fill="#0A0A0A"/>
<path d="M233.373 21.7027V3.8054H226.35V0.297297H245V3.8054H237.976V21.7027H233.373Z" fill="#0A0A0A"/>
<path d="M0 35.0031H76.8934V39.2469H0V35.0031Z" fill="#B31312"/>
<path d="M87.2264 44V41.7083H90.7191C91.717 41.7083 92.5614 41.511 93.2523 41.1163C93.9559 40.7089 94.4868 40.1551 94.8451 39.4549C95.2161 38.7546 95.4016 37.9525 95.4016 37.0486C95.4016 36.1574 95.2225 35.3744 94.8643 34.6997C94.506 34.0249 93.9751 33.4965 93.2714 33.1146C92.5806 32.7326 91.7298 32.5417 90.7191 32.5417H87.284V30.25H90.7191C92.2671 30.25 93.6169 30.5301 94.7683 31.0903C95.9197 31.6377 96.8089 32.4271 97.4358 33.4583C98.0755 34.4769 98.3953 35.6863 98.3953 37.0868C98.3953 38.4873 98.0755 39.7095 97.4358 40.7535C96.7961 41.7847 95.9006 42.5868 94.7491 43.1597C93.6105 43.7199 92.2735 44 90.7383 44H87.2264ZM85.4225 44V30.25H88.3778V44H85.4225Z" fill="#B31312"/>
<path d="M100.427 44V30.25H106.606C107.604 30.25 108.474 30.4219 109.216 30.7656C109.958 31.0966 110.534 31.5677 110.943 32.1788C111.353 32.7899 111.557 33.5029 111.557 34.3177C111.557 35.1198 111.353 35.8264 110.943 36.4375C110.534 37.0359 109.958 37.5069 109.216 37.8507C108.474 38.1817 107.604 38.3472 106.606 38.3472H102.768V36.1892H106.529C107.233 36.1892 107.77 36.0301 108.141 35.7118C108.525 35.3808 108.717 34.9225 108.717 34.3368C108.717 33.7384 108.532 33.2865 108.161 32.9809C107.79 32.6626 107.246 32.5035 106.529 32.5035H103.382V44H100.427ZM108.218 44L102.672 36.8576H105.8L112.21 44H108.218Z" fill="#B31312"/>
<path d="M113.898 44V30.25H116.853V44H113.898Z" fill="#B31312"/>
<path d="M123.799 44L118.847 30.25H121.918L125.698 41.7083H125.334L129.134 30.25H132.051L127.099 44H123.799Z" fill="#B31312"/>
<path d="M134.053 44V30.25H137.008V44H134.053ZM135.434 44V41.7465H144.339V44H135.434ZM135.434 38.0799V35.8646H143.667V38.0799H135.434ZM135.434 32.5035V30.25H144.109V32.5035H135.434Z" fill="#B31312"/>
<path d="M146.433 44V30.25H152.613C153.611 30.25 154.481 30.4219 155.223 30.7656C155.965 31.0966 156.54 31.5677 156.95 32.1788C157.359 32.7899 157.564 33.5029 157.564 34.3177C157.564 35.1198 157.359 35.8264 156.95 36.4375C156.54 37.0359 155.965 37.5069 155.223 37.8507C154.481 38.1817 153.611 38.3472 152.613 38.3472H148.775V36.1892H152.536C153.24 36.1892 153.777 36.0301 154.148 35.7118C154.532 35.3808 154.724 34.9225 154.724 34.3368C154.724 33.7384 154.538 33.2865 154.167 32.9809C153.796 32.6626 153.252 32.5035 152.536 32.5035H149.389V44H146.433ZM154.225 44L148.679 36.8576H151.807L158.216 44H154.225Z" fill="#B31312"/>
<path d="M166.745 35.0031H243.639V39.2469H166.745V35.0031Z" fill="#B31312"/>
</svg>
