<svg width="32" height="32" viewBox="0 0 32 32" fill="none" xmlns="http://www.w3.org/2000/svg">
<path d="M18 5.33327C19.7765 5.3333 21.5281 5.75095 23.1134 6.55251C24.6988 7.35406 26.0735 8.51708 27.1267 9.94771C28.1799 11.3783 28.882 13.0365 29.1764 14.7884C29.4708 16.5403 29.3492 18.3369 28.8215 20.0332C28.2938 21.7295 27.3747 23.278 26.1384 24.5537C24.9022 25.8294 23.3833 26.7967 21.7044 27.3773C20.0255 27.958 18.2336 28.1359 16.4733 27.8967C14.713 27.6574 13.0336 27.0077 11.5707 25.9999H2.336C2.08263 25.9999 1.83874 25.9036 1.65361 25.7306C1.46848 25.5577 1.3559 25.3209 1.33863 25.0681C1.32136 24.8153 1.40069 24.5654 1.56058 24.3689C1.72047 24.1723 1.949 24.0438 2.2 24.0093L2.336 23.9999L9.36 24.0013C8.8357 23.3851 8.37887 22.7147 7.99733 22.0013L4.996 21.9999C4.74263 21.9999 4.49874 21.9036 4.31361 21.7306C4.12848 21.5577 4.0159 21.3209 3.99863 21.0681C3.98136 20.8153 4.06069 20.5654 4.22058 20.3689C4.38047 20.1723 4.609 20.0438 4.86 20.0093L4.996 19.9999L7.16533 20.0013C6.83377 18.9208 6.66569 17.7968 6.66667 16.6666C6.66667 13.8706 7.68 11.3093 9.35867 9.33327H3.66667C3.4133 9.33319 3.16941 9.23694 2.98428 9.06397C2.79914 8.891 2.68657 8.6542 2.6693 8.40143C2.65203 8.14865 2.73135 7.89874 2.89124 7.7022C3.05113 7.50566 3.27967 7.37714 3.53067 7.3426L3.66667 7.33327H11.5693C13.4592 6.02734 15.7028 5.32957 18 5.33327ZM18 7.33327C15.5246 7.33327 13.1507 8.3166 11.4003 10.0669C9.65 11.8173 8.66667 14.1912 8.66667 16.6666C8.66667 19.142 9.65 21.5159 11.4003 23.2663C13.1507 25.0166 15.5246 25.9999 18 25.9999C20.4754 25.9999 22.8493 25.0166 24.5997 23.2663C26.35 21.5159 27.3333 19.142 27.3333 16.6666C27.3333 14.1912 26.35 11.8173 24.5997 10.0669C22.8493 8.3166 20.4754 7.33327 18 7.33327ZM18.004 9.33593C18.9673 9.33593 19.9211 9.52567 20.8111 9.8943C21.7011 10.2629 22.5097 10.8033 23.1909 11.4844C23.872 12.1656 24.4123 12.9742 24.781 13.8642C25.1496 14.7541 25.3393 15.708 25.3393 16.6713C25.3393 17.6346 25.1496 18.5884 24.781 19.4784C24.4123 20.3683 23.872 21.177 23.1909 21.8581C22.5097 22.5393 21.7011 23.0796 20.8111 23.4482C19.9211 23.8169 18.9673 24.0066 18.004 24.0066C16.0585 24.0066 14.1928 23.2338 12.8171 21.8581C11.4415 20.4825 10.6687 18.6167 10.6687 16.6713C10.6687 14.7258 11.4415 12.86 12.8171 11.4844C14.1928 10.1088 16.0585 9.33593 18.004 9.33593ZM19.5387 19.6213C19.066 19.8673 18.5412 19.9964 18.0083 19.9978C17.4754 19.9992 16.95 19.8728 16.476 19.6293L15.0147 21.0906C15.868 21.6679 16.896 22.0066 18.004 22.0066C19.116 22.0066 20.148 21.6666 21.0027 21.0853L19.5387 19.6213ZM12.6693 16.6706C12.6693 17.7853 13.0107 18.8213 13.596 19.6773L15.0533 18.2226C14.7996 17.7427 14.6668 17.2081 14.6667 16.6653C14.6667 16.1093 14.804 15.5853 15.0453 15.1253L13.5907 13.6719C12.9896 14.5569 12.6686 15.6008 12.6693 16.6706ZM22.424 13.6826L20.964 15.1426C21.1987 15.5986 21.332 16.1173 21.332 16.6666C21.332 17.2226 21.196 17.7466 20.9547 18.2079L22.4187 19.6706C23 18.8159 23.3387 17.7839 23.3387 16.6719C23.3387 15.5653 23.0013 14.5346 22.424 13.6826ZM18 15.3333C17.8201 15.3252 17.6404 15.3537 17.4717 15.417C17.3031 15.4803 17.1491 15.5771 17.0189 15.7016C16.8887 15.8261 16.7851 15.9757 16.7143 16.1413C16.6435 16.3069 16.6071 16.4852 16.6071 16.6653C16.6071 16.8454 16.6435 17.0236 16.7143 17.1893C16.7851 17.3549 16.8887 17.5044 17.0189 17.6289C17.1491 17.7534 17.3031 17.8502 17.4717 17.9135C17.6404 17.9768 17.8201 18.0053 18 17.9973C18.343 17.9819 18.6668 17.8349 18.904 17.5868C19.1413 17.3386 19.2737 17.0086 19.2737 16.6653C19.2737 16.322 19.1413 15.9919 18.904 15.7438C18.6668 15.4957 18.343 15.3486 18 15.3333ZM18.004 11.3359C16.9342 11.3352 15.889 11.6562 15.004 12.2573L16.4573 13.7106C16.9356 13.461 17.4673 13.3312 18.0068 13.3323C18.5463 13.3335 19.0775 13.4656 19.5547 13.7173L21.0107 12.2626C20.1244 11.6584 19.0766 11.3355 18.004 11.3359Z" fill="#EB1E2E"/>
</svg>
