<svg width="40" height="40" viewBox="0 0 40 40" fill="none" xmlns="http://www.w3.org/2000/svg">
<g filter="url(#filter0_d_501_5966)">
<rect x="4" y="4" width="32" height="32" rx="16" fill="white" shape-rendering="crispEdges"/>
<rect x="4.5" y="4.5" width="31" height="31" rx="15.5" stroke="#EDEDED" shape-rendering="crispEdges"/>
<path d="M21.25 13.3333C22.3603 13.3333 23.4551 13.5943 24.4459 14.0953C25.4368 14.5963 26.296 15.3231 26.9542 16.2173C27.6124 17.1114 28.0513 18.1478 28.2353 19.2427C28.4193 20.3377 28.3433 21.4605 28.0135 22.5207C27.6836 23.5809 27.1092 24.5487 26.3365 25.346C25.5639 26.1434 24.6146 26.7479 23.5653 27.1108C22.516 27.4737 21.396 27.5849 20.2958 27.4354C19.1957 27.2858 18.146 26.8798 17.2317 26.2499H11.46C11.3017 26.2499 11.1492 26.1897 11.0335 26.0816C10.9178 25.9735 10.8475 25.8255 10.8367 25.6675C10.8259 25.5095 10.8754 25.3534 10.9754 25.2305C11.0753 25.1077 11.2181 25.0273 11.375 25.0058L11.46 24.9999L15.85 25.0008C15.5223 24.6157 15.2368 24.1966 14.9983 23.7508L13.1225 23.7499C12.9642 23.7499 12.8117 23.6897 12.696 23.5816C12.5803 23.4735 12.51 23.3255 12.4992 23.1675C12.4884 23.0095 12.5379 22.8534 12.6379 22.7305C12.7378 22.6077 12.8806 22.5273 13.0375 22.5058L13.1225 22.4999L14.4783 22.5008C14.2711 21.8255 14.1661 21.123 14.1667 20.4166C14.1667 18.6691 14.8 17.0683 15.8492 15.8333H12.2917C12.1333 15.8332 11.9809 15.7731 11.8652 15.665C11.7495 15.5568 11.6791 15.4088 11.6683 15.2509C11.6575 15.0929 11.7071 14.9367 11.807 14.8138C11.907 14.691 12.0498 14.6107 12.2067 14.5891L12.2917 14.5833H17.2308C18.412 13.7671 19.8143 13.3309 21.25 13.3333ZM21.25 14.5833C19.7029 14.5833 18.2192 15.1978 17.1252 16.2918C16.0313 17.3858 15.4167 18.8695 15.4167 20.4166C15.4167 21.9637 16.0313 23.4474 17.1252 24.5414C18.2192 25.6353 19.7029 26.2499 21.25 26.2499C22.7971 26.2499 24.2808 25.6353 25.3748 24.5414C26.4688 23.4474 27.0833 21.9637 27.0833 20.4166C27.0833 18.8695 26.4688 17.3858 25.3748 16.2918C24.2808 15.1978 22.7971 14.5833 21.25 14.5833ZM21.2525 15.8349C21.8546 15.8349 22.4507 15.9535 23.007 16.1839C23.5632 16.4143 24.0686 16.752 24.4943 17.1777C24.92 17.6034 25.2577 18.1088 25.4881 18.6651C25.7185 19.2213 25.8371 19.8175 25.8371 20.4195C25.8371 21.0216 25.7185 21.6177 25.4881 22.174C25.2577 22.7302 24.92 23.2356 24.4943 23.6613C24.0686 24.087 23.5632 24.4247 23.007 24.6551C22.4507 24.8855 21.8546 25.0041 21.2525 25.0041C20.0366 25.0041 18.8705 24.5211 18.0107 23.6613C17.1509 22.8015 16.6679 21.6354 16.6679 20.4195C16.6679 19.2036 17.1509 18.0375 18.0107 17.1777C18.8705 16.3179 20.0366 15.8349 21.2525 15.8349ZM22.2117 22.2633C21.9163 22.417 21.5883 22.4977 21.2552 22.4986C20.9222 22.4995 20.5937 22.4205 20.2975 22.2683L19.3842 23.1816C19.9175 23.5424 20.56 23.7541 21.2525 23.7541C21.9475 23.7541 22.5925 23.5416 23.1267 23.1783L22.2117 22.2633ZM17.9183 20.4191C17.9183 21.1158 18.1317 21.7633 18.4975 22.2983L19.4083 21.3891C19.2497 21.0892 19.1668 20.755 19.1667 20.4158C19.1667 20.0683 19.2525 19.7408 19.4033 19.4533L18.4942 18.5449C18.1185 19.098 17.9179 19.7505 17.9183 20.4191ZM24.015 18.5516L23.1025 19.4641C23.2492 19.7491 23.3325 20.0733 23.3325 20.4166C23.3325 20.7641 23.2475 21.0916 23.0967 21.3799L24.0117 22.2941C24.375 21.7599 24.5867 21.1149 24.5867 20.4199C24.5867 19.7283 24.3758 19.0841 24.015 18.5516ZM21.25 19.5833C21.1376 19.5782 21.0252 19.596 20.9199 19.6356C20.8145 19.6752 20.7182 19.7357 20.6368 19.8135C20.5555 19.8913 20.4907 19.9848 20.4465 20.0883C20.4022 20.1918 20.3794 20.3032 20.3794 20.4158C20.3794 20.5283 20.4022 20.6397 20.4465 20.7433C20.4907 20.8468 20.5555 20.9402 20.6368 21.018C20.7182 21.0958 20.8145 21.1564 20.9199 21.1959C21.0252 21.2355 21.1376 21.2533 21.25 21.2483C21.4644 21.2387 21.6668 21.1468 21.815 20.9917C21.9633 20.8366 22.0461 20.6303 22.0461 20.4158C22.0461 20.2012 21.9633 19.9949 21.815 19.8398C21.6668 19.6848 21.4644 19.5929 21.25 19.5833ZM21.2525 17.0849C20.5839 17.0845 19.9306 17.2851 19.3775 17.6608L20.2858 18.5691C20.5848 18.4131 20.9171 18.332 21.2543 18.3327C21.5915 18.3334 21.9234 18.416 22.2217 18.5733L23.1317 17.6641C22.5778 17.2865 21.9229 17.0846 21.2525 17.0849Z" fill="#B31312"/>
</g>
<defs>
<filter id="filter0_d_501_5966" x="0" y="0" width="40" height="40" filterUnits="userSpaceOnUse" color-interpolation-filters="sRGB">
<feFlood flood-opacity="0" result="BackgroundImageFix"/>
<feColorMatrix in="SourceAlpha" type="matrix" values="0 0 0 0 0 0 0 0 0 0 0 0 0 0 0 0 0 0 127 0" result="hardAlpha"/>
<feOffset/>
<feGaussianBlur stdDeviation="2"/>
<feComposite in2="hardAlpha" operator="out"/>
<feColorMatrix type="matrix" values="0 0 0 0 0.332273 0 0 0 0 0.332273 0 0 0 0 0.332273 0 0 0 0.25 0"/>
<feBlend mode="normal" in2="BackgroundImageFix" result="effect1_dropShadow_501_5966"/>
<feBlend mode="normal" in="SourceGraphic" in2="effect1_dropShadow_501_5966" result="shape"/>
</filter>
</defs>
</svg>
