<svg width="280" height="280" viewBox="0 0 280 280" fill="none" xmlns="http://www.w3.org/2000/svg">
<path d="M23.3334 113.75C18.55 113.75 14.5834 109.783 14.5834 105V75.8333C14.5834 42 42.1167 14.5833 75.8334 14.5833H105C109.783 14.5833 113.75 18.55 113.75 23.3333C113.75 28.1167 109.783 32.0833 105 32.0833H75.8334C51.6834 32.0833 32.0834 51.6833 32.0834 75.8333V105C32.0834 109.783 28.1167 113.75 23.3334 113.75Z" fill="white"/>
<path d="M256.667 113.75C251.883 113.75 247.917 109.783 247.917 105V75.8333C247.917 51.6833 228.317 32.0833 204.167 32.0833H175C170.217 32.0833 166.25 28.1167 166.25 23.3333C166.25 18.55 170.217 14.5833 175 14.5833H204.167C237.883 14.5833 265.417 42 265.417 75.8333V105C265.417 109.783 261.45 113.75 256.667 113.75Z" fill="white"/>
<path d="M204.167 265.417H186.667C181.883 265.417 177.917 261.45 177.917 256.667C177.917 251.883 181.883 247.917 186.667 247.917H204.167C228.317 247.917 247.917 228.317 247.917 204.167V186.667C247.917 181.883 251.883 177.917 256.667 177.917C261.45 177.917 265.417 181.883 265.417 186.667V204.167C265.417 238 237.883 265.417 204.167 265.417Z" fill="white"/>
<path d="M105 265.417H75.8334C42.1167 265.417 14.5834 238 14.5834 204.167V175C14.5834 170.217 18.55 166.25 23.3334 166.25C28.1167 166.25 32.0834 170.217 32.0834 175V204.167C32.0834 228.317 51.6834 247.917 75.8334 247.917H105C109.783 247.917 113.75 251.883 113.75 256.667C113.75 261.45 109.783 265.417 105 265.417Z" fill="white"/>
</svg>
