<svg width="40" height="40" viewBox="0 0 40 40" fill="none" xmlns="http://www.w3.org/2000/svg">
<g filter="url(#filter0_d_501_5903)">
<rect x="4" y="4" width="32" height="32" rx="16" fill="#B31312" shape-rendering="crispEdges"/>
<rect x="4.5" y="4.5" width="31" height="31" rx="15.5" stroke="#EDEDED" shape-rendering="crispEdges"/>
<g clip-path="url(#clip0_501_5903)">
<path d="M20.0001 13.3333C21.7682 13.3333 23.4639 14.0356 24.7141 15.2859C25.9643 16.5361 26.6667 18.2318 26.6667 19.9999C26.6667 21.768 25.9643 23.4637 24.7141 24.714C23.4639 25.9642 21.7682 26.6666 20.0001 26.6666C18.2319 26.6666 16.5362 25.9642 15.286 24.714C14.0358 23.4637 13.3334 21.768 13.3334 19.9999C13.3334 18.2318 14.0358 16.5361 15.286 15.2859C16.5362 14.0356 18.2319 13.3333 20.0001 13.3333ZM12.6667 14.4999C12.731 14.4089 12.813 14.3318 12.9076 14.273C13.0023 14.2143 13.1078 14.1751 13.2179 14.1578C13.3279 14.1405 13.4403 14.1455 13.5485 14.1724C13.6566 14.1993 13.7582 14.2477 13.8473 14.3146C13.9364 14.3814 14.0112 14.4655 14.0673 14.5618C14.1233 14.6581 14.1595 14.7646 14.1737 14.8751C14.1878 14.9857 14.1797 15.0979 14.1497 15.2052C14.1198 15.3125 14.0686 15.4127 13.9992 15.4999C13.0235 16.797 12.4972 18.3768 12.5001 19.9999C12.5001 21.6891 13.0584 23.2458 13.9992 24.4999C14.1318 24.6767 14.1888 24.899 14.1575 25.1178C14.1263 25.3366 14.0094 25.534 13.8326 25.6666C13.6557 25.7992 13.4335 25.8561 13.2147 25.8249C12.9959 25.7936 12.7985 25.6767 12.6659 25.4999C11.4738 23.9143 10.8305 21.9836 10.8334 19.9999C10.8334 17.9374 11.5159 16.0316 12.6667 14.4999ZM26.1667 14.3333C26.3435 14.2006 26.5658 14.1437 26.7846 14.175C27.0034 14.2062 27.2008 14.3231 27.3334 14.4999C28.5258 16.0854 29.1694 18.0161 29.1667 19.9999C29.1667 22.0624 28.4842 23.9683 27.3334 25.4999C27.2691 25.5909 27.1871 25.668 27.0925 25.7268C26.9978 25.7856 26.8923 25.8247 26.7822 25.842C26.6722 25.8593 26.5598 25.8543 26.4516 25.8274C26.3435 25.8005 26.2419 25.7522 26.1528 25.6853C26.0637 25.6184 25.9889 25.5343 25.9328 25.438C25.8768 25.3418 25.8406 25.2352 25.8264 25.1247C25.8123 25.0142 25.8204 24.9019 25.8504 24.7946C25.8803 24.6873 25.9315 24.5871 26.0009 24.4999C26.9766 23.2028 27.503 21.623 27.5001 19.9999C27.5001 18.3108 26.9417 16.7541 26.0009 15.4999C25.8683 15.3231 25.8113 15.1009 25.8426 14.8821C25.8738 14.6633 25.9899 14.4659 26.1667 14.3333ZM20.0001 14.9999C18.674 14.9999 17.4022 15.5267 16.4645 16.4644C15.5268 17.4021 15.0001 18.6738 15.0001 19.9999C15.0001 21.326 15.5268 22.5978 16.4645 23.5355C17.4022 24.4731 18.674 24.9999 20.0001 24.9999C21.3261 24.9999 22.5979 24.4731 23.5356 23.5355C24.4733 22.5978 25.0001 21.326 25.0001 19.9999C25.0001 18.6738 24.4733 17.4021 23.5356 16.4644C22.5979 15.5267 21.3261 14.9999 20.0001 14.9999ZM20.0001 21.6666C20.2211 21.6666 20.433 21.7544 20.5893 21.9107C20.7456 22.0669 20.8334 22.2789 20.8334 22.4999C20.8334 22.7209 20.7456 22.9329 20.5893 23.0892C20.433 23.2455 20.2211 23.3333 20.0001 23.3333C19.779 23.3333 19.5671 23.2455 19.4108 23.0892C19.2545 22.9329 19.1667 22.7209 19.1667 22.4999C19.1667 22.2789 19.2545 22.0669 19.4108 21.9107C19.5671 21.7544 19.779 21.6666 20.0001 21.6666ZM20.0001 16.6666C20.2042 16.6666 20.4012 16.7415 20.5537 16.8772C20.7062 17.0128 20.8037 17.1997 20.8276 17.4024L20.8334 17.4999V19.9999C20.8331 20.2123 20.7518 20.4166 20.606 20.5711C20.4602 20.7255 20.2609 20.8184 20.0489 20.8309C19.8369 20.8433 19.6281 20.7744 19.4652 20.638C19.3023 20.5017 19.1976 20.3083 19.1726 20.0974L19.1667 19.9999V17.4999C19.1667 17.2789 19.2545 17.0669 19.4108 16.9107C19.5671 16.7544 19.779 16.6666 20.0001 16.6666Z" fill="white"/>
</g>
</g>
<defs>
<filter id="filter0_d_501_5903" x="0" y="0" width="40" height="40" filterUnits="userSpaceOnUse" color-interpolation-filters="sRGB">
<feFlood flood-opacity="0" result="BackgroundImageFix"/>
<feColorMatrix in="SourceAlpha" type="matrix" values="0 0 0 0 0 0 0 0 0 0 0 0 0 0 0 0 0 0 127 0" result="hardAlpha"/>
<feOffset/>
<feGaussianBlur stdDeviation="2"/>
<feComposite in2="hardAlpha" operator="out"/>
<feColorMatrix type="matrix" values="0 0 0 0 0.332273 0 0 0 0 0.332273 0 0 0 0 0.332273 0 0 0 0.25 0"/>
<feBlend mode="normal" in2="BackgroundImageFix" result="effect1_dropShadow_501_5903"/>
<feBlend mode="normal" in="SourceGraphic" in2="effect1_dropShadow_501_5903" result="shape"/>
</filter>
<clipPath id="clip0_501_5903">
<rect width="20" height="20" fill="white" transform="translate(10 10)"/>
</clipPath>
</defs>
</svg>
