<svg width="32" height="32" viewBox="0 0 32 32" fill="none" xmlns="http://www.w3.org/2000/svg">
<g clip-path="url(#clip0_302_13673)">
<path d="M16 5.33325C18.829 5.33325 21.5421 6.45706 23.5425 8.45745C25.5429 10.4578 26.6667 13.1709 26.6667 15.9999C26.6667 18.8289 25.5429 21.542 23.5425 23.5424C21.5421 25.5428 18.829 26.6666 16 26.6666C13.171 26.6666 10.4579 25.5428 8.45753 23.5424C6.45714 21.542 5.33333 18.8289 5.33333 15.9999C5.33333 13.1709 6.45714 10.4578 8.45753 8.45745C10.4579 6.45706 13.171 5.33325 16 5.33325ZM4.26667 7.19992C4.3696 7.05437 4.50067 6.93093 4.65213 6.83692C4.80359 6.7429 4.97237 6.68022 5.14849 6.65256C5.3246 6.62491 5.50447 6.63286 5.67745 6.67593C5.85044 6.719 6.01304 6.79633 6.15562 6.90333C6.2982 7.01034 6.41788 7.14485 6.50757 7.29891C6.59727 7.45297 6.65516 7.62346 6.67782 7.80028C6.70048 7.9771 6.68745 8.15668 6.6395 8.32838C6.59155 8.50008 6.50966 8.66042 6.39866 8.79992C4.83746 10.8752 3.99536 13.4029 4 15.9999C4 18.7026 4.89333 21.1933 6.39866 23.1999C6.61084 23.4828 6.70194 23.8384 6.65193 24.1885C6.60192 24.5385 6.4149 24.8544 6.132 25.0666C5.8491 25.2788 5.49351 25.3699 5.14344 25.3199C4.79337 25.2698 4.47751 25.0828 4.26533 24.7999C2.35794 22.263 1.3287 19.1739 1.33333 15.9999C1.33333 12.6999 2.42533 9.65059 4.26667 7.19992ZM25.8667 6.93325C26.1496 6.72108 26.5052 6.62998 26.8552 6.67999C27.2053 6.73 27.5212 6.91702 27.7333 7.19992C29.6412 9.73666 30.6709 12.8258 30.6667 15.9999C30.6667 19.2999 29.5747 22.3493 27.7333 24.7999C27.6304 24.9455 27.4993 25.0689 27.3479 25.1629C27.1964 25.2569 27.0276 25.3196 26.8515 25.3473C26.6754 25.3749 26.4955 25.367 26.3225 25.3239C26.1496 25.2808 25.987 25.2035 25.8444 25.0965C25.7018 24.9895 25.5821 24.855 25.4924 24.7009C25.4027 24.5469 25.3448 24.3764 25.3222 24.1996C25.2995 24.0227 25.3125 23.8432 25.3605 23.6715C25.4084 23.4998 25.4903 23.3394 25.6013 23.1999C27.1625 21.1246 28.0046 18.5969 28 15.9999C28 13.2973 27.1067 10.8066 25.6013 8.79992C25.3892 8.51702 25.2981 8.16142 25.3481 7.81136C25.3981 7.46129 25.5838 7.14542 25.8667 6.93325ZM16 7.99992C13.8783 7.99992 11.8434 8.84277 10.3431 10.3431C8.84285 11.8434 8 13.8782 8 15.9999C8 18.1217 8.84285 20.1565 10.3431 21.6568C11.8434 23.1571 13.8783 23.9999 16 23.9999C18.1217 23.9999 20.1566 23.1571 21.6569 21.6568C23.1571 20.1565 24 18.1217 24 15.9999C24 13.8782 23.1571 11.8434 21.6569 10.3431C20.1566 8.84277 18.1217 7.99992 16 7.99992ZM16 18.6666C16.3536 18.6666 16.6928 18.8071 16.9428 19.0571C17.1929 19.3072 17.3333 19.6463 17.3333 19.9999C17.3333 20.3535 17.1929 20.6927 16.9428 20.9427C16.6928 21.1928 16.3536 21.3333 16 21.3333C15.6464 21.3333 15.3072 21.1928 15.0572 20.9427C14.8071 20.6927 14.6667 20.3535 14.6667 19.9999C14.6667 19.6463 14.8071 19.3072 15.0572 19.0571C15.3072 18.8071 15.6464 18.6666 16 18.6666ZM16 10.6666C16.3266 10.6666 16.6418 10.7865 16.8858 11.0035C17.1299 11.2206 17.2858 11.5196 17.324 11.8439L17.3333 11.9999V15.9999C17.333 16.3398 17.2028 16.6666 16.9695 16.9137C16.7362 17.1609 16.4174 17.3096 16.0781 17.3295C15.7389 17.3494 15.4048 17.239 15.1442 17.0209C14.8836 16.8028 14.7161 16.4934 14.676 16.1559L14.6667 15.9999V11.9999C14.6667 11.6463 14.8071 11.3072 15.0572 11.0571C15.3072 10.8071 15.6464 10.6666 16 10.6666Z" fill="#EB1E2E"/>
</g>
<defs>
<clipPath id="clip0_302_13673">
<rect width="32" height="32" fill="white"/>
</clipPath>
</defs>
</svg>
