<svg width="56" height="56" viewBox="0 0 56 56" fill="none" xmlns="http://www.w3.org/2000/svg">
<rect width="56" height="56" rx="28" fill="#FFE0E0"/>
<path d="M35.4937 26.3332C34.9203 26.3332 34.467 25.8666 34.467 25.3066C34.467 24.8132 33.9737 23.7866 33.147 22.8932C32.3337 22.0266 31.4403 21.5199 30.6937 21.5199C30.1203 21.5199 29.667 21.0532 29.667 20.4932C29.667 19.9332 30.1337 19.4666 30.6937 19.4666C32.027 19.4666 33.427 20.1866 34.6537 21.4799C35.8003 22.6932 36.5337 24.1999 36.5337 25.2932C36.5337 25.8666 36.067 26.3332 35.4937 26.3332Z" fill="#B31312"/>
<path d="M40.3064 26.3334C39.733 26.3334 39.2797 25.8667 39.2797 25.3067C39.2797 20.5734 35.4264 16.7334 30.7064 16.7334C30.133 16.7334 29.6797 16.2667 29.6797 15.7067C29.6797 15.1467 30.133 14.6667 30.693 14.6667C36.5597 14.6667 41.333 19.4401 41.333 25.3067C41.333 25.8667 40.8664 26.3334 40.3064 26.3334Z" fill="#B31312"/>
<path opacity="0.4" d="M27.7203 30.9467L23.3603 35.3067C22.8803 34.8801 22.4137 34.4401 21.9603 33.9867C20.587 32.6001 19.347 31.1467 18.2403 29.6267C17.147 28.1067 16.267 26.5867 15.627 25.0801C14.987 23.5601 14.667 22.1067 14.667 20.7201C14.667 19.8134 14.827 18.9467 15.147 18.1467C15.467 17.3334 15.9737 16.5867 16.6803 15.9201C17.5337 15.0801 18.467 14.6667 19.4537 14.6667C19.827 14.6667 20.2003 14.7467 20.5337 14.9067C20.8803 15.0667 21.187 15.3067 21.427 15.6534L24.5203 20.0134C24.7603 20.3467 24.9337 20.6534 25.0537 20.9467C25.1737 21.2267 25.2403 21.5067 25.2403 21.7601C25.2403 22.0801 25.147 22.4001 24.9603 22.7067C24.787 23.0134 24.5337 23.3334 24.2137 23.6534L23.2003 24.7067C23.0537 24.8534 22.987 25.0267 22.987 25.2401C22.987 25.3467 23.0003 25.4401 23.027 25.5467C23.067 25.6534 23.107 25.7334 23.1337 25.8134C23.3737 26.2534 23.787 26.8267 24.3737 27.5201C24.9737 28.2134 25.6137 28.9201 26.307 29.6267C26.787 30.0934 27.2537 30.5467 27.7203 30.9467Z" fill="#B31312"/>
<path d="M41.2931 36.44C41.2931 36.8133 41.2265 37.2 41.0931 37.5733C41.0531 37.68 41.0131 37.7866 40.9598 37.8933C40.7331 38.3733 40.4398 38.8266 40.0531 39.2533C39.3998 39.9733 38.6798 40.4933 37.8665 40.8266C37.8531 40.8266 37.8398 40.84 37.8265 40.84C37.0398 41.16 36.1865 41.3333 35.2665 41.3333C33.9065 41.3333 32.4531 41.0133 30.9198 40.36C29.3865 39.7066 27.8531 38.8266 26.3331 37.72C25.8131 37.3333 25.2931 36.9466 24.7998 36.5333L29.1598 32.1733C29.5331 32.4533 29.8665 32.6666 30.1465 32.8133C30.2131 32.84 30.2931 32.88 30.3865 32.92C30.4931 32.96 30.5998 32.9733 30.7198 32.9733C30.9465 32.9733 31.1198 32.8933 31.2665 32.7466L32.2798 31.7466C32.6131 31.4133 32.9331 31.16 33.2398 31C33.5465 30.8133 33.8531 30.72 34.1865 30.72C34.4398 30.72 34.7065 30.7733 34.9998 30.8933C35.2931 31.0133 35.5998 31.1866 35.9331 31.4133L40.3465 34.5466C40.6931 34.7866 40.9331 35.0666 41.0798 35.4C41.2131 35.7333 41.2931 36.0666 41.2931 36.44Z" fill="#B31312"/>
</svg>
