<svg width="40" height="40" viewBox="0 0 40 40" fill="none" xmlns="http://www.w3.org/2000/svg">
<path opacity="0.4" d="M34.1667 16.9833H29.3501C25.4001 16.9833 22.1834 13.7667 22.1834 9.81667V5C22.1834 4.08333 21.4334 3.33333 20.5167 3.33333H13.4501C8.31675 3.33333 4.16675 6.66667 4.16675 12.6167V27.3833C4.16675 33.3333 8.31675 36.6667 13.4501 36.6667H26.5501C31.6834 36.6667 35.8334 33.3333 35.8334 27.3833V18.65C35.8334 17.7333 35.0834 16.9833 34.1667 16.9833Z" fill="#D22630"/>
<path d="M26.3332 3.68333C25.6499 3 24.4666 3.46667 24.4666 4.41667V10.2333C24.4666 12.6667 26.5332 14.6833 29.0499 14.6833C30.6332 14.7 32.8332 14.7 34.7166 14.7C35.6666 14.7 36.1666 13.5833 35.4999 12.9167C33.0999 10.5 28.7999 6.15 26.3332 3.68333Z" fill="#D22630"/>
<path d="M20.4667 24.5333C19.9834 24.05 19.1834 24.05 18.7001 24.5333L17.5001 25.7333V18.75C17.5001 18.0667 16.9334 17.5 16.2501 17.5C15.5667 17.5 15.0001 18.0667 15.0001 18.75V25.7333L13.8001 24.5333C13.3167 24.05 12.5167 24.05 12.0334 24.5333C11.5501 25.0167 11.5501 25.8167 12.0334 26.3L15.3667 29.6333C15.3834 29.65 15.4001 29.65 15.4001 29.6667C15.5001 29.7667 15.6334 29.85 15.7667 29.9167C15.9334 29.9667 16.0834 30 16.2501 30C16.4167 30 16.5667 29.9667 16.7167 29.9C16.8667 29.8333 17.0001 29.75 17.1334 29.6333L20.4667 26.3C20.9501 25.8167 20.9501 25.0167 20.4667 24.5333Z" fill="#D22630"/>
</svg>
