<svg width="40" height="40" viewBox="0 0 40 40" fill="none" xmlns="http://www.w3.org/2000/svg">
<path opacity="0.4" d="M34.1667 16.9833H29.3501C25.4001 16.9833 22.1834 13.7667 22.1834 9.81666V4.99999C22.1834 4.08333 21.4334 3.33333 20.5167 3.33333H13.4501C8.31675 3.33333 4.16675 6.66666 4.16675 12.6167V27.3833C4.16675 33.3333 8.31675 36.6667 13.4501 36.6667H26.5501C31.6834 36.6667 35.8334 33.3333 35.8334 27.3833V18.65C35.8334 17.7333 35.0834 16.9833 34.1667 16.9833Z" fill="#D22630"/>
<path d="M26.3332 3.68333C25.6499 2.99999 24.4666 3.46666 24.4666 4.41666V10.2333C24.4666 12.6667 26.5332 14.6833 29.0499 14.6833C30.6332 14.7 32.8332 14.7 34.7166 14.7C35.6666 14.7 36.1666 13.5833 35.4999 12.9167C33.0999 10.5 28.7999 6.14999 26.3332 3.68333Z" fill="#D22630"/>
<path d="M19.2167 20.7833L15.8834 17.45C15.8667 17.4333 15.8501 17.4333 15.8501 17.4167C15.7501 17.3167 15.6167 17.2333 15.4834 17.1667C15.4667 17.1667 15.4667 17.1667 15.4501 17.1667C15.3167 17.1167 15.1834 17.1 15.0501 17.0833C15.0001 17.0833 14.9667 17.0833 14.9167 17.0833C14.8167 17.0833 14.7001 17.1167 14.6001 17.15C14.5501 17.1667 14.5167 17.1833 14.4834 17.2C14.3501 17.2667 14.2167 17.3333 14.1167 17.45L10.7834 20.7833C10.3001 21.2667 10.3001 22.0667 10.7834 22.55C11.2667 23.0333 12.0667 23.0333 12.5501 22.55L13.7501 21.35V28.3333C13.7501 29.0167 14.3167 29.5833 15.0001 29.5833C15.6834 29.5833 16.2501 29.0167 16.2501 28.3333V21.35L17.4501 22.55C17.7001 22.8 18.0167 22.9167 18.3334 22.9167C18.6501 22.9167 18.9667 22.8 19.2167 22.55C19.7001 22.0667 19.7001 21.2667 19.2167 20.7833Z" fill="#D22630"/>
</svg>
