<svg width="32" height="32" viewBox="0 0 32 32" fill="none" xmlns="http://www.w3.org/2000/svg">
<path opacity="0.4" d="M9.82683 29.3333H22.1602C25.7468 29.3333 28.6535 26.4267 28.6535 22.84V11.16C28.6535 7.57333 25.7468 4.66667 22.1602 4.66667H9.82683C6.24016 4.66667 3.3335 7.57333 3.3335 11.16V22.8267C3.3335 26.4267 6.24016 29.3333 9.82683 29.3333Z" fill="#757575"/>
<path d="M11.0532 8.38667C10.4932 8.38667 10.0532 7.93333 10.0532 7.38667V3.66667C10.0532 3.12 10.4932 2.66667 11.0532 2.66667C11.6132 2.66667 12.0532 3.12 12.0532 3.66667V7.37333C12.0532 7.93333 11.6132 8.38667 11.0532 8.38667Z" fill="#757575"/>
<path d="M20.9468 8.38667C20.3868 8.38667 19.9468 7.93333 19.9468 7.38667V3.66667C19.9468 3.10667 20.4001 2.66667 20.9468 2.66667C21.5068 2.66667 21.9468 3.12 21.9468 3.66667V7.37333C21.9468 7.93333 21.5068 8.38667 20.9468 8.38667Z" fill="#757575"/>
<path d="M19.7068 18.28H9.81348C9.25348 18.28 8.81348 17.8267 8.81348 17.28C8.81348 16.7333 9.26681 16.28 9.81348 16.28H19.7068C20.2668 16.28 20.7068 16.7333 20.7068 17.28C20.7068 17.8267 20.2668 18.28 19.7068 18.28Z" fill="#757575"/>
<path d="M16.0001 23.2267H9.81348C9.25348 23.2267 8.81348 22.7733 8.81348 22.2267C8.81348 21.6667 9.26681 21.2267 9.81348 21.2267H16.0001C16.5601 21.2267 17.0001 21.68 17.0001 22.2267C17.0001 22.7733 16.5601 23.2267 16.0001 23.2267Z" fill="#757575"/>
</svg>
