<svg width="32" height="32" viewBox="0 0 32 32" fill="none" xmlns="http://www.w3.org/2000/svg">
<path opacity="0.4" d="M26.6668 11V24C26.6668 28 24.2802 29.3333 21.3335 29.3333H10.6668C7.72016 29.3333 5.3335 28 5.3335 24V11C5.3335 6.66667 7.72016 5.66667 10.6668 5.66667C10.6668 6.49333 11.0001 7.24 11.5468 7.78666C12.0935 8.33333 12.8402 8.66667 13.6668 8.66667H18.3335C19.9868 8.66667 21.3335 7.32 21.3335 5.66667C24.2802 5.66667 26.6668 6.66667 26.6668 11Z" fill="#757575"/>
<path d="M21.3332 5.66667C21.3332 7.32 19.9865 8.66667 18.3332 8.66667H13.6665C12.8398 8.66667 12.0931 8.33333 11.5465 7.78666C10.9998 7.24 10.6665 6.49333 10.6665 5.66667C10.6665 4.01333 12.0132 2.66667 13.6665 2.66667H18.3332C19.1598 2.66667 19.9065 3 20.4532 3.54667C20.9999 4.09334 21.3332 4.84 21.3332 5.66667Z" fill="#757575"/>
<path d="M15.9998 18.3333H10.6665C10.1198 18.3333 9.6665 17.88 9.6665 17.3333C9.6665 16.7867 10.1198 16.3333 10.6665 16.3333H15.9998C16.5465 16.3333 16.9998 16.7867 16.9998 17.3333C16.9998 17.88 16.5465 18.3333 15.9998 18.3333Z" fill="#757575"/>
<path d="M21.3332 23.6667H10.6665C10.1198 23.6667 9.6665 23.2133 9.6665 22.6667C9.6665 22.12 10.1198 21.6667 10.6665 21.6667H21.3332C21.8798 21.6667 22.3332 22.12 22.3332 22.6667C22.3332 23.2133 21.8798 23.6667 21.3332 23.6667Z" fill="#757575"/>
</svg>
