<svg width="40" height="40" viewBox="0 0 40 40" fill="none" xmlns="http://www.w3.org/2000/svg">
<path opacity="0.4" d="M5.83325 36.6667V8.33334C5.83325 5.00001 8.06659 3.33334 10.8333 3.33334H24.1666C26.9333 3.33334 29.1666 5.00001 29.1666 8.33334V36.6667H5.83325Z" fill="#D22630"/>
<path d="M31.6666 37.9167H3.33325C2.64992 37.9167 2.08325 37.35 2.08325 36.6667C2.08325 35.9833 2.64992 35.4167 3.33325 35.4167H31.6666C32.3499 35.4167 32.9166 35.9833 32.9166 36.6667C32.9166 37.35 32.3499 37.9167 31.6666 37.9167Z" fill="#D22630"/>
<path d="M13.15 16.6667H21.8667C23.6 16.6667 25.0167 15.8333 25.0167 13.5167V11.4667C25 9.16668 23.5833 8.33334 21.85 8.33334H13.1333C11.4167 8.33334 10 9.16668 10 11.4833V13.5333C10 15.8333 11.4167 16.6667 13.15 16.6667Z" fill="#D22630"/>
<path d="M15.8333 22.9167H10.8333C10.1499 22.9167 9.58325 22.35 9.58325 21.6667C9.58325 20.9833 10.1499 20.4167 10.8333 20.4167H15.8333C16.5166 20.4167 17.0833 20.9833 17.0833 21.6667C17.0833 22.35 16.5166 22.9167 15.8333 22.9167Z" fill="#D22630"/>
<path d="M37.9167 16.6667V26.6667C37.9167 27.35 37.3667 27.9167 36.6667 27.9167L29.1667 27.9333V25.4333L35.4167 25.4167V17.4333L32.7667 16.1167C32.1501 15.8167 31.9001 15.0667 32.2168 14.4333C32.5168 13.8167 33.2834 13.5834 33.9001 13.8834L37.2334 15.55C37.6501 15.7667 37.9167 16.2 37.9167 16.6667Z" fill="#D22630"/>
</svg>
