<svg width="32" height="32" viewBox="0 0 32 32" fill="none" xmlns="http://www.w3.org/2000/svg">
<path d="M17.5867 21.72H14.4133V23.6133H17.5867V21.72Z" fill="#B31312"/>
<path d="M10.6 3.61334C10.6 4.14667 10.1733 4.57334 9.65335 4.57334H8.38668C6.10668 4.57334 4.25335 6.42667 4.25335 8.69334V16.5333C3.12001 17.1067 2.34668 18.28 2.34668 19.64V8.69334C2.34668 5.37334 5.05335 2.66667 8.38668 2.66667H9.65335C10.1733 2.66667 10.6 3.09334 10.6 3.61334Z" fill="#B31312"/>
<path d="M29.6533 8.69334V19.64C29.6533 18.28 28.88 17.1067 27.7467 16.5333V8.69334C27.7467 6.42667 25.8933 4.57334 23.6133 4.57334H22.3467C21.8267 4.57334 21.4 4.14667 21.4 3.61334C21.4 3.09334 21.8267 2.66667 22.3467 2.66667H23.6133C26.9467 2.66667 29.6533 5.37334 29.6533 8.69334Z" fill="#B31312"/>
<path opacity="0.4" d="M14.4133 19.64V25.84C14.4133 27.7733 12.84 29.3333 10.92 29.3333H5.84001C3.92001 29.3333 2.34668 27.7733 2.34668 25.84V19.64C2.34668 18.28 3.12001 17.1067 4.25335 16.5333C4.73335 16.28 5.26668 16.1467 5.84001 16.1467H10.92C12.84 16.1467 14.4133 17.7067 14.4133 19.64Z" fill="#B31312"/>
<path opacity="0.4" d="M29.6533 19.64V25.84C29.6533 27.7733 28.08 29.3333 26.16 29.3333H21.08C19.16 29.3333 17.5867 27.7733 17.5867 25.84V19.64C17.5867 17.7067 19.16 16.1467 21.08 16.1467H26.16C26.7333 16.1467 27.2667 16.28 27.7467 16.5333C28.88 17.1067 29.6533 18.28 29.6533 19.64Z" fill="#B31312"/>
</svg>
