<svg width="20" height="20" viewBox="0 0 20 20" fill="none" xmlns="http://www.w3.org/2000/svg">
<path d="M18.9582 18.3333C18.9582 18.6749 18.6748 18.9583 18.3332 18.9583H1.6665C1.32484 18.9583 1.0415 18.6749 1.0415 18.3333C1.0415 17.9833 1.32484 17.7083 1.6665 17.7083H18.3332C18.6748 17.7083 18.9582 17.9833 18.9582 18.3333Z" fill="#0A0A0A"/>
<path opacity="0.4" d="M17.5002 8.31657V17.7083H2.4585L2.50017 8.30823C2.50017 7.79989 2.7335 7.3166 3.14183 6.99994L8.97516 2.4666C9.57516 1.9916 10.4252 1.9916 11.0252 2.4666L16.8585 6.99994C17.2668 7.3166 17.5002 7.7999 17.5002 8.31657Z" fill="#0A0A0A"/>
<path d="M11.25 6.875H8.75C8.40833 6.875 8.125 6.59167 8.125 6.25C8.125 5.90833 8.40833 5.625 8.75 5.625H11.25C11.5917 5.625 11.875 5.90833 11.875 6.25C11.875 6.59167 11.5917 6.875 11.25 6.875Z" fill="#0A0A0A"/>
<path d="M12.9168 9.16675H7.0835C6.39183 9.16675 5.8335 9.72508 5.8335 10.4167V18.3334H14.1668V10.4167C14.1668 9.72508 13.6085 9.16675 12.9168 9.16675ZM8.9585 14.7917C8.9585 15.1334 8.67516 15.4167 8.3335 15.4167C7.99183 15.4167 7.7085 15.1334 7.7085 14.7917V13.5417C7.7085 13.2001 7.99183 12.9167 8.3335 12.9167C8.67516 12.9167 8.9585 13.2001 8.9585 13.5417V14.7917Z" fill="#0A0A0A"/>
</svg>
