<svg width="40" height="40" viewBox="0 0 40 40" fill="none" xmlns="http://www.w3.org/2000/svg">
<g filter="url(#filter0_d_501_6026)">
<rect x="4" y="4" width="32" height="32" rx="16" fill="white" shape-rendering="crispEdges"/>
<rect x="4.5" y="4.5" width="31" height="31" rx="15.5" stroke="#EDEDED" shape-rendering="crispEdges"/>
<g clip-path="url(#clip0_501_6026)">
<path d="M16.25 20.6251C16.25 19.7963 16.5792 19.0014 17.1653 18.4154C17.7513 17.8293 18.5462 17.5001 19.375 17.5001H21.25V15.6676C21.25 15.6082 21.267 15.5501 21.2988 15.5C21.3307 15.4499 21.3762 15.4099 21.43 15.3847C21.4837 15.3595 21.5436 15.3502 21.6025 15.3578C21.6614 15.3654 21.7169 15.3896 21.7625 15.4276L24.7125 17.8851C24.8625 18.0101 24.8625 18.2401 24.7125 18.3651L21.7625 20.8226C21.7169 20.8606 21.6614 20.8848 21.6025 20.8924C21.5436 20.9 21.4837 20.8907 21.43 20.8655C21.3762 20.8403 21.3307 20.8003 21.2988 20.7502C21.267 20.7001 21.25 20.642 21.25 20.5826V18.7501H19.375C18.8777 18.7501 18.4008 18.9477 18.0492 19.2993C17.6975 19.6509 17.5 20.1278 17.5 20.6251V23.7501H16.25V20.6251Z" fill="#B31312"/>
<path fill-rule="evenodd" clip-rule="evenodd" d="M18.6872 10.5437C19.4122 9.81875 20.5872 9.81875 21.3122 10.5437L29.456 18.6888C30.181 19.4138 30.181 20.5875 29.456 21.3112L21.3122 29.4562C20.5872 30.1812 19.4135 30.1812 18.6897 29.4562L10.5435 21.3125C10.3708 21.1406 10.2337 20.9363 10.1402 20.7112C10.0467 20.4862 9.99854 20.2449 9.99854 20.0013C9.99854 19.7576 10.0467 19.5163 10.1402 19.2913C10.2337 19.0662 10.3708 18.8619 10.5435 18.69L18.6872 10.5437ZM20.4372 11.4188C20.3212 11.3027 20.1638 11.2375 19.9997 11.2375C19.8357 11.2375 19.6783 11.3027 19.5622 11.4188L11.4172 19.5625C11.3012 19.6785 11.236 19.8359 11.236 20C11.236 20.1641 11.3012 20.3215 11.4172 20.4375L19.5622 28.5825C19.6783 28.6985 19.8357 28.7637 19.9997 28.7637C20.1638 28.7637 20.3212 28.6985 20.4372 28.5825L28.5822 20.4375C28.6983 20.3215 28.7635 20.1641 28.7635 20C28.7635 19.8359 28.6983 19.6785 28.5822 19.5625L20.4372 11.4175V11.4188Z" fill="#B31312"/>
</g>
</g>
<defs>
<filter id="filter0_d_501_6026" x="0" y="0" width="40" height="40" filterUnits="userSpaceOnUse" color-interpolation-filters="sRGB">
<feFlood flood-opacity="0" result="BackgroundImageFix"/>
<feColorMatrix in="SourceAlpha" type="matrix" values="0 0 0 0 0 0 0 0 0 0 0 0 0 0 0 0 0 0 127 0" result="hardAlpha"/>
<feOffset/>
<feGaussianBlur stdDeviation="2"/>
<feComposite in2="hardAlpha" operator="out"/>
<feColorMatrix type="matrix" values="0 0 0 0 0.332273 0 0 0 0 0.332273 0 0 0 0 0.332273 0 0 0 0.25 0"/>
<feBlend mode="normal" in2="BackgroundImageFix" result="effect1_dropShadow_501_6026"/>
<feBlend mode="normal" in="SourceGraphic" in2="effect1_dropShadow_501_6026" result="shape"/>
</filter>
<clipPath id="clip0_501_6026">
<rect width="20" height="20" fill="white" transform="translate(10 10)"/>
</clipPath>
</defs>
</svg>
