<svg width="32" height="32" viewBox="0 0 32 32" fill="none" xmlns="http://www.w3.org/2000/svg">
<g clip-path="url(#clip0_302_13990)">
<path d="M10 16.9999C10 15.6738 10.5268 14.4021 11.4645 13.4644C12.4021 12.5267 13.6739 11.9999 15 11.9999H18V9.06793C18 8.97292 18.0271 8.87989 18.0781 8.79973C18.1291 8.71957 18.2019 8.6556 18.288 8.61531C18.374 8.57501 18.4697 8.56007 18.564 8.57222C18.6582 8.58438 18.747 8.62312 18.82 8.68393L23.54 12.6159C23.78 12.8159 23.78 13.1839 23.54 13.3839L18.82 17.3159C18.747 17.3767 18.6582 17.4155 18.564 17.4276C18.4697 17.4398 18.374 17.4248 18.288 17.3845C18.2019 17.3443 18.1291 17.2803 18.0781 17.2001C18.0271 17.12 18 17.0269 18 16.9319V13.9999H15C14.2044 13.9999 13.4413 14.316 12.8787 14.8786C12.3161 15.4412 12 16.2043 12 16.9999V21.9999H10V16.9999Z" fill="#EB1E2E"/>
<path fill-rule="evenodd" clip-rule="evenodd" d="M13.9 0.87C15.06 -0.29 16.94 -0.29 18.1 0.87L31.13 13.902C32.29 15.062 32.29 16.94 31.13 18.098L18.1 31.13C16.94 32.29 15.062 32.29 13.904 31.13L0.869987 18.1C0.593635 17.825 0.374344 17.498 0.22471 17.138C0.0750761 16.778 -0.00195313 16.3919 -0.00195312 16.002C-0.00195313 15.6121 0.0750761 15.226 0.22471 14.866C0.374344 14.506 0.593635 14.179 0.869987 13.904L13.9 0.87ZM16.7 2.27C16.5143 2.08436 16.2625 1.98007 16 1.98007C15.7374 1.98007 15.4856 2.08436 15.3 2.27L2.26799 15.3C2.08235 15.4857 1.97806 15.7375 1.97806 16C1.97806 16.2625 2.08235 16.5143 2.26799 16.7L15.3 29.732C15.4856 29.9176 15.7374 30.0219 16 30.0219C16.2625 30.0219 16.5143 29.9176 16.7 29.732L29.732 16.7C29.9176 16.5143 30.0219 16.2625 30.0219 16C30.0219 15.7375 29.9176 15.4857 29.732 15.3L16.7 2.268V2.27Z" fill="#EB1E2E"/>
</g>
<defs>
<clipPath id="clip0_302_13990">
<rect width="32" height="32" fill="white"/>
</clipPath>
</defs>
</svg>
