<svg width="18" height="18" viewBox="0 0 18 18" fill="none" xmlns="http://www.w3.org/2000/svg">
<path d="M9.5613 16.3125C9.48617 16.3126 9.4118 16.2975 9.34258 16.2684C9.27335 16.2392 9.21067 16.1964 9.15824 16.1426C9.10581 16.0888 9.06469 16.025 9.0373 15.9551C9.00992 15.8851 8.99683 15.8104 8.9988 15.7353V9.28586C8.9988 9.21127 8.96917 9.13973 8.91643 9.08699C8.86368 9.03424 8.79214 9.00461 8.71755 9.00461H2.26322C2.14491 9.00601 2.02906 8.97078 1.93157 8.90375C1.83407 8.83671 1.7597 8.74116 1.71865 8.6302C1.6719 8.49786 1.67631 8.35283 1.73101 8.22358C1.78572 8.09433 1.88676 7.9902 2.01431 7.93164L15.5143 1.73887C15.6186 1.69108 15.735 1.67632 15.8479 1.69658C15.9609 1.71684 16.0649 1.77115 16.1461 1.85222C16.2273 1.93328 16.2817 2.03723 16.3021 2.15013C16.3226 2.26302 16.308 2.37946 16.2603 2.48383L10.0728 15.9838C10.028 16.0819 9.95599 16.165 9.8653 16.2233C9.77462 16.2815 9.6691 16.3125 9.5613 16.3125Z" fill="white"/>
</svg>
