<svg width="40" height="40" viewBox="0 0 40 40" fill="none" xmlns="http://www.w3.org/2000/svg">
<g filter="url(#filter0_d_501_5974)">
<rect x="4" y="4" width="32" height="32" rx="16" fill="#B31312" shape-rendering="crispEdges"/>
<rect x="4.5" y="4.5" width="31" height="31" rx="15.5" stroke="#EDEDED" shape-rendering="crispEdges"/>
<path d="M26.9833 17.1417L25.9583 18.6834C26.4526 19.6692 26.6946 20.7624 26.6626 21.8648C26.6306 22.9672 26.3256 24.0445 25.775 25H14.225C13.5093 23.7584 13.2127 22.3193 13.3793 20.8959C13.5458 19.4725 14.1666 18.1407 15.1495 17.0979C16.1325 16.055 17.4254 15.3567 18.8364 15.1064C20.2475 14.8561 21.7016 15.0672 22.9833 15.7084L24.525 14.6834C22.9554 13.6769 21.0936 13.2259 19.2374 13.4025C17.3812 13.5791 15.6379 14.3731 14.2862 15.6575C12.9346 16.942 12.0528 18.6426 11.7818 20.4874C11.5109 22.3322 11.8664 24.2145 12.7916 25.8334C12.9371 26.0852 13.1459 26.2947 13.3973 26.4409C13.6488 26.5871 13.9341 26.6649 14.225 26.6667H25.7666C26.0603 26.6679 26.3491 26.5914 26.6037 26.4451C26.8584 26.2987 27.0698 26.0877 27.2166 25.8334C27.9845 24.5033 28.3698 22.9869 28.3301 21.4516C28.2904 19.9164 27.8272 18.422 26.9916 17.1334L26.9833 17.1417Z" fill="white"/>
<path d="M18.825 22.8416C18.9798 22.9966 19.1636 23.1195 19.3659 23.2034C19.5683 23.2872 19.7851 23.3304 20.0042 23.3304C20.2232 23.3304 20.4401 23.2872 20.6424 23.2034C20.8447 23.1195 21.0285 22.9966 21.1833 22.8416L25.9 15.7666L18.825 20.4833C18.67 20.6381 18.5471 20.8219 18.4632 21.0242C18.3794 21.2265 18.3362 21.4434 18.3362 21.6624C18.3362 21.8815 18.3794 22.0983 18.4632 22.3007C18.5471 22.503 18.67 22.6868 18.825 22.8416Z" fill="white"/>
</g>
<defs>
<filter id="filter0_d_501_5974" x="0" y="0" width="40" height="40" filterUnits="userSpaceOnUse" color-interpolation-filters="sRGB">
<feFlood flood-opacity="0" result="BackgroundImageFix"/>
<feColorMatrix in="SourceAlpha" type="matrix" values="0 0 0 0 0 0 0 0 0 0 0 0 0 0 0 0 0 0 127 0" result="hardAlpha"/>
<feOffset/>
<feGaussianBlur stdDeviation="2"/>
<feComposite in2="hardAlpha" operator="out"/>
<feColorMatrix type="matrix" values="0 0 0 0 0.332273 0 0 0 0 0.332273 0 0 0 0 0.332273 0 0 0 0.25 0"/>
<feBlend mode="normal" in2="BackgroundImageFix" result="effect1_dropShadow_501_5974"/>
<feBlend mode="normal" in="SourceGraphic" in2="effect1_dropShadow_501_5974" result="shape"/>
</filter>
</defs>
</svg>
