<svg width="32" height="32" viewBox="0 0 32 32" fill="none" xmlns="http://www.w3.org/2000/svg">
<path opacity="0.4" d="M7.29334 12.0001C9.87067 12.0001 11.96 9.91074 11.96 7.33341C11.96 4.75609 9.87067 2.66675 7.29334 2.66675C4.71602 2.66675 2.62668 4.75609 2.62668 7.33341C2.62668 9.91074 4.71602 12.0001 7.29334 12.0001Z" fill="#757575"/>
<path opacity="0.4" d="M22.6667 20H26.6667C28.1333 20 29.3333 21.2 29.3333 22.6667V26.6667C29.3333 28.1333 28.1333 29.3333 26.6667 29.3333H22.6667C21.2 29.3333 20 28.1333 20 26.6667V22.6667C20 21.2 21.2 20 22.6667 20Z" fill="#757575"/>
<path d="M16 26.3334H12.4267C10.88 26.3334 9.53334 25.4001 9 23.9601C8.45334 22.5201 8.85334 20.9334 10.0133 19.9067L20.6667 10.5867C21.3067 10.0267 21.32 9.26675 21.1333 8.74675C20.9333 8.22675 20.4267 7.66675 19.5733 7.66675H16C15.4533 7.66675 15 7.21341 15 6.66675C15 6.12008 15.4533 5.66675 16 5.66675H19.5733C21.12 5.66675 22.4667 6.60008 23 8.04008C23.5467 9.48008 23.1467 11.0667 21.9867 12.0934L11.3333 21.4134C10.6933 21.9734 10.68 22.7334 10.8667 23.2534C11.0667 23.7734 11.5733 24.3334 12.4267 24.3334H16C16.5467 24.3334 17 24.7867 17 25.3334C17 25.8801 16.5467 26.3334 16 26.3334Z" fill="#757575"/>
<path d="M24.68 25.9999C23.9467 25.9999 23.3467 25.3999 23.3467 24.6666C23.3467 23.9333 23.9333 23.3333 24.68 23.3333H24.6933C25.4267 23.3333 26.0267 23.9333 26.0267 24.6666C26.0267 25.3999 25.4267 25.9999 24.68 25.9999Z" fill="#757575"/>
<path d="M7.34667 8.66667C6.61334 8.66667 6.01334 8.06667 6.01334 7.33333C6.01334 6.6 6.6 6 7.34667 6H7.36C8.09334 6 8.69334 6.6 8.69334 7.33333C8.69334 8.06667 8.09334 8.66667 7.34667 8.66667Z" fill="#757575"/>
</svg>
