<svg width="40" height="40" viewBox="0 0 40 40" fill="none" xmlns="http://www.w3.org/2000/svg">
<path opacity="0.4" d="M18.2665 3.43334L9.09984 6.86667C7.34984 7.53334 5.9165 9.6 5.9165 11.4833V24.9833C5.9165 26.3333 6.79984 28.1167 7.88317 28.9167L17.0498 35.7667C18.6665 36.9833 21.3165 36.9833 22.9332 35.7667L32.0998 28.9167C33.1832 28.1 34.0665 26.3333 34.0665 24.9833V11.4833C34.0665 9.61667 32.6332 7.53334 30.8832 6.88334L21.7165 3.45C20.7832 3.08334 19.2165 3.08334 18.2665 3.43334Z" fill="#D22630"/>
<path d="M24.4667 21.5167L21.8167 18.8667L24.4 16.2833C24.8833 15.8 24.8833 15 24.4 14.5167C23.9167 14.0333 23.1167 14.0333 22.6333 14.5167L20.05 17.1L17.4 14.45C16.9167 13.9667 16.1167 13.9667 15.6333 14.45C15.15 14.9333 15.15 15.7333 15.6333 16.2167L18.2833 18.8667L15.55 21.6C15.0667 22.0833 15.0667 22.8833 15.55 23.3667C15.8 23.6167 16.1167 23.7333 16.4333 23.7333C16.75 23.7333 17.0667 23.6167 17.3167 23.3667L20.05 20.6333L22.7 23.2833C22.95 23.5333 23.2667 23.65 23.5833 23.65C23.9 23.65 24.2167 23.5333 24.4667 23.2833C24.95 22.7833 24.95 22 24.4667 21.5167Z" fill="#D22630"/>
</svg>
