<svg width="40" height="40" viewBox="0 0 40 40" fill="none" xmlns="http://www.w3.org/2000/svg">
<path opacity="0.4" d="M18.2665 3.51667L9.09984 6.95C7.34984 7.61667 5.9165 9.68333 5.9165 11.5667V25.0667C5.9165 26.4167 6.79984 28.2 7.88317 29L17.0498 35.85C18.6665 37.0667 21.3165 37.0667 22.9332 35.85L32.0998 29C33.1832 28.1833 34.0665 26.4167 34.0665 25.0667V11.5667C34.0665 9.7 32.6332 7.61667 30.8832 6.96667L21.7165 3.53333C20.7832 3.16667 19.2165 3.16667 18.2665 3.51667Z" fill="#EB1E2E"/>
<path d="M20.0002 27.0833C15.6335 27.0833 12.0835 23.5333 12.0835 19.1667C12.0835 14.8 15.6335 11.25 20.0002 11.25C24.3668 11.25 27.9168 14.8 27.9168 19.1667C27.9168 23.5333 24.3668 27.0833 20.0002 27.0833ZM20.0002 13.75C17.0168 13.75 14.5835 16.1833 14.5835 19.1667C14.5835 22.15 17.0168 24.5833 20.0002 24.5833C22.9835 24.5833 25.4168 22.15 25.4168 19.1667C25.4168 16.1833 22.9835 13.75 20.0002 13.75Z" fill="#EB1E2E"/>
<path d="M18.3336 22.0833C17.917 22.0833 17.5003 21.8667 17.267 21.4833C16.917 20.8833 17.1003 20.1167 17.7003 19.7667L18.967 19C19.1003 18.9167 19.167 18.7833 19.167 18.65V17.1C19.167 16.4167 19.7336 15.85 20.417 15.85C21.1003 15.85 21.667 16.4 21.667 17.0833V18.6333C21.667 19.65 21.117 20.6167 20.2503 21.1333L18.967 21.9C18.7836 22.0333 18.5503 22.0833 18.3336 22.0833Z" fill="#EB1E2E"/>
</svg>
