<svg width="40" height="40" viewBox="0 0 40 40" fill="none" xmlns="http://www.w3.org/2000/svg">
<path opacity="0.4" d="M3.33325 21.4667V18.5333C3.33325 16.8 4.74992 15.3667 6.49992 15.3667C9.51659 15.3667 10.7499 13.2333 9.23325 10.6167C8.36659 9.11666 8.88325 7.16666 10.3999 6.3L13.2833 4.65C14.5999 3.86666 16.2999 4.33333 17.0833 5.65L17.2666 5.96666C18.7666 8.58333 21.2333 8.58333 22.7499 5.96666L22.9333 5.65C23.7166 4.33333 25.4166 3.86666 26.7333 4.65L29.6166 6.3C31.1333 7.16666 31.6499 9.11666 30.7833 10.6167C29.2666 13.2333 30.4999 15.3667 33.5166 15.3667C35.2499 15.3667 36.6833 16.7833 36.6833 18.5333V21.4667C36.6833 23.2 35.2666 24.6333 33.5166 24.6333C30.4999 24.6333 29.2666 26.7667 30.7833 29.3833C31.6499 30.9 31.1333 32.8333 29.6166 33.7L26.7333 35.35C25.4166 36.1333 23.7166 35.6667 22.9333 34.35L22.7499 34.0333C21.2499 31.4167 18.7833 31.4167 17.2666 34.0333L17.0833 34.35C16.2999 35.6667 14.5999 36.1333 13.2833 35.35L10.3999 33.7C8.88325 32.8333 8.36659 30.8833 9.23325 29.3833C10.7499 26.7667 9.51659 24.6333 6.49992 24.6333C4.74992 24.6333 3.33325 23.2 3.33325 21.4667Z" fill="#EB1E2E"/>
<path d="M19.9999 25.4167C22.9915 25.4167 25.4166 22.9915 25.4166 20C25.4166 17.0085 22.9915 14.5833 19.9999 14.5833C17.0084 14.5833 14.5833 17.0085 14.5833 20C14.5833 22.9915 17.0084 25.4167 19.9999 25.4167Z" fill="#EB1E2E"/>
</svg>
