<svg width="48" height="48" viewBox="0 0 48 48" fill="none" xmlns="http://www.w3.org/2000/svg">
<path opacity="0.4" d="M5.54 20C4.68 20 4 19.32 4 18.46V13.84C4 8.42 8.42 4 13.84 4H18.46C19.32 4 20 4.68 20 5.54C20 6.4 19.32 7.08 18.46 7.08H13.84C10.1 7.08 7.08 10.12 7.08 13.84V18.46C7.08 19.32 6.38 20 5.54 20Z" fill="#EB1E2E"/>
<path opacity="0.4" d="M42.46 20C41.62 20 40.92 19.32 40.92 18.46V13.84C40.92 10.1 37.88 7.08 34.16 7.08H29.54C28.68 7.08 28 6.38 28 5.54C28 4.7 28.68 4 29.54 4H34.16C39.58 4 44 8.42 44 13.84V18.46C44 19.32 43.32 20 42.46 20Z" fill="#EB1E2E"/>
<path d="M34.16 44H31.38C30.54 44 29.84 43.32 29.84 42.46C29.84 41.62 30.52 40.92 31.38 40.92H34.16C37.9 40.92 40.92 37.88 40.92 34.16V31.4C40.92 30.56 41.6 29.86 42.46 29.86C43.3 29.86 44 30.54 44 31.4V34.16C44 39.58 39.58 44 34.16 44Z" fill="#EB1E2E"/>
<path d="M18.46 44H13.84C8.42 44 4 39.58 4 34.16V29.54C4 28.68 4.68 28 5.54 28C6.4 28 7.08 28.68 7.08 29.54V34.16C7.08 37.9 10.12 40.92 13.84 40.92H18.46C19.3 40.92 20 41.6 20 42.46C20 43.32 19.32 44 18.46 44Z" fill="#EB1E2E"/>
<path d="M36.92 22.46H34.2H13.8H11.08C10.22 22.46 9.53998 23.16 9.53998 24C9.53998 24.84 10.22 25.54 11.08 25.54H13.8H34.2H36.92C37.78 25.54 38.46 24.84 38.46 24C38.46 23.16 37.78 22.46 36.92 22.46Z" fill="#EB1E2E"/>
<path d="M13.8 27.88V28.54C13.8 31.86 16.48 34.54 19.8 34.54H28.2C31.52 34.54 34.2 31.86 34.2 28.54V27.88C34.2 27.64 34.02 27.46 33.78 27.46H14.22C13.98 27.46 13.8 27.64 13.8 27.88Z" fill="#EB1E2E"/>
<path opacity="0.4" d="M13.8 20.12V19.46C13.8 16.14 16.48 13.46 19.8 13.46H28.2C31.52 13.46 34.2 16.14 34.2 19.46V20.12C34.2 20.36 34.02 20.54 33.78 20.54H14.22C13.98 20.54 13.8 20.36 13.8 20.12Z" fill="#EB1E2E"/>
</svg>
