<svg width="41" height="40" viewBox="0 0 41 40" fill="none" xmlns="http://www.w3.org/2000/svg">
<rect x="0.5" width="40" height="40" rx="20" fill="#F1F8F4"/>
<rect x="4.5" y="4" width="32" height="32" rx="16" fill="#BCDEC9"/>
<path d="M20.5 10.25C15.1239 10.25 10.75 14.6239 10.75 20C10.75 25.3761 15.1239 29.75 20.5 29.75C25.8761 29.75 30.25 25.3761 30.25 20C30.25 14.6239 25.8761 10.25 20.5 10.25ZM25.5742 16.7323L19.2742 24.2323C19.2051 24.3147 19.1191 24.3812 19.0221 24.4273C18.925 24.4735 18.8192 24.4983 18.7117 24.5H18.6991C18.5939 24.5 18.49 24.4778 18.394 24.435C18.298 24.3922 18.212 24.3297 18.1417 24.2516L15.4417 21.2516C15.3731 21.1788 15.3198 21.0931 15.2848 20.9995C15.2499 20.9059 15.234 20.8062 15.238 20.7063C15.2421 20.6064 15.2662 20.5084 15.3087 20.4179C15.3512 20.3275 15.4114 20.2464 15.4857 20.1796C15.56 20.1127 15.6469 20.0614 15.7414 20.0286C15.8358 19.9958 15.9358 19.9822 16.0356 19.9886C16.1353 19.995 16.2328 20.0213 16.3222 20.0659C16.4117 20.1106 16.4913 20.1726 16.5564 20.2484L18.6794 22.6072L24.4258 15.7677C24.5547 15.6186 24.737 15.5263 24.9335 15.5107C25.1299 15.495 25.3246 15.5573 25.4754 15.684C25.6263 15.8107 25.7212 15.9918 25.7397 16.1879C25.7582 16.3841 25.6988 16.5797 25.5742 16.7323Z" fill="#2D6E50"/>
</svg>
