<svg width="40" height="40" viewBox="0 0 40 40" fill="none" xmlns="http://www.w3.org/2000/svg">
<path d="M8.33317 1.66666C6.7665 1.66666 5.3165 2.21666 4.1665 3.13333C2.63317 4.35 1.6665 6.23332 1.6665 8.33332C1.6665 9.58332 2.01653 10.7667 2.6332 11.7667C3.7832 13.7 5.89984 15 8.33317 15C10.0165 15 11.5498 14.3833 12.7165 13.3333C13.2332 12.9 13.6831 12.3667 14.0331 11.7667C14.6498 10.7667 14.9998 9.58332 14.9998 8.33332C14.9998 4.64999 12.0165 1.66666 8.33317 1.66666ZM10.9998 10.9667C10.7498 11.2167 10.4332 11.3333 10.1165 11.3333C9.79985 11.3333 9.48313 11.2167 9.23313 10.9667L8.34985 10.0833L7.43321 10.9999C7.18321 11.2499 6.86649 11.3667 6.54982 11.3667C6.23316 11.3667 5.91654 11.2499 5.66654 10.9999C5.18321 10.5166 5.18321 9.71662 5.66654 9.23329L6.58319 8.31664L5.69981 7.43336C5.21648 6.95003 5.21648 6.15003 5.69981 5.6667C6.18314 5.18336 6.98314 5.18336 7.46647 5.6667L8.34985 6.54998L9.18319 5.71664C9.66652 5.23331 10.4665 5.23331 10.9498 5.71664C11.4332 6.19998 11.4332 6.99997 10.9498 7.48331L10.1165 8.31664L10.9998 9.20002C11.4831 9.68336 11.4831 10.4667 10.9998 10.9667Z" fill="#EB1E2E"/>
<path opacity="0.4" d="M25.0002 5.00001V20C25.0002 21.8333 23.5002 23.3333 21.6668 23.3333H3.3335V12.7C4.55016 14.15 6.41687 15.05 8.48354 15C10.1669 14.9667 11.6835 14.3167 12.8168 13.2333C13.3335 12.8 13.7669 12.25 14.1002 11.65C14.7002 10.6333 15.0335 9.4333 15.0002 8.1833C14.9502 6.2333 14.0835 4.51668 12.7335 3.33334H23.3335C24.2502 3.33334 25.0002 4.08334 25.0002 5.00001Z" fill="#EB1E2E"/>
<path d="M36.6668 23.3333V28.3333C36.6668 31.1 34.4335 33.3333 31.6668 33.3333H30.0002C30.0002 31.5 28.5002 30 26.6668 30C24.8335 30 23.3335 31.5 23.3335 33.3333H16.6668C16.6668 31.5 15.1668 30 13.3335 30C11.5002 30 10.0002 31.5 10.0002 33.3333H8.3335C5.56683 33.3333 3.3335 31.1 3.3335 28.3333V23.3333H21.6668C23.5002 23.3333 25.0002 21.8333 25.0002 20V8.33334H28.0669C29.2669 8.33334 30.3669 8.98336 30.9669 10.0167L33.8168 15H31.6668C30.7502 15 30.0002 15.75 30.0002 16.6667V21.6667C30.0002 22.5833 30.7502 23.3333 31.6668 23.3333H36.6668Z" fill="#EB1E2E"/>
<path opacity="0.4" d="M13.3333 36.6667C15.1743 36.6667 16.6667 35.1743 16.6667 33.3333C16.6667 31.4924 15.1743 30 13.3333 30C11.4924 30 10 31.4924 10 33.3333C10 35.1743 11.4924 36.6667 13.3333 36.6667Z" fill="#EB1E2E"/>
<path opacity="0.4" d="M26.6668 36.6667C28.5078 36.6667 30.0002 35.1743 30.0002 33.3333C30.0002 31.4924 28.5078 30 26.6668 30C24.8259 30 23.3335 31.4924 23.3335 33.3333C23.3335 35.1743 24.8259 36.6667 26.6668 36.6667Z" fill="#EB1E2E"/>
<path opacity="0.4" d="M36.6667 20.8834V23.3333H31.6667C30.75 23.3333 30 22.5833 30 21.6667V16.6667C30 15.75 30.75 15 31.6667 15H33.8166L36.2333 19.2333C36.5167 19.7333 36.6667 20.3 36.6667 20.8834Z" fill="#EB1E2E"/>
</svg>
