<svg width="32" height="32" viewBox="0 0 32 32" fill="none" xmlns="http://www.w3.org/2000/svg">
<path opacity="0.4" d="M20 3.99999V16C20 17.4667 18.8 18.6667 17.3334 18.6667H2.66669V10.16C3.64002 11.32 5.13339 12.04 6.78672 12C8.13339 11.9733 9.34669 11.4533 10.2534 10.5867C10.6667 10.24 11.0134 9.79998 11.2801 9.31998C11.76 8.50664 12.0267 7.54662 12 6.54662C11.96 4.98662 11.2667 3.61332 10.1867 2.66666H18.6667C19.4 2.66666 20 3.26666 20 3.99999Z" fill="#B31312"/>
<path d="M29.3334 18.6667V22.6667C29.3334 24.88 27.5467 26.6667 25.3334 26.6667H24C24 25.2 22.8 24 21.3334 24C19.8667 24 18.6667 25.2 18.6667 26.6667H13.3334C13.3334 25.2 12.1334 24 10.6667 24C9.20002 24 8.00002 25.2 8.00002 26.6667H6.66669C4.45335 26.6667 2.66669 24.88 2.66669 22.6667V18.6667H17.3334C18.8 18.6667 20 17.4667 20 16V6.66666H22.4534C23.4134 6.66666 24.2934 7.18667 24.7734 8.01334L27.0533 12H25.3334C24.6 12 24 12.6 24 13.3333V17.3333C24 18.0667 24.6 18.6667 25.3334 18.6667H29.3334Z" fill="#B31312"/>
<path opacity="0.4" d="M10.6667 29.3333C12.1394 29.3333 13.3333 28.1394 13.3333 26.6667C13.3333 25.1939 12.1394 24 10.6667 24C9.19391 24 8 25.1939 8 26.6667C8 28.1394 9.19391 29.3333 10.6667 29.3333Z" fill="#B31312"/>
<path opacity="0.4" d="M21.3334 29.3333C22.8061 29.3333 24 28.1394 24 26.6667C24 25.1939 22.8061 24 21.3334 24C19.8606 24 18.6667 25.1939 18.6667 26.6667C18.6667 28.1394 19.8606 29.3333 21.3334 29.3333Z" fill="#B31312"/>
<path opacity="0.4" d="M29.3333 16.7067V18.6667H25.3333C24.6 18.6667 24 18.0667 24 17.3333V13.3333C24 12.6 24.6 12 25.3333 12H27.0533L28.9867 15.3866C29.2133 15.7866 29.3333 16.24 29.3333 16.7067Z" fill="#B31312"/>
<path d="M10.1867 2.6667C9.22667 1.81337 7.94662 1.3067 6.54662 1.33337C5.29328 1.36004 4.14664 1.82669 3.23997 2.57336C2.03998 3.57336 1.29332 5.10674 1.33332 6.78674C1.35998 7.78674 1.65332 8.72004 2.17332 9.50671C2.31999 9.73338 2.47998 9.96003 2.66665 10.16C3.63998 11.32 5.13335 12.04 6.78669 12C8.13335 11.9734 9.34665 11.4534 10.2533 10.5867C10.6667 10.24 11.0133 9.80002 11.28 9.32002C11.76 8.50669 12.0267 7.54667 12 6.54667C11.96 4.98667 11.2667 3.61337 10.1867 2.6667ZM9.41331 6.02673L6.62661 8.72001C6.42661 8.90667 6.18667 9.00004 5.93333 9.00004C5.68 9.00004 5.43998 8.90667 5.23997 8.72001L3.8933 7.44006C3.4933 7.05339 3.48002 6.42673 3.86668 6.02673C4.25335 5.62673 4.88001 5.61337 5.28001 6.00004L5.93333 6.62666L8.02668 4.60005C8.42668 4.21339 9.05334 4.22666 9.44001 4.62666C9.82667 5.01333 9.81332 5.64006 9.41331 6.02673Z" fill="#B31312"/>
</svg>
