<svg width="48" height="48" viewBox="0 0 48 48" fill="none" xmlns="http://www.w3.org/2000/svg">
<path opacity="0.4" d="M44 28V34C44 37.32 41.32 40 38 40H36C36 37.8 34.2 36 32 36C29.8 36 28 37.8 28 40H20C20 37.8 18.2 36 16 36C13.8 36 12 37.8 12 40H10C6.68 40 4 37.32 4 34V28H26C28.2 28 30 26.2 30 24V10H33.6801C35.1201 10 36.44 10.78 37.16 12.02L40.58 18H38C36.9 18 36 18.9 36 20V26C36 27.1 36.9 28 38 28H44Z" fill="#B31312"/>
<path d="M16 44C18.2091 44 20 42.2091 20 40C20 37.7909 18.2091 36 16 36C13.7909 36 12 37.7909 12 40C12 42.2091 13.7909 44 16 44Z" fill="#B31312"/>
<path d="M32 44C34.2091 44 36 42.2091 36 40C36 37.7909 34.2091 36 32 36C29.7909 36 28 37.7909 28 40C28 42.2091 29.7909 44 32 44Z" fill="#B31312"/>
<path d="M44 25.0601V28H38C36.9 28 36 27.1 36 26V20C36 18.9 36.9 18 38 18H40.58L43.48 23.08C43.82 23.68 44 24.3601 44 25.0601Z" fill="#A01514"/>
<path d="M28 4H12C8.1 4 4.86003 6.8 4.16003 10.5H14C14.82 10.5 15.5 11.18 15.5 12C15.5 12.82 14.82 13.5 14 13.5H4V16.5H10C10.82 16.5 11.5 17.18 11.5 18C11.5 18.82 10.82 19.5 10 19.5H4V22.5H6C6.82 22.5 7.5 23.18 7.5 24C7.5 24.82 6.82 25.5 6 25.5H4V28H26C28.2 28 30 26.2 30 24V6C30 4.9 29.1 4 28 4Z" fill="#A01514"/>
<path d="M4.16003 10.5H2C1.18 10.5 0.5 11.18 0.5 12C0.5 12.82 1.18 13.5 2 13.5H4V12C4 11.48 4.06003 10.98 4.16003 10.5Z" fill="#A01514"/>
<path d="M2 16.5C1.18 16.5 0.5 17.18 0.5 18C0.5 18.82 1.18 19.5 2 19.5H4V16.5H2Z" fill="#A01514"/>
<path d="M2 22.5C1.18 22.5 0.5 23.18 0.5 24C0.5 24.82 1.18 25.5 2 25.5H4V22.5H2Z" fill="#A01514"/>
</svg>
