<svg width="32" height="32" viewBox="0 0 32 32" fill="none" xmlns="http://www.w3.org/2000/svg">
<path d="M16 16C19.6819 16 22.6667 13.0152 22.6667 9.33334C22.6667 5.65144 19.6819 2.66667 16 2.66667C12.3181 2.66667 9.33334 5.65144 9.33334 9.33334C9.33334 13.0152 12.3181 16 16 16Z" fill="#B31312"/>
<path opacity="0.4" d="M16 19.3333C9.32001 19.3333 3.87997 23.8133 3.87997 29.3333C3.87997 29.7067 4.17331 30 4.54664 30H27.4534C27.8267 30 28.12 29.7067 28.12 29.3333C28.12 23.8133 22.68 19.3333 16 19.3333Z" fill="#B31312"/>
<path d="M30.36 27.5733L29.3467 26.56C29.88 25.76 30.1867 24.8 30.1867 23.7734C30.1867 20.96 27.9067 18.68 25.0933 18.68C22.28 18.68 20 20.96 20 23.7734C20 26.5867 22.28 28.8667 25.0933 28.8667C26.12 28.8667 27.08 28.56 27.88 28.0267L28.8933 29.04C29.0933 29.24 29.36 29.3467 29.6266 29.3467C29.8933 29.3467 30.16 29.24 30.36 29.04C30.7734 28.6267 30.7734 27.9733 30.36 27.5733Z" fill="#B31312"/>
</svg>
