<svg width="41" height="40" viewBox="0 0 41 40" fill="none" xmlns="http://www.w3.org/2000/svg">
<rect x="0.5" width="40" height="40" rx="20" fill="#FCF7EE"/>
<rect x="4.5" y="4" width="32" height="32" rx="16" fill="#F5E9D0"/>
<path d="M20.5 10.25C15.1239 10.25 10.75 14.6239 10.75 20C10.75 25.3761 15.1239 29.75 20.5 29.75C25.8761 29.75 30.25 25.3761 30.25 20C30.25 14.6239 25.8761 10.25 20.5 10.25ZM20.5 25.2458C20.3146 25.2458 20.1333 25.1908 19.9792 25.0878C19.825 24.9848 19.7048 24.8384 19.6339 24.667C19.5629 24.4957 19.5443 24.3072 19.5805 24.1254C19.6167 23.9435 19.706 23.7765 19.8371 23.6454C19.9682 23.5143 20.1352 23.425 20.3171 23.3888C20.499 23.3526 20.6875 23.3712 20.8588 23.4421C21.0301 23.5131 21.1765 23.6333 21.2795 23.7874C21.3825 23.9416 21.4375 24.1229 21.4375 24.3083C21.4375 24.5569 21.3387 24.7954 21.1629 24.9712C20.9871 25.147 20.7486 25.2458 20.5 25.2458ZM21.5181 15.8169L21.2491 21.5356C21.2491 21.7345 21.17 21.9253 21.0294 22.066C20.8887 22.2066 20.698 22.2856 20.4991 22.2856C20.3001 22.2856 20.1094 22.2066 19.9687 22.066C19.8281 21.9253 19.7491 21.7345 19.7491 21.5356L19.48 15.8197V15.8173C19.4741 15.68 19.4961 15.5428 19.5446 15.4142C19.5931 15.2855 19.6671 15.168 19.7622 15.0687C19.8574 14.9694 19.9716 14.8904 20.0981 14.8364C20.2245 14.7824 20.3606 14.7546 20.4981 14.7546C20.6356 14.7546 20.7717 14.7824 20.8982 14.8364C21.0246 14.8904 21.1389 14.9694 21.234 15.0687C21.3291 15.168 21.4032 15.2855 21.4517 15.4142C21.5002 15.5428 21.5221 15.68 21.5162 15.8173L21.5181 15.8169Z" fill="#B86027"/>
</svg>
