<svg width="40" height="40" viewBox="0 0 40 40" fill="none" xmlns="http://www.w3.org/2000/svg">
<path d="M13.3335 9.58325C12.6502 9.58325 12.0835 9.01659 12.0835 8.33325V3.33325C12.0835 2.64992 12.6502 2.08325 13.3335 2.08325C14.0168 2.08325 14.5835 2.64992 14.5835 3.33325V8.33325C14.5835 9.01659 14.0168 9.58325 13.3335 9.58325Z" fill="#EB1E2E"/>
<path d="M26.6665 9.58325C25.9832 9.58325 25.4165 9.01659 25.4165 8.33325V3.33325C25.4165 2.64992 25.9832 2.08325 26.6665 2.08325C27.3498 2.08325 27.9165 2.64992 27.9165 3.33325V8.33325C27.9165 9.01659 27.3498 9.58325 26.6665 9.58325Z" fill="#EB1E2E"/>
<path opacity="0.4" d="M35 14.1666V28.3333C35 33.3333 32.5 36.6666 26.6667 36.6666H13.3333C7.5 36.6666 5 33.3333 5 28.3333V14.1666C5 9.16659 7.5 5.83325 13.3333 5.83325H26.6667C32.5 5.83325 35 9.16659 35 14.1666Z" fill="#EB1E2E"/>
<path d="M26.6668 19.5833H13.3335C12.6502 19.5833 12.0835 19.0166 12.0835 18.3333C12.0835 17.6499 12.6502 17.0833 13.3335 17.0833H26.6668C27.3502 17.0833 27.9168 17.6499 27.9168 18.3333C27.9168 19.0166 27.3502 19.5833 26.6668 19.5833Z" fill="#EB1E2E"/>
<path d="M20.0002 27.9167H13.3335C12.6502 27.9167 12.0835 27.3501 12.0835 26.6667C12.0835 25.9834 12.6502 25.4167 13.3335 25.4167H20.0002C20.6835 25.4167 21.2502 25.9834 21.2502 26.6667C21.2502 27.3501 20.6835 27.9167 20.0002 27.9167Z" fill="#EB1E2E"/>
</svg>
